<?xml version="1.0" encoding="UTF-8"?>
<svg xmlns="http://www.w3.org/2000/svg" xmlns:xlink="http://www.w3.org/1999/xlink" width="26pt" height="12pt" viewBox="0 0 26 12" version="1.1">
<g id="surface1">
<path style=" stroke:none;fill-rule:nonzero;fill:rgb(87.058824%,24.705882%,41.960784%);fill-opacity:1;" d="M 5.617188 0 L 6.683594 0 C 8.355469 0.160156 9.898438 0.984375 11.042969 2.171875 C 13.414062 4.617188 14.722656 8.070312 17.742188 9.890625 C 19.925781 11.207031 22.980469 10.132812 24.054688 7.90625 C 24.601562 7.898438 25.148438 7.898438 25.695312 7.898438 C 24.945312 10.160156 22.753906 11.78125 20.359375 12 L 19.480469 12 C 18.003906 11.878906 16.574219 11.324219 15.457031 10.359375 C 13.835938 9.011719 12.796875 7.164062 11.539062 5.515625 C 10.457031 4.0625 9.351562 2.425781 7.5625 1.765625 C 5.347656 0.949219 2.644531 2.222656 1.839844 4.390625 C 1.128906 6.171875 1.707031 8.382812 3.292969 9.523438 C 4.480469 10.425781 6.136719 10.765625 7.5625 10.238281 C 9.148438 9.675781 10.328125 8.398438 11.230469 7.046875 C 11.585938 7.546875 11.929688 8.054688 12.273438 8.566406 C 10.871094 10.300781 8.921875 11.792969 6.605469 12 L 5.65625 12 C 2.738281 11.800781 0.199219 9.363281 0 6.488281 L 0 5.546875 C 0.191406 2.671875 2.695312 0.210938 5.617188 0 "/>
<path style=" stroke:none;fill-rule:nonzero;fill:rgb(87.058824%,24.705882%,41.960784%);fill-opacity:1;" d="M 19.417969 0 L 20.304688 0 C 23.25 0.1875 25.757812 2.671875 26 5.550781 L 26 7.027344 C 23.570312 7.050781 21.136719 7.035156 18.703125 7.035156 C 18.707031 6.605469 18.707031 6.175781 18.703125 5.746094 C 20.625 5.738281 22.542969 5.753906 24.464844 5.738281 C 24.328125 4.976562 24.152344 4.195312 23.691406 3.550781 C 22.566406 1.863281 20.195312 1.175781 18.296875 1.90625 C 16.78125 2.457031 15.644531 3.664062 14.765625 4.953125 C 14.425781 4.476562 14.09375 3.992188 13.765625 3.503906 C 15.152344 1.742188 17.085938 0.21875 19.417969 0 "/>
</g>
</svg>
