<?xml version="1.0" encoding="UTF-8"?>
<svg xmlns="http://www.w3.org/2000/svg" xmlns:xlink="http://www.w3.org/1999/xlink" width="26pt" height="25pt" viewBox="0 0 26 25" version="1.1">
<g id="surface1">
<path style=" stroke:none;fill-rule:nonzero;fill:rgb(16.862745%,36.862745%,72.941176%);fill-opacity:1;" d="M 25.996094 12.492188 C 25.996094 15.441406 23.558594 17.832031 20.550781 17.832031 C 17.546875 17.832031 15.109375 15.441406 15.109375 12.492188 C 15.109375 9.542969 17.546875 7.152344 20.550781 7.152344 C 23.558594 7.152344 25.996094 9.542969 25.996094 12.492188 Z M 25.996094 12.492188 "/>
<path style=" stroke:none;fill-rule:nonzero;fill:rgb(16.862745%,36.862745%,72.941176%);fill-opacity:1;" d="M 16.296875 2.574219 C 16.296875 3.996094 15.121094 5.148438 13.671875 5.148438 C 12.222656 5.148438 11.046875 3.996094 11.046875 2.574219 C 11.046875 1.152344 12.222656 0 13.671875 0 C 15.121094 0 16.296875 1.152344 16.296875 2.574219 Z M 16.296875 2.574219 "/>
<path style=" stroke:none;fill-rule:nonzero;fill:rgb(16.862745%,36.862745%,72.941176%);fill-opacity:1;" d="M 16.296875 22.425781 C 16.296875 23.847656 15.121094 25 13.671875 25 C 12.222656 25 11.046875 23.847656 11.046875 22.425781 C 11.046875 21.003906 12.222656 19.851562 13.671875 19.851562 C 15.121094 19.851562 16.296875 21.003906 16.296875 22.425781 Z M 16.296875 22.425781 "/>
<path style=" stroke:none;fill-rule:nonzero;fill:rgb(16.862745%,36.862745%,72.941176%);fill-opacity:1;" d="M 12.46875 16.347656 C 12.625 16.398438 12.792969 16.425781 12.960938 16.425781 C 13.867188 16.425781 14.605469 15.703125 14.605469 14.816406 C 14.605469 13.925781 13.867188 13.203125 12.960938 13.203125 C 12.378906 13.203125 11.875 13.496094 11.578125 13.941406 L 11.578125 13.953125 C 11.527344 14.015625 11.488281 14.09375 11.460938 14.167969 C 9.652344 17.300781 6.015625 15.207031 6.015625 15.207031 C 5.421875 14.867188 4.734375 14.664062 3.984375 14.664062 C 1.800781 14.664062 0.0273438 16.398438 0.0273438 18.542969 C 0.0273438 20.6875 1.800781 22.425781 3.984375 22.425781 C 5.511719 22.425781 6.84375 21.574219 7.492188 20.332031 L 7.492188 20.320312 C 7.605469 20.105469 7.699219 19.875 7.773438 19.632812 C 9.664062 15.386719 12.46875 16.347656 12.46875 16.347656 Z M 11.539062 10.65625 C 11.617188 10.792969 11.71875 10.933594 11.835938 11.046875 C 12.484375 11.683594 13.515625 11.683594 14.152344 11.046875 C 14.796875 10.414062 14.796875 9.398438 14.152344 8.777344 C 13.738281 8.371094 13.167969 8.230469 12.652344 8.347656 L 12.636719 8.347656 C 12.558594 8.359375 12.46875 8.382812 12.390625 8.421875 C 8.847656 9.386719 7.789062 5.378906 7.789062 5.378906 C 7.621094 4.71875 7.269531 4.097656 6.753906 3.589844 C 5.203125 2.066406 2.707031 2.066406 1.167969 3.578125 C -0.371094 5.085938 -0.386719 7.546875 1.167969 9.054688 C 2.253906 10.121094 3.792969 10.4375 5.164062 10.007812 L 5.175781 10.007812 C 5.410156 9.929688 5.640625 9.828125 5.875 9.714844 C 10.257812 8.015625 11.539062 10.65625 11.539062 10.65625 Z M 11.539062 10.65625 "/>
</g>
</svg>
