<?xml version="1.0" encoding="UTF-8"?>
<svg xmlns="http://www.w3.org/2000/svg" xmlns:xlink="http://www.w3.org/1999/xlink" width="26pt" height="26pt" viewBox="0 0 26 26" version="1.1">
<g id="surface1">
<path style=" stroke:none;fill-rule:nonzero;fill:rgb(0%,5.098039%,16.862745%);fill-opacity:1;" d="M 26 13 C 26 20.179688 20.179688 26 13 26 C 5.820312 26 0 20.179688 0 13 C 0 5.820312 5.820312 0 13 0 C 20.179688 0 26 5.820312 26 13 Z M 26 13 "/>
<path style=" stroke:none;fill-rule:nonzero;fill:rgb(100%,100%,100%);fill-opacity:1;" d="M 12.933594 4.777344 L 9.265625 6.929688 L 12.933594 9.078125 L 16.675781 6.929688 Z M 13.539062 16.261719 L 13.539062 20.5625 L 18.523438 17.71875 L 18.523438 13.414062 Z M 17.277344 8.28125 L 17.277344 12.585938 L 13.539062 14.734375 L 13.539062 10.433594 Z M 8.273438 12.585938 L 12.015625 14.734375 L 12.015625 10.433594 L 8.273438 8.28125 Z M 8.273438 18.414062 L 12.015625 20.5625 L 12.015625 16.261719 L 8.273438 14.109375 Z M 8.273438 18.414062 "/>
</g>
</svg>
