<?xml version="1.0" encoding="UTF-8"?>
<svg xmlns="http://www.w3.org/2000/svg" xmlns:xlink="http://www.w3.org/1999/xlink" width="26pt" height="26pt" viewBox="0 0 26 26" version="1.1">
<g id="surface1">
<path style=" stroke:none;fill-rule:evenodd;fill:rgb(0%,0%,0%);fill-opacity:1;" d="M 26 13 C 26 20.179688 20.179688 26 13 26 C 5.820312 26 0 20.179688 0 13 C 0 5.820312 5.820312 0 13 0 C 20.179688 0 26 5.820312 26 13 Z M 26 13 "/>
<path style=" stroke:none;fill-rule:nonzero;fill:rgb(100%,100%,100%);fill-opacity:1;" d="M 13.765625 19.96875 C 13.808594 20.066406 13.828125 20.175781 13.828125 20.289062 C 13.828125 20.75 13.449219 21.125 12.980469 21.125 C 12.511719 21.125 12.132812 20.75 12.132812 20.289062 C 12.132812 20.179688 12.152344 20.074219 12.191406 19.976562 L 7.148438 17.109375 C 6.988281 17.273438 6.765625 17.367188 6.535156 17.367188 C 6.066406 17.367188 5.6875 16.992188 5.6875 16.53125 C 5.6875 16.140625 5.957031 15.816406 6.324219 15.722656 L 6.324219 10.011719 C 5.953125 9.921875 5.691406 9.585938 5.6875 9.203125 C 5.6875 8.742188 6.066406 8.367188 6.535156 8.367188 C 6.816406 8.367188 7.066406 8.503906 7.222656 8.710938 L 12.15625 5.90625 C 12.140625 5.84375 12.132812 5.777344 12.132812 5.710938 C 12.132812 5.25 12.511719 4.875 12.980469 4.875 C 13.238281 4.875 13.480469 4.988281 13.640625 5.191406 C 13.800781 5.390625 13.863281 5.652344 13.808594 5.902344 L 18.769531 8.722656 C 18.925781 8.507812 19.175781 8.367188 19.464844 8.367188 C 19.933594 8.367188 20.3125 8.742188 20.3125 9.203125 C 20.3125 9.59375 20.039062 9.921875 19.671875 10.011719 L 19.660156 15.71875 C 20.03125 15.804688 20.3125 16.136719 20.3125 16.53125 C 20.3125 16.992188 19.933594 17.367188 19.464844 17.367188 C 19.222656 17.367188 18.996094 17.265625 18.832031 17.089844 Z M 13.539062 19.660156 L 18.644531 16.757812 C 18.597656 16.59375 18.605469 16.414062 18.664062 16.253906 L 13.734375 13.082031 C 13.542969 13.285156 13.277344 13.398438 13 13.398438 C 12.691406 13.398438 12.394531 13.257812 12.203125 13.011719 L 7.347656 16.285156 C 7.398438 16.449219 7.398438 16.621094 7.34375 16.785156 L 12.417969 19.664062 C 12.574219 19.527344 12.773438 19.453125 12.980469 19.453125 C 13.195312 19.453125 13.390625 19.53125 13.539062 19.660156 Z M 13.632812 6.242188 C 13.519531 6.378906 13.363281 6.476562 13.191406 6.519531 L 13.175781 11.441406 C 13.652344 11.519531 14 11.929688 14.003906 12.410156 C 14.003906 12.535156 13.980469 12.652344 13.9375 12.761719 L 18.871094 15.933594 C 18.980469 15.828125 19.117188 15.75 19.273438 15.71875 L 19.289062 10.019531 C 18.851562 9.933594 18.558594 9.519531 18.625 9.078125 Z M 12.332031 6.246094 L 7.375 9.0625 C 7.445312 9.507812 7.152344 9.933594 6.710938 10.019531 L 6.710938 15.714844 C 6.882812 15.75 7.035156 15.835938 7.152344 15.957031 L 12.03125 12.671875 C 11.960938 12.40625 12.003906 12.125 12.148438 11.894531 C 12.292969 11.664062 12.523438 11.5 12.792969 11.445312 L 12.804688 6.527344 C 12.621094 6.488281 12.453125 6.390625 12.332031 6.246094 Z M 12.332031 6.246094 "/>
</g>
</svg>
