<?xml version="1.0" encoding="UTF-8"?>
<svg xmlns="http://www.w3.org/2000/svg" xmlns:xlink="http://www.w3.org/1999/xlink" width="26pt" height="26pt" viewBox="0 0 26 26" version="1.1">
<g id="surface1">
<path style=" stroke:none;fill-rule:nonzero;fill:rgb(95.294118%,72.941176%,18.431373%);fill-opacity:1;" d="M 7.949219 10.925781 L 13 5.875 L 18.050781 10.929688 L 20.988281 7.988281 L 13 0 L 5.011719 7.988281 L 7.949219 10.925781 M 0 13 L 2.9375 10.0625 L 5.875 13 L 2.9375 15.9375 Z M 7.949219 15.074219 L 13 20.125 L 18.050781 15.070312 L 20.992188 18.007812 L 13 26 L 5.007812 18.007812 L 7.949219 15.074219 M 20.125 13 L 23.0625 10.0625 L 26 13 L 23.0625 15.9375 Z M 20.125 13 "/>
<path style=" stroke:none;fill-rule:nonzero;fill:rgb(95.294118%,72.941176%,18.431373%);fill-opacity:1;" d="M 15.980469 13 L 13 10.015625 L 10.015625 13 L 13 15.984375 L 15.980469 13 L 15.984375 13 L 15.980469 13 "/>
</g>
</svg>
