<?xml version="1.0" encoding="UTF-8"?>
<svg xmlns="http://www.w3.org/2000/svg" xmlns:xlink="http://www.w3.org/1999/xlink" width="26pt" height="26pt" viewBox="0 0 26 26" version="1.1">
<g id="surface1">
<path style=" stroke:none;fill-rule:nonzero;fill:rgb(80.392157%,0.392157%,14.117647%);fill-opacity:1;" d="M 15.425781 13.605469 C 15.425781 13.433594 15.425781 13.347656 15.253906 13.261719 C 14.648438 12.828125 13.953125 12.394531 13.347656 11.960938 C 13.214844 11.871094 13.042969 11.871094 12.914062 11.960938 L 11.007812 13.347656 C 10.84375 13.429688 10.742188 13.597656 10.746094 13.78125 C 10.742188 13.96875 10.683594 14.148438 10.574219 14.300781 C 10.484375 14.429688 10.484375 14.601562 10.574219 14.734375 C 11.265625 16.121094 11.875 17.507812 12.566406 18.894531 C 12.828125 19.328125 13 19.847656 13.261719 20.367188 C 13.347656 20.28125 13.347656 20.191406 13.433594 20.105469 C 14.214844 18.375 14.90625 16.640625 15.6875 14.90625 C 15.773438 14.734375 15.773438 14.648438 15.601562 14.558594 C 15.402344 14.285156 15.339844 13.933594 15.425781 13.605469 Z M 15.425781 13.605469 "/>
<path style=" stroke:none;fill-rule:nonzero;fill:rgb(80.392157%,0.392157%,14.117647%);fill-opacity:1;" d="M 12.480469 11.351562 C 10.746094 10.140625 9.011719 8.925781 7.367188 7.800781 L 7.28125 7.886719 C 7.367188 8.058594 7.367188 8.148438 7.453125 8.320312 L 9.273438 12.21875 C 9.445312 12.566406 9.535156 12.914062 10.054688 13 C 10.203125 13.011719 10.355469 12.984375 10.488281 12.914062 C 11.007812 12.480469 11.613281 12.132812 12.132812 11.699219 Z M 12.480469 11.351562 "/>
<path style=" stroke:none;fill-rule:nonzero;fill:rgb(80.392157%,0.392157%,14.117647%);fill-opacity:1;" d="M 13 0 C 5.820312 0 0 5.820312 0 13 C 0 20.179688 5.820312 26 13 26 C 20.179688 26 26 20.179688 26 13 C 26 5.820312 20.179688 0 13 0 Z M 20.019531 7.539062 C 19.847656 7.539062 19.761719 7.625 19.671875 7.800781 C 18.980469 9.535156 18.199219 11.265625 17.507812 13 L 17.507812 13.347656 C 17.648438 13.644531 17.652344 13.984375 17.515625 14.285156 C 17.382812 14.585938 17.128906 14.8125 16.8125 14.90625 C 16.726562 14.90625 16.640625 14.992188 16.554688 15.167969 C 15.773438 16.898438 14.992188 18.71875 14.300781 20.453125 C 14.210938 20.585938 14.210938 20.753906 14.300781 20.886719 C 14.636719 21.347656 14.558594 21.988281 14.125 22.359375 C 13.75 22.730469 13.160156 22.769531 12.738281 22.445312 C 12.519531 22.296875 12.371094 22.066406 12.324219 21.808594 C 12.273438 21.546875 12.332031 21.277344 12.480469 21.058594 C 12.566406 20.898438 12.566406 20.703125 12.480469 20.539062 C 11.613281 18.808594 10.832031 17.074219 9.964844 15.339844 C 9.886719 15.160156 9.726562 15.03125 9.535156 14.992188 C 9.175781 14.933594 8.867188 14.703125 8.710938 14.375 C 8.558594 14.046875 8.574219 13.660156 8.753906 13.347656 C 8.839844 13.214844 8.839844 13.042969 8.753906 12.914062 C 7.972656 11.179688 7.191406 9.535156 6.328125 7.800781 C 6.328125 7.714844 6.238281 7.625 5.980469 7.625 C 5.453125 7.554688 5.054688 7.117188 5.027344 6.585938 C 5.058594 6.097656 5.359375 5.664062 5.808594 5.460938 C 6.289062 5.273438 6.832031 5.457031 7.105469 5.894531 C 7.191406 6.066406 7.28125 6.066406 7.539062 6.066406 L 18.546875 6.066406 C 18.71875 6.066406 18.894531 6.066406 18.980469 5.808594 C 19.222656 5.386719 19.738281 5.203125 20.191406 5.375 C 20.632812 5.539062 20.9375 5.945312 20.972656 6.414062 C 20.980469 6.972656 20.574219 7.453125 20.019531 7.539062 Z M 20.019531 7.539062 "/>
<path style=" stroke:none;fill-rule:nonzero;fill:rgb(80.392157%,0.392157%,14.117647%);fill-opacity:1;" d="M 13 10.746094 C 13.132812 10.835938 13.300781 10.835938 13.433594 10.746094 C 15.078125 9.535156 16.726562 8.40625 18.285156 7.191406 C 18.375 7.105469 18.460938 7.105469 18.460938 7.019531 L 18.460938 6.933594 L 7.539062 6.933594 C 7.640625 6.96875 7.726562 7.027344 7.800781 7.105469 Z M 13 10.746094 "/>
<path style=" stroke:none;fill-rule:nonzero;fill:rgb(80.392157%,0.392157%,14.117647%);fill-opacity:1;" d="M 13.867188 11.351562 C 14.558594 11.875 15.253906 12.308594 15.945312 12.738281 C 16.121094 12.828125 16.378906 12.738281 16.640625 12.738281 C 16.726562 12.738281 16.8125 12.566406 16.8125 12.480469 C 17.421875 11.09375 18.027344 9.621094 18.632812 8.234375 C 18.632812 8.148438 18.71875 8.058594 18.71875 7.972656 L 18.632812 7.972656 C 17.160156 9.011719 15.511719 10.140625 13.867188 11.351562 Z M 13.867188 11.351562 "/>
</g>
</svg>
