<?xml version="1.0" encoding="UTF-8"?>
<svg xmlns="http://www.w3.org/2000/svg" xmlns:xlink="http://www.w3.org/1999/xlink" width="26pt" height="26pt" viewBox="0 0 26 26" version="1.1">
<g id="surface1">
<path style=" stroke:none;fill-rule:nonzero;fill:rgb(22.745098%,69.019608%,24.313725%);fill-opacity:1;" d="M 14.488281 14.011719 C 15.53125 13.5 16.195312 12.4375 16.191406 11.273438 C 16.191406 9.589844 14.832031 8.226562 13.15625 8.226562 C 11.480469 8.226562 10.117188 9.589844 10.117188 11.273438 C 10.117188 12.4375 10.777344 13.5 11.824219 14.011719 L 11.824219 17.773438 L 14.488281 17.773438 L 14.488281 14.011719 M 13.15625 22.75 C 7.796875 22.75 3.4375 18.375 3.4375 13 C 3.4375 7.625 7.796875 3.25 13.15625 3.25 C 17.53125 3.25 21.238281 6.164062 22.453125 10.15625 L 25.804688 10.15625 C 24.511719 4.34375 19.339844 0 13.15625 0 C 6 0 0.195312 5.820312 0.195312 13 C 0.195312 20.179688 6 26 13.15625 26 C 19.339844 26 24.511719 21.65625 25.804688 15.84375 L 22.453125 15.84375 C 21.234375 19.839844 17.53125 22.75 13.15625 22.75 "/>
</g>
</svg>
