<?xml version="1.0" encoding="UTF-8"?>
<svg xmlns="http://www.w3.org/2000/svg" xmlns:xlink="http://www.w3.org/1999/xlink" width="26pt" height="26pt" viewBox="0 0 26 26" version="1.1">
<g id="surface1">
<path style=" stroke:none;fill-rule:nonzero;fill:rgb(96.078431%,67.45098%,21.568627%);fill-opacity:1;" d="M 26 13 C 26 20.179688 20.179688 26 13 26 C 5.820312 26 0 20.179688 0 13 C 0 5.820312 5.820312 0 13 0 C 20.179688 0 26 5.820312 26 13 Z M 26 13 "/>
<path style=" stroke:none;fill-rule:nonzero;fill:rgb(99.607843%,99.607843%,99.215686%);fill-opacity:1;" d="M 6.808594 20.214844 L 6.808594 20.167969 C 6.808594 19.53125 6.808594 18.898438 6.808594 18.273438 C 6.808594 18.0625 6.808594 17.84375 6.808594 17.632812 L 6.808594 15.722656 C 6.808594 15.617188 6.808594 15.601562 6.679688 15.601562 L 4.914062 15.601562 C 4.816406 15.601562 4.777344 15.601562 4.777344 15.46875 C 4.777344 14.957031 4.777344 14.4375 4.777344 13.925781 L 6.664062 13.925781 C 6.769531 13.925781 6.808594 13.925781 6.808594 13.789062 C 6.808594 13.277344 6.808594 12.773438 6.808594 12.261719 C 6.808594 12.164062 6.808594 12.140625 6.679688 12.140625 L 4.914062 12.140625 C 4.816406 12.140625 4.777344 12.140625 4.777344 12.007812 C 4.777344 11.539062 4.777344 11.058594 4.777344 10.578125 C 4.777344 10.488281 4.777344 10.464844 4.90625 10.464844 C 5.484375 10.464844 6.070312 10.464844 6.65625 10.464844 C 6.777344 10.464844 6.808594 10.464844 6.808594 10.3125 L 6.808594 5.929688 C 6.808594 5.800781 6.808594 5.769531 6.972656 5.769531 L 13.066406 5.769531 C 13.507812 5.785156 13.945312 5.835938 14.382812 5.914062 C 15.277344 6.082031 16.136719 6.398438 16.925781 6.859375 C 17.445312 7.164062 17.925781 7.535156 18.355469 7.960938 C 18.675781 8.296875 18.964844 8.65625 19.222656 9.042969 C 19.480469 9.433594 19.691406 9.851562 19.859375 10.285156 C 19.878906 10.402344 19.988281 10.476562 20.101562 10.457031 C 20.582031 10.457031 21.066406 10.457031 21.554688 10.457031 C 21.742188 10.457031 21.742188 10.457031 21.75 10.636719 L 21.75 11.96875 C 21.75 12.097656 21.703125 12.128906 21.570312 12.128906 L 20.449219 12.128906 C 20.335938 12.128906 20.304688 12.128906 20.3125 12.277344 C 20.355469 12.773438 20.355469 13.269531 20.3125 13.765625 C 20.3125 13.902344 20.3125 13.917969 20.46875 13.917969 L 21.75 13.917969 C 21.808594 13.992188 21.75 14.0625 21.75 14.136719 C 21.757812 14.230469 21.757812 14.328125 21.75 14.421875 C 21.75 14.753906 21.75 15.078125 21.75 15.40625 C 21.75 15.542969 21.710938 15.582031 21.589844 15.582031 C 21.078125 15.582031 20.5625 15.582031 20.050781 15.582031 C 19.945312 15.5625 19.839844 15.632812 19.816406 15.738281 C 19.449219 16.6875 18.867188 17.539062 18.109375 18.222656 C 17.835938 18.472656 17.542969 18.707031 17.242188 18.921875 C 16.917969 19.109375 16.597656 19.304688 16.265625 19.460938 C 15.652344 19.734375 15.007812 19.941406 14.347656 20.070312 C 13.722656 20.179688 13.085938 20.234375 12.449219 20.222656 L 6.808594 20.222656 Z M 18.03125 15.609375 C 17.890625 15.59375 17.753906 15.59375 17.613281 15.609375 L 8.605469 15.609375 C 8.484375 15.609375 8.441406 15.609375 8.441406 15.769531 C 8.441406 16.714844 8.441406 17.648438 8.441406 18.589844 C 8.441406 18.71875 8.441406 18.753906 8.605469 18.753906 L 12.765625 18.753906 C 12.964844 18.765625 13.164062 18.753906 13.359375 18.710938 C 13.960938 18.667969 14.554688 18.535156 15.121094 18.320312 C 15.328125 18.25 15.527344 18.15625 15.714844 18.046875 C 15.714844 18.046875 15.753906 18.046875 15.769531 18.046875 C 16.746094 17.539062 17.539062 16.742188 18.039062 15.761719 C 18.039062 15.761719 18.09375 15.640625 18.03125 15.609375 Z M 18.03125 10.441406 C 18.042969 10.402344 18.042969 10.363281 18.03125 10.328125 C 17.949219 10.148438 17.851562 9.976562 17.738281 9.816406 C 17.566406 9.539062 17.363281 9.285156 17.136719 9.058594 C 17.027344 8.921875 16.902344 8.796875 16.761719 8.695312 C 16.058594 8.09375 15.222656 7.671875 14.324219 7.457031 C 13.871094 7.355469 13.40625 7.308594 12.941406 7.3125 C 11.488281 7.3125 10.035156 7.3125 8.578125 7.3125 C 8.457031 7.3125 8.441406 7.359375 8.441406 7.46875 C 8.441406 8.425781 8.441406 9.390625 8.441406 10.351562 C 8.441406 10.472656 8.441406 10.503906 8.597656 10.503906 L 17.972656 10.503906 C 17.972656 10.503906 18.054688 10.488281 18.070312 10.441406 Z M 13.480469 13.917969 L 18.417969 13.917969 C 18.523438 13.917969 18.574219 13.917969 18.582031 13.78125 C 18.621094 13.277344 18.621094 12.773438 18.582031 12.269531 C 18.582031 12.171875 18.53125 12.128906 18.425781 12.128906 L 8.597656 12.128906 C 8.472656 12.128906 8.441406 12.171875 8.441406 12.285156 L 8.441406 13.730469 C 8.441406 13.917969 8.441406 13.917969 8.636719 13.917969 Z M 13.480469 13.917969 "/>
</g>
</svg>
