<?xml version="1.0" encoding="UTF-8"?>
<svg xmlns="http://www.w3.org/2000/svg" xmlns:xlink="http://www.w3.org/1999/xlink" width="26pt" height="29pt" viewBox="0 0 26 29" version="1.1">
<g id="surface1">
<path style=" stroke:none;fill-rule:nonzero;fill:rgb(91.764706%,14.509804%,61.960784%);fill-opacity:1;" d="M 13.019531 7.445312 L 19.070312 11.007812 L 13.019531 14.382812 L 6.691406 11.007812 Z M 13.019531 7.445312 "/>
<path style=" stroke:none;fill-rule:nonzero;fill:rgb(0.392157%,29.803922%,60%);fill-opacity:1;" d="M 6.691406 11.136719 L 13.019531 14.5 L 12.980469 21.367188 L 6.691406 18.121094 Z M 6.691406 11.136719 "/>
<path style=" stroke:none;fill-rule:nonzero;fill:rgb(3.137255%,69.019608%,97.647059%);fill-opacity:1;" d="M 13.019531 14.5 L 19.140625 11.136719 L 19.320312 18.121094 L 13.101562 21.496094 Z M 13.019531 14.5 "/>
<path style=" stroke:none;fill-rule:nonzero;fill:rgb(18.431373%,18.431373%,18.431373%);fill-opacity:1;" d="M 25.597656 7.019531 L 25.5 6.960938 L 19.460938 3.585938 L 13.136719 0.046875 L 13.054688 0 L 12.980469 0.0351562 C 12.863281 0.078125 12.75 0.125 12.636719 0.1875 L 7.121094 3.328125 L 0.296875 7.226562 C 0.0117188 7.355469 0.0234375 7.644531 0.0234375 7.820312 L 0.0234375 7.945312 L 0.0117188 17.828125 L 0 21.496094 C -0.0117188 21.714844 0.0820312 21.914062 0.25 21.980469 L 8.097656 26.332031 L 12.734375 28.90625 C 12.828125 28.964844 12.933594 29 13.03125 29 C 13.109375 29.003906 13.191406 28.980469 13.253906 28.929688 L 19.960938 25.160156 L 25.667969 21.957031 C 25.882812 21.867188 26.011719 21.65625 25.976562 21.460938 L 26 7.574219 C 26.035156 7.25 25.761719 7.097656 25.597656 7.019531 M 13.007812 7.898438 L 18.535156 11.03125 L 13.019531 14.128906 L 11.140625 13.097656 L 7.429688 11.042969 L 13.007812 7.898438 M 19.28125 10.601562 L 13.292969 7.203125 C 13.128906 7.085938 12.910156 7.082031 12.746094 7.191406 L 6.679688 10.625 L 1.164062 7.574219 L 5.015625 5.382812 L 13.019531 0.824219 L 20.375 4.941406 L 24.871094 7.457031 L 19.28125 10.601562 M 0.785156 8.210938 L 6.277344 11.253906 L 6.382812 17.933594 C 6.371094 18.140625 6.480469 18.328125 6.644531 18.410156 L 10.296875 20.449219 L 12.636719 21.761719 L 12.636719 28.015625 L 0.761719 21.425781 Z M 7.039062 11.667969 L 12.648438 14.765625 L 12.636719 20.914062 L 7.144531 17.839844 Z M 13.398438 21.773438 L 15.742188 20.449219 L 19.355469 18.433594 L 19.390625 18.410156 C 19.460938 18.375 19.542969 18.316406 19.605469 18.234375 L 19.640625 18.1875 L 19.640625 18.128906 L 19.628906 13.699219 L 19.628906 11.261719 L 25.238281 8.097656 L 25.238281 13.492188 L 25.226562 21.355469 L 17.703125 25.578125 L 13.386719 28.003906 L 13.398438 21.773438 M 13.398438 20.925781 L 13.398438 14.765625 L 18.925781 11.65625 L 18.925781 17.828125 L 13.398438 20.925781 "/>
<path style=" stroke:none;fill-rule:nonzero;fill:rgb(18.431373%,18.431373%,18.431373%);fill-opacity:1;" d="M 12.851562 1.542969 C 12.683594 1.566406 12.542969 1.671875 12.472656 1.808594 C 12.398438 1.972656 12.410156 2.144531 12.496094 2.261719 C 12.589844 2.402344 12.746094 2.480469 12.921875 2.480469 C 12.953125 2.480469 12.988281 2.476562 13.019531 2.472656 C 13.21875 2.449219 13.375 2.308594 13.410156 2.132812 C 13.460938 1.980469 13.417969 1.808594 13.304688 1.695312 C 13.191406 1.570312 13.019531 1.511719 12.851562 1.542969 M 13.171875 3.574219 C 12.992188 3.480469 12.792969 3.492188 12.648438 3.585938 C 12.519531 3.652344 12.433594 3.792969 12.410156 3.945312 C 12.398438 4.105469 12.472656 4.246094 12.566406 4.328125 C 12.660156 4.414062 12.78125 4.457031 12.910156 4.453125 C 12.984375 4.453125 13.058594 4.4375 13.125 4.40625 C 13.316406 4.339844 13.421875 4.164062 13.421875 3.992188 C 13.433594 3.828125 13.328125 3.664062 13.171875 3.574219 M 13.183594 5.566406 C 13.019531 5.464844 12.816406 5.464844 12.660156 5.542969 C 12.519531 5.613281 12.421875 5.753906 12.410156 5.914062 C 12.398438 6.078125 12.472656 6.253906 12.601562 6.332031 C 12.691406 6.398438 12.800781 6.429688 12.910156 6.425781 C 12.984375 6.425781 13.058594 6.410156 13.125 6.378906 C 13.289062 6.316406 13.402344 6.164062 13.414062 5.992188 C 13.429688 5.820312 13.339844 5.65625 13.183594 5.566406 M 5.113281 18.570312 C 4.933594 18.617188 4.804688 18.757812 4.765625 18.929688 C 4.730469 19.117188 4.792969 19.289062 4.921875 19.394531 C 5.003906 19.464844 5.109375 19.5 5.21875 19.5 C 5.253906 19.5 5.289062 19.496094 5.324219 19.488281 C 5.480469 19.453125 5.613281 19.347656 5.660156 19.222656 C 5.742188 19.058594 5.71875 18.863281 5.574219 18.710938 C 5.464844 18.578125 5.28125 18.523438 5.113281 18.570312 M 20.472656 19.511719 C 20.511719 19.507812 20.550781 19.5 20.589844 19.488281 C 20.746094 19.453125 20.875 19.347656 20.910156 19.234375 C 20.996094 19.058594 20.960938 18.851562 20.828125 18.699219 C 20.707031 18.566406 20.515625 18.515625 20.339844 18.570312 C 20.175781 18.617188 20.042969 18.757812 20.007812 18.929688 C 19.972656 19.117188 20.042969 19.289062 20.175781 19.394531 C 20.246094 19.476562 20.351562 19.511719 20.472656 19.511719 M 3.375 19.570312 C 3.199219 19.628906 3.078125 19.789062 3.066406 19.976562 C 3.042969 20.171875 3.136719 20.359375 3.292969 20.4375 C 3.363281 20.484375 3.445312 20.507812 3.53125 20.507812 C 3.601562 20.507812 3.667969 20.492188 3.734375 20.460938 C 3.886719 20.394531 3.996094 20.253906 4.007812 20.125 C 4.042969 19.953125 3.972656 19.765625 3.828125 19.652344 C 3.707031 19.539062 3.53125 19.507812 3.375 19.570312 M 22.160156 20.496094 C 22.214844 20.5 22.273438 20.492188 22.328125 20.472656 C 22.492188 20.414062 22.613281 20.277344 22.625 20.136719 C 22.671875 19.964844 22.625 19.789062 22.480469 19.660156 C 22.355469 19.542969 22.167969 19.507812 22.003906 19.570312 C 21.84375 19.636719 21.726562 19.777344 21.695312 19.949219 C 21.667969 20.117188 21.730469 20.289062 21.863281 20.40625 C 21.949219 20.46875 22.054688 20.5 22.160156 20.496094 M 2.070312 20.601562 C 1.925781 20.519531 1.746094 20.519531 1.617188 20.601562 C 1.460938 20.683594 1.367188 20.832031 1.367188 21.019531 C 1.367188 21.203125 1.460938 21.367188 1.617188 21.4375 C 1.679688 21.476562 1.753906 21.496094 1.832031 21.496094 C 1.921875 21.496094 2.015625 21.472656 2.09375 21.425781 C 2.246094 21.320312 2.332031 21.148438 2.316406 20.996094 C 2.316406 20.832031 2.222656 20.683594 2.070312 20.589844 M 23.574219 21.390625 C 23.652344 21.457031 23.753906 21.496094 23.859375 21.496094 C 23.921875 21.496094 23.980469 21.484375 24.039062 21.460938 C 24.203125 21.390625 24.324219 21.226562 24.335938 21.089844 C 24.371094 20.902344 24.289062 20.71875 24.121094 20.613281 C 23.96875 20.507812 23.777344 20.507812 23.632812 20.601562 C 23.492188 20.6875 23.402344 20.835938 23.394531 20.996094 C 23.382812 21.160156 23.457031 21.308594 23.574219 21.390625 "/>
</g>
</svg>
