<?xml version="1.0" encoding="UTF-8"?>
<svg xmlns="http://www.w3.org/2000/svg" xmlns:xlink="http://www.w3.org/1999/xlink" width="26pt" height="26pt" viewBox="0 0 26 26" version="1.1">
<defs>
<radialGradient id="radial0" gradientUnits="userSpaceOnUse" cx="135.8969" cy="99.7802" fx="135.8969" fy="99.7802" r="257.1211" gradientTransform="matrix(0.052,0,0,0.052,0,0)">
<stop offset="0" style="stop-color:rgb(12.941176%,100%,89.019608%);stop-opacity:1;"/>
<stop offset="1" style="stop-color:rgb(52.156863%,28.627451%,87.45098%);stop-opacity:1;"/>
</radialGradient>
<linearGradient id="linear0" gradientUnits="userSpaceOnUse" x1="266.3158" y1="441.6717" x2="252.324" y2="144.3468" gradientTransform="matrix(0.052,0,0,0.052,0,0)">
<stop offset="0" style="stop-color:rgb(12.941176%,100%,89.019608%);stop-opacity:1;"/>
<stop offset="1" style="stop-color:rgb(52.156863%,28.627451%,87.45098%);stop-opacity:1;"/>
</linearGradient>
<radialGradient id="radial1" gradientUnits="userSpaceOnUse" cx="251.2309" cy="311.5679" fx="251.2309" fy="311.5679" r="222.862" gradientTransform="matrix(0.052,0,0,0.052,0,0)">
<stop offset="0" style="stop-color:rgb(12.941176%,100%,89.019608%);stop-opacity:1;"/>
<stop offset="0.1916" style="stop-color:rgb(13.72549%,98.823529%,89.019608%);stop-opacity:0.807843;"/>
<stop offset="0.3419" style="stop-color:rgb(15.686275%,94.901961%,89.019608%);stop-opacity:0.658824;"/>
<stop offset="0.478" style="stop-color:rgb(19.215686%,88.235294%,88.627451%);stop-opacity:0.521569;"/>
<stop offset="0.6059" style="stop-color:rgb(24.313725%,79.215686%,88.627451%);stop-opacity:0.392157;"/>
<stop offset="0.728" style="stop-color:rgb(30.980392%,67.45098%,88.235294%);stop-opacity:0.270588;"/>
<stop offset="0.8458" style="stop-color:rgb(38.823529%,52.54902%,87.843137%);stop-opacity:0.152941;"/>
<stop offset="0.958" style="stop-color:rgb(48.235294%,35.686275%,87.45098%);stop-opacity:0.0431373;"/>
<stop offset="1" style="stop-color:rgb(52.156863%,28.627451%,87.45098%);stop-opacity:0;"/>
</radialGradient>
<linearGradient id="linear1" gradientUnits="userSpaceOnUse" x1="88.819" y1="132.9023" x2="393.7107" y2="312.1099" gradientTransform="matrix(0.052,0,0,0.052,0,0)">
<stop offset="0" style="stop-color:rgb(12.941176%,100%,89.019608%);stop-opacity:1;"/>
<stop offset="1" style="stop-color:rgb(97.254902%,100%,98.431373%);stop-opacity:1;"/>
</linearGradient>
<linearGradient id="linear2" gradientUnits="userSpaceOnUse" x1="143.2636" y1="164.3141" x2="400.1972" y2="164.3141" gradientTransform="matrix(0.052,0,0,0.052,0,0)">
<stop offset="0" style="stop-color:rgb(41.176471%,17.254902%,76.078431%);stop-opacity:1;"/>
<stop offset="0.5189" style="stop-color:rgb(24.313725%,35.686275%,87.058824%);stop-opacity:1;"/>
<stop offset="1" style="stop-color:rgb(13.333333%,61.960784%,90.588235%);stop-opacity:1;"/>
</linearGradient>
<linearGradient id="linear3" gradientUnits="userSpaceOnUse" x1="143.2636" y1="270.2943" x2="406.1037" y2="270.2943" gradientTransform="matrix(0.052,0,0,0.052,0,0)">
<stop offset="0" style="stop-color:rgb(41.176471%,17.254902%,76.078431%);stop-opacity:1;"/>
<stop offset="0.5189" style="stop-color:rgb(24.313725%,35.686275%,87.058824%);stop-opacity:1;"/>
<stop offset="1" style="stop-color:rgb(13.333333%,61.960784%,90.588235%);stop-opacity:1;"/>
</linearGradient>
<linearGradient id="linear4" gradientUnits="userSpaceOnUse" x1="114.4693" y1="373.2892" x2="383.9543" y2="373.2892" gradientTransform="matrix(0.052,0,0,0.052,0,0)">
<stop offset="0" style="stop-color:rgb(40.392157%,48.627451%,95.686275%);stop-opacity:1;"/>
<stop offset="0.2764" style="stop-color:rgb(21.568627%,29.803922%,84.313725%);stop-opacity:1;"/>
<stop offset="0.3631" style="stop-color:rgb(21.568627%,32.156863%,84.705882%);stop-opacity:1;"/>
<stop offset="0.4747" style="stop-color:rgb(20.784314%,38.431373%,85.882353%);stop-opacity:1;"/>
<stop offset="0.5999" style="stop-color:rgb(20%,48.627451%,88.235294%);stop-opacity:1;"/>
<stop offset="0.7351" style="stop-color:rgb(18.823529%,63.137255%,91.372549%);stop-opacity:1;"/>
<stop offset="0.8766" style="stop-color:rgb(17.647059%,81.568627%,94.901961%);stop-opacity:1;"/>
<stop offset="1" style="stop-color:rgb(16.078431%,100%,98.823529%);stop-opacity:1;"/>
</linearGradient>
<linearGradient id="linear5" gradientUnits="userSpaceOnUse" x1="81.3035" y1="144.6819" x2="35.6017" y2="261.0137" gradientTransform="matrix(0.052,0,0,0.052,0,0)">
<stop offset="0" style="stop-color:rgb(97.254902%,100%,98.431373%);stop-opacity:1;"/>
<stop offset="1" style="stop-color:rgb(97.254902%,100%,98.431373%);stop-opacity:0;"/>
</linearGradient>
<linearGradient id="linear6" gradientUnits="userSpaceOnUse" x1="102.051" y1="150.9946" x2="94.4292" y2="255.5219" gradientTransform="matrix(0.052,0,0,0.052,0,0)">
<stop offset="0" style="stop-color:rgb(97.254902%,100%,98.431373%);stop-opacity:1;"/>
<stop offset="1" style="stop-color:rgb(97.254902%,100%,98.431373%);stop-opacity:0;"/>
</linearGradient>
</defs>
<g id="surface1">
<path style=" stroke:none;fill-rule:nonzero;fill:url(#radial0);" d="M 25.363281 12.828125 C 25.363281 19.667969 19.820312 25.214844 12.976562 25.214844 C 6.136719 25.214844 0.59375 19.667969 0.59375 12.828125 C 0.59375 5.988281 6.136719 0.441406 12.976562 0.441406 C 19.820312 0.441406 25.363281 5.988281 25.363281 12.828125 Z M 25.363281 12.828125 "/>
<path style=" stroke:none;fill-rule:nonzero;fill:url(#linear0);" d="M 22.523438 14.449219 C 22.523438 9.753906 18.460938 5.945312 13.449219 5.945312 C 8.433594 5.945312 4.371094 9.753906 4.371094 14.449219 C 4.371094 19.144531 8.433594 22.953125 13.449219 22.953125 C 18.460938 22.953125 22.523438 19.144531 22.523438 14.449219 Z M 22.523438 14.449219 "/>
<path style=" stroke:none;fill-rule:nonzero;fill:url(#radial1);" d="M 22.863281 16.203125 C 22.863281 11.132812 18.476562 7.019531 13.0625 7.019531 C 7.652344 7.019531 3.265625 11.132812 3.265625 16.203125 C 3.265625 21.273438 7.652344 25.382812 13.0625 25.382812 C 18.476562 25.382812 22.863281 21.273438 22.863281 16.203125 Z M 22.863281 16.203125 "/>
<path style=" stroke:none;fill-rule:nonzero;fill:url(#linear1);" d="M 10.316406 21.320312 C 10.273438 21.3125 9.214844 21.199219 8.664062 20.882812 C 8.570312 20.828125 6.359375 19.554688 5.476562 17.964844 C 4.734375 16.625 3.472656 14.203125 3.390625 13.046875 C 3.320312 11.992188 3.375 9.742188 3.746094 9 C 3.773438 8.945312 3.804688 8.875 3.847656 8.785156 C 4.089844 8.25 4.59375 7.132812 5.59375 6.144531 C 6.835938 4.921875 8.429688 4.296875 10.328125 4.296875 C 10.339844 4.296875 11.710938 4.277344 13.253906 4.277344 C 14.15625 4.277344 14.945312 4.285156 15.589844 4.296875 C 17.640625 4.332031 19.28125 4.503906 20.058594 4.644531 L 20.195312 4.667969 C 20.742188 4.761719 20.945312 4.796875 20.992188 5.195312 C 21.027344 5.535156 21.332031 8.007812 21.335938 8.035156 L 21.34375 8.101562 L 19.453125 9.25 L 21.484375 9.25 L 21.683594 13.050781 L 19.476562 14.660156 L 21.472656 14.660156 L 20.789062 18.710938 L 17 20.855469 L 10.328125 21.320312 Z M 10.316406 21.320312 "/>
<path style=" stroke:none;fill-rule:nonzero;fill:rgb(41.176471%,17.254902%,76.078431%);fill-opacity:1;" d="M 13.253906 4.382812 C 14.03125 4.382812 14.859375 4.386719 15.589844 4.398438 C 17.777344 4.4375 19.390625 4.628906 20.042969 4.746094 C 20.695312 4.859375 20.847656 4.859375 20.886719 5.207031 C 20.925781 5.550781 21.234375 8.046875 21.234375 8.046875 L 19.082031 9.351562 L 21.386719 9.351562 L 21.578125 13 L 19.160156 14.765625 L 21.347656 14.765625 L 20.695312 18.644531 L 16.972656 20.753906 L 10.328125 21.214844 C 10.328125 21.214844 9.253906 21.101562 8.714844 20.792969 C 8.179688 20.484375 6.335938 19.296875 5.570312 17.914062 C 4.800781 16.53125 3.570312 14.152344 3.496094 13.039062 C 3.417969 11.925781 3.496094 9.734375 3.839844 9.046875 C 4.1875 8.355469 5.570312 4.40625 10.328125 4.398438 C 10.328125 4.398438 11.695312 4.382812 13.253906 4.382812 M 13.253906 4.175781 C 11.710938 4.175781 10.339844 4.191406 10.328125 4.191406 C 8.402344 4.195312 6.785156 4.828125 5.523438 6.070312 C 4.507812 7.070312 3.996094 8.199219 3.75 8.742188 C 3.714844 8.828125 3.679688 8.902344 3.65625 8.953125 C 3.273438 9.710938 3.214844 11.992188 3.289062 13.050781 C 3.367188 14.230469 4.636719 16.667969 5.386719 18.015625 C 6.285156 19.628906 8.519531 20.917969 8.613281 20.972656 C 9.183594 21.296875 10.261719 21.417969 10.308594 21.421875 L 10.324219 21.425781 L 10.34375 21.421875 L 16.984375 20.960938 L 17.03125 20.960938 L 17.074219 20.9375 L 20.796875 18.824219 L 20.882812 18.773438 L 20.898438 18.675781 L 21.554688 14.800781 L 21.59375 14.558594 L 19.796875 14.558594 L 21.699219 13.167969 L 21.792969 13.101562 L 21.785156 12.988281 L 21.59375 9.339844 L 21.582031 9.144531 L 19.824219 9.144531 L 21.339844 8.226562 L 21.457031 8.15625 L 21.4375 8.019531 C 21.4375 7.996094 21.132812 5.523438 21.09375 5.183594 C 21.039062 4.707031 20.765625 4.660156 20.210938 4.5625 C 20.171875 4.554688 20.125 4.546875 20.078125 4.539062 C 19.296875 4.402344 17.648438 4.226562 15.59375 4.191406 C 14.945312 4.179688 14.160156 4.175781 13.253906 4.175781 Z M 13.253906 4.175781 "/>
<path style=" stroke:none;fill-rule:nonzero;fill:rgb(100%,100%,100%);fill-opacity:1;" d="M 3.609375 13.046875 C 3.609375 13.046875 3.714844 14.398438 4.269531 15.648438 C 4.824219 16.894531 6.175781 18.867188 6.660156 19.390625 C 7.378906 20.167969 8.773438 21.078125 9.640625 21.183594 C 10.507812 21.285156 12.878906 21.121094 13.414062 21.113281 C 13.761719 21.109375 16.589844 20.824219 16.972656 20.753906 C 17.351562 20.683594 20.605469 18.824219 20.695312 18.644531 C 20.769531 18.496094 20.8125 17.957031 20.8125 17.957031 L 18.160156 18.566406 L 10.183594 18.941406 C 9.921875 18.953125 9.53125 18.910156 9.222656 18.882812 C 8.839844 18.847656 8.46875 18.777344 8.019531 18.636719 C 7.539062 18.484375 6.933594 18.171875 6.445312 17.796875 C 5.75 17.273438 4.921875 16.449219 4.441406 15.265625 C 4.136719 14.511719 3.609375 13.046875 3.609375 13.046875 Z M 3.609375 13.046875 "/>
<path style=" stroke:none;fill-rule:nonzero;fill:url(#linear2);" d="M 7.449219 9.390625 L 8.410156 8.085938 C 8.410156 8.085938 8.371094 7.738281 10.175781 7.703125 C 11.980469 7.664062 20.808594 7.96875 20.808594 7.96875 L 19.003906 9.390625 Z M 7.449219 9.390625 "/>
<path style=" stroke:none;fill-rule:nonzero;fill:url(#linear3);" d="M 21.117188 13.039062 L 18.851562 14.765625 L 8.832031 15.074219 C 8.832031 15.074219 7.949219 14.34375 7.796875 14.054688 C 7.640625 13.765625 7.449219 13.382812 7.449219 13.382812 C 7.449219 13.382812 17.890625 13.308594 18.890625 13.269531 C 19.890625 13.230469 21.117188 13.039062 21.117188 13.039062 Z M 21.117188 13.039062 "/>
<path style=" stroke:none;fill-rule:nonzero;fill:url(#linear4);" d="M 19.964844 18.757812 C 19.964844 18.757812 17.046875 20.484375 16.816406 20.5625 C 16.585938 20.640625 11.027344 21.023438 10.484375 21.023438 C 9.777344 21.023438 8.910156 20.792969 8.332031 20.371094 C 7.757812 19.949219 6.875 19.105469 6.683594 18.757812 C 6.488281 18.414062 5.953125 17.796875 5.953125 17.796875 C 5.953125 17.796875 7.257812 18.644531 8.179688 18.910156 C 9.101562 19.179688 11.042969 19.121094 11.925781 19.082031 C 12.808594 19.042969 19.964844 18.757812 19.964844 18.757812 Z M 19.964844 18.757812 "/>
<path style=" stroke:none;fill-rule:nonzero;fill:rgb(100%,100%,100%);fill-opacity:1;" d="M 18.882812 3.523438 C 18.882812 3.523438 16.832031 2.90625 15.515625 2.9375 C 14.199219 2.964844 12.503906 3.082031 11.625 3.375 C 10.75 3.667969 10.398438 3.84375 10.398438 3.84375 C 10.398438 3.84375 10.953125 4.515625 10.894531 5.160156 C 10.835938 5.804688 10.191406 6.566406 9.433594 6.769531 C 8.671875 6.972656 7.910156 7.089844 7.324219 6.972656 C 6.742188 6.855469 5.394531 6.097656 5.394531 6.097656 L 4.371094 5.363281 C 4.371094 5.363281 5.394531 3.960938 7.089844 3.140625 C 8.789062 2.324219 10.515625 1.621094 12.679688 1.621094 C 14.84375 1.621094 16.394531 2.117188 17.300781 2.554688 C 18.210938 2.996094 18.882812 3.523438 18.882812 3.523438 Z M 18.882812 3.523438 "/>
<path style=" stroke:none;fill-rule:nonzero;fill:url(#linear5);" d="M 4.371094 5.367188 C 4.371094 5.367188 3.589844 6.351562 3.394531 6.785156 C 3.195312 7.21875 2.542969 8.484375 2.425781 9.730469 C 2.308594 10.972656 2.289062 11.9375 2.425781 12.589844 C 2.566406 13.246094 2.800781 14.152344 2.800781 14.152344 C 2.800781 14.152344 3.613281 10.816406 3.730469 10.003906 C 3.847656 9.195312 4.421875 7.476562 4.914062 6.882812 C 5.410156 6.292969 5.863281 5.582031 5.863281 5.582031 Z M 4.371094 5.367188 "/>
<path style=" stroke:none;fill-rule:nonzero;fill:url(#linear6);" d="M 5.863281 5.582031 C 5.863281 5.582031 5 6.707031 4.8125 7.019531 C 4.628906 7.332031 3.855469 8.570312 3.808594 9.195312 C 3.761719 9.820312 3.632812 11.152344 3.632812 11.152344 C 3.632812 11.152344 5.015625 8.660156 5.390625 8.226562 C 5.765625 7.792969 6.851562 6.351562 6.851562 6.351562 Z M 5.863281 5.582031 "/>
</g>
</svg>
