<?xml version="1.0" encoding="UTF-8"?>
<svg xmlns="http://www.w3.org/2000/svg" xmlns:xlink="http://www.w3.org/1999/xlink" width="26pt" height="26pt" viewBox="0 0 26 26" version="1.1">
<g id="surface1">
<path style=" stroke:none;fill-rule:nonzero;fill:rgb(12.54902%,16.078431%,26.666667%);fill-opacity:1;" d="M 0.207031 0 L 0.207031 26 L 25.792969 26 L 25.792969 0 Z M 9.152344 3.015625 L 11.542969 3.015625 L 11.542969 5.511719 L 9.152344 5.511719 Z M 3.121094 3.015625 L 5.617188 3.015625 L 5.617188 5.511719 L 3.121094 5.511719 Z M 5.511719 9.046875 L 5.511719 11.542969 L 3.015625 11.542969 L 3.015625 9.046875 Z M 4.886719 22.777344 L 3.847656 22.777344 L 3.847656 21.839844 L 4.785156 21.839844 L 4.785156 22.777344 Z M 5.617188 17.785156 L 3.121094 17.785156 L 3.121094 15.390625 L 5.617188 15.390625 Z M 10.921875 22.777344 L 9.984375 22.777344 L 9.984375 21.839844 L 10.921875 21.839844 Z M 10.921875 16.953125 L 9.984375 16.953125 L 9.984375 16.015625 L 10.921875 16.015625 Z M 11.648438 11.648438 L 9.152344 11.648438 L 9.152344 9.152344 L 11.648438 9.152344 Z M 16.953125 22.777344 L 16.015625 22.777344 L 16.015625 21.839844 L 16.953125 21.839844 Z M 16.953125 16.953125 L 16.015625 16.953125 L 16.015625 16.015625 L 16.953125 16.015625 Z M 16.953125 10.816406 L 16.015625 10.816406 L 16.015625 9.878906 L 16.953125 9.878906 Z M 17.785156 5.511719 L 15.289062 5.511719 L 15.289062 3.015625 L 17.785156 3.015625 Z M 23.089844 22.777344 L 22.152344 22.777344 L 22.152344 21.839844 L 23.089844 21.839844 Z M 23.089844 16.953125 L 22.152344 16.953125 L 22.152344 16.015625 L 23.089844 16.015625 Z M 23.089844 10.816406 L 22.152344 10.816406 L 22.152344 9.878906 L 23.089844 9.878906 Z M 23.089844 4.785156 L 22.152344 4.785156 L 22.152344 3.847656 L 23.089844 3.847656 Z M 23.089844 4.785156 "/>
</g>
</svg>
