<?xml version="1.0" encoding="UTF-8"?>
<svg xmlns="http://www.w3.org/2000/svg" xmlns:xlink="http://www.w3.org/1999/xlink" width="26pt" height="26pt" viewBox="0 0 26 26" version="1.1">
<g id="surface1">
<path style=" stroke:none;fill-rule:evenodd;fill:rgb(0%,11.372549%,34.117647%);fill-opacity:1;" d="M 26 13 C 26 20.179688 20.179688 26 13 26 C 5.820312 26 0 20.179688 0 13 C 0 5.820312 5.820312 0 13 0 C 20.179688 0 26 5.820312 26 13 Z M 26 13 "/>
<path style=" stroke:none;fill-rule:nonzero;fill:rgb(100%,100%,100%);fill-opacity:1;" d="M 16.65625 4.296875 L 17.632812 5.273438 L 15.78125 7.175781 C 16.171875 7.769531 16.382812 8.46875 16.382812 9.191406 C 16.390625 10.140625 16.023438 11.054688 15.359375 11.734375 C 14.878906 12.246094 14.246094 12.59375 13.558594 12.730469 L 13.558594 14.386719 C 14.246094 14.527344 14.871094 14.875 15.355469 15.378906 C 16.019531 16.058594 16.390625 16.976562 16.382812 17.925781 C 16.390625 18.878906 16.019531 19.792969 15.355469 20.472656 C 14.703125 21.148438 13.804688 21.53125 12.863281 21.53125 C 11.921875 21.535156 11.019531 21.152344 10.367188 20.472656 C 9.707031 19.789062 9.339844 18.875 9.34375 17.925781 C 9.34375 16.96875 9.707031 16.058594 10.367188 15.382812 C 10.847656 14.871094 11.476562 14.523438 12.167969 14.386719 L 12.167969 12.730469 C 11.480469 12.585938 10.855469 12.242188 10.367188 11.738281 C 9.707031 11.054688 9.339844 10.140625 9.34375 9.1875 C 9.34375 8.230469 9.707031 7.320312 10.367188 6.640625 C 11.023438 5.964844 11.921875 5.582031 12.863281 5.582031 C 13.5625 5.582031 14.234375 5.796875 14.808594 6.191406 Z M 12.863281 15.71875 C 12.292969 15.714844 11.746094 15.945312 11.355469 16.359375 C 10.949219 16.78125 10.722656 17.339844 10.726562 17.925781 C 10.726562 18.515625 10.949219 19.066406 11.355469 19.492188 C 11.75 19.902344 12.292969 20.132812 12.863281 20.132812 C 13.433594 20.136719 13.980469 19.90625 14.371094 19.492188 C 14.777344 19.074219 15.003906 18.511719 15 17.925781 C 15 17.335938 14.777344 16.785156 14.367188 16.355469 C 13.976562 15.945312 13.433594 15.714844 12.863281 15.71875 Z M 14.367188 10.769531 C 14.777344 10.347656 15.003906 9.785156 15 9.199219 C 15.007812 8.617188 14.78125 8.050781 14.371094 7.632812 C 13.976562 7.222656 13.433594 6.992188 12.863281 6.992188 C 12.292969 6.988281 11.746094 7.21875 11.355469 7.632812 C 10.949219 8.054688 10.722656 8.617188 10.726562 9.199219 C 10.726562 9.789062 10.949219 10.339844 11.355469 10.765625 C 11.75 11.175781 12.292969 11.40625 12.863281 11.410156 C 13.441406 11.410156 13.972656 11.183594 14.367188 10.769531 Z M 14.367188 10.769531 "/>
</g>
</svg>
