<?xml version="1.0" encoding="UTF-8"?>
<svg xmlns="http://www.w3.org/2000/svg" xmlns:xlink="http://www.w3.org/1999/xlink" width="26pt" height="26pt" viewBox="0 0 26 26" version="1.1">
<g id="surface1">
<path style=" stroke:none;fill-rule:nonzero;fill:rgb(53.333333%,20.392157%,100%);fill-opacity:1;" d="M 26 13 C 26 20.179688 20.179688 26 13 26 C 5.820312 26 0 20.179688 0 13 C 0 5.820312 5.820312 0 13 0 C 20.179688 0 26 5.820312 26 13 Z M 26 13 "/>
<path style=" stroke:none;fill-rule:nonzero;fill:rgb(100%,100%,100%);fill-opacity:1;" d="M 5.6875 17.25 C 5.84375 17.25 6.007812 17.257812 6.160156 17.25 C 6.457031 17.226562 6.75 17.167969 7.039062 17.09375 C 7.609375 16.941406 8.140625 16.671875 8.605469 16.3125 C 8.738281 16.207031 8.871094 16.097656 9 15.980469 C 9.265625 15.714844 9.492188 15.410156 9.679688 15.085938 C 9.839844 14.796875 9.957031 14.484375 10.046875 14.167969 C 10.054688 14.144531 10.054688 14.117188 10.0625 14.09375 L 8.902344 14.09375 C 8.660156 14.09375 8.421875 14.066406 8.1875 14.011719 C 8.164062 14.003906 8.140625 14 8.121094 14 C 8.109375 13.992188 8.097656 13.984375 8.089844 13.976562 C 8.15625 13.828125 8.214844 13.6875 8.273438 13.539062 L 8.726562 12.496094 C 8.738281 12.449219 8.761719 12.402344 8.792969 12.359375 C 8.824219 12.328125 8.867188 12.3125 8.910156 12.3125 C 9.273438 12.304688 9.625 12.3125 9.988281 12.3125 L 10.085938 12.3125 C 10.070312 12.253906 10.070312 12.210938 10.054688 12.160156 C 9.925781 11.660156 9.691406 11.191406 9.375 10.785156 C 9.21875 10.585938 9.046875 10.398438 8.863281 10.222656 C 8.636719 10.007812 8.378906 9.820312 8.105469 9.667969 C 7.816406 9.507812 7.515625 9.371094 7.203125 9.269531 C 6.941406 9.1875 6.675781 9.128906 6.40625 9.09375 C 6.191406 9.070312 5.984375 9.0625 5.769531 9.046875 C 5.71875 9.046875 5.664062 9.039062 5.613281 9.03125 C 5.59375 9.027344 5.574219 9.007812 5.570312 8.988281 C 5.496094 8.816406 5.421875 8.65625 5.347656 8.484375 C 5.257812 8.285156 5.175781 8.085938 5.089844 7.894531 C 5.023438 7.730469 4.949219 7.578125 4.875 7.40625 L 5.03125 7.363281 C 5.355469 7.316406 5.6875 7.304688 6.019531 7.316406 C 6.550781 7.335938 7.074219 7.414062 7.585938 7.546875 C 7.914062 7.636719 8.238281 7.746094 8.546875 7.878906 C 8.984375 8.0625 9.398438 8.292969 9.78125 8.566406 C 9.953125 8.691406 10.121094 8.824219 10.285156 8.957031 C 10.359375 9.019531 10.433594 9.085938 10.503906 9.148438 C 10.875 9.503906 11.199219 9.910156 11.472656 10.347656 C 11.746094 10.785156 11.945312 11.257812 12.082031 11.753906 C 12.125 11.914062 12.152344 12.085938 12.191406 12.246094 C 12.199219 12.273438 12.222656 12.289062 12.25 12.292969 L 13.75 12.292969 C 13.78125 12.171875 13.800781 12.054688 13.824219 11.9375 C 13.914062 11.589844 14.03125 11.257812 14.179688 10.9375 C 14.296875 10.671875 14.445312 10.414062 14.613281 10.179688 C 14.769531 9.964844 14.933594 9.75 15.109375 9.550781 C 15.242188 9.394531 15.382812 9.25 15.53125 9.113281 C 15.839844 8.832031 16.179688 8.578125 16.535156 8.359375 C 16.90625 8.128906 17.289062 7.945312 17.695312 7.796875 C 17.976562 7.703125 18.257812 7.613281 18.539062 7.539062 C 18.753906 7.488281 18.960938 7.449219 19.179688 7.421875 C 19.359375 7.390625 19.542969 7.378906 19.726562 7.363281 C 19.847656 7.355469 19.957031 7.347656 20.074219 7.347656 C 20.253906 7.347656 20.421875 7.339844 20.59375 7.347656 C 20.761719 7.355469 20.933594 7.390625 21.101562 7.421875 C 21.109375 7.421875 21.109375 7.429688 21.125 7.441406 L 21 7.738281 C 20.867188 8.050781 20.734375 8.359375 20.59375 8.675781 C 20.539062 8.789062 20.488281 8.902344 20.445312 9.019531 C 20.414062 9.089844 20.339844 9.0625 20.289062 9.078125 C 20.246094 9.085938 20.210938 9.085938 20.164062 9.078125 C 19.410156 9.082031 18.664062 9.257812 17.984375 9.585938 C 17.667969 9.742188 17.367188 9.9375 17.097656 10.164062 C 16.988281 10.257812 16.863281 10.355469 16.757812 10.464844 C 16.492188 10.730469 16.261719 11.035156 16.078125 11.367188 C 15.929688 11.640625 15.8125 11.933594 15.722656 12.230469 C 15.714844 12.253906 15.714844 12.285156 15.707031 12.304688 L 15.789062 12.304688 C 16.171875 12.304688 16.566406 12.296875 16.949219 12.304688 C 17.179688 12.304688 17.40625 12.34375 17.628906 12.417969 C 17.636719 12.425781 17.644531 12.425781 17.652344 12.433594 L 17.4375 12.917969 C 17.289062 13.265625 17.136719 13.613281 16.988281 13.96875 C 16.941406 14.074219 16.914062 14.09375 16.792969 14.09375 L 15.714844 14.09375 C 15.746094 14.199219 15.765625 14.285156 15.796875 14.375 C 15.902344 14.6875 16.046875 14.980469 16.234375 15.253906 C 16.34375 15.417969 16.460938 15.566406 16.589844 15.714844 C 16.660156 15.800781 16.742188 15.890625 16.824219 15.964844 C 17.097656 16.230469 17.410156 16.460938 17.738281 16.644531 C 18.019531 16.804688 18.324219 16.941406 18.632812 17.042969 C 18.929688 17.144531 19.242188 17.210938 19.558594 17.242188 L 20.140625 17.285156 C 20.214844 17.292969 20.289062 17.292969 20.363281 17.300781 C 20.378906 17.308594 20.394531 17.316406 20.402344 17.332031 C 20.527344 17.625 20.652344 17.921875 20.785156 18.21875 L 21.101562 18.941406 C 21 18.964844 20.902344 18.988281 20.800781 18.992188 C 20.546875 19.007812 20.289062 19.023438 20.039062 19.023438 C 19.808594 19.023438 19.582031 19 19.359375 18.972656 C 19.050781 18.929688 18.746094 18.875 18.441406 18.808594 C 18.078125 18.71875 17.722656 18.601562 17.378906 18.453125 C 16.96875 18.277344 16.578125 18.0625 16.210938 17.804688 C 16.019531 17.664062 15.832031 17.519531 15.648438 17.367188 C 15.527344 17.269531 15.414062 17.164062 15.308594 17.050781 C 14.84375 16.574219 14.457031 16.027344 14.171875 15.425781 C 14.003906 15.070312 13.878906 14.695312 13.800781 14.308594 C 13.789062 14.273438 13.78125 14.226562 13.773438 14.191406 C 13.773438 14.117188 13.734375 14.101562 13.667969 14.101562 L 12.175781 14.101562 C 12.101562 14.503906 11.984375 14.894531 11.820312 15.269531 C 11.691406 15.585938 11.523438 15.890625 11.328125 16.171875 C 11.171875 16.386719 11.007812 16.597656 10.832031 16.800781 C 10.703125 16.953125 10.566406 17.097656 10.417969 17.226562 C 10.1875 17.425781 9.945312 17.613281 9.699219 17.796875 C 9.40625 18.003906 9.09375 18.183594 8.769531 18.335938 C 8.160156 18.625 7.515625 18.820312 6.847656 18.914062 C 6.617188 18.949219 6.390625 18.972656 6.160156 18.992188 C 6.03125 19 5.898438 19 5.769531 18.992188 C 5.578125 18.992188 5.386719 18.984375 5.199219 18.980469 C 5.132812 18.972656 5.066406 18.964844 5 18.949219 C 4.964844 18.941406 4.949219 18.925781 4.972656 18.882812 C 5.117188 18.542969 5.273438 18.203125 5.421875 17.863281 C 5.511719 17.65625 5.59375 17.464844 5.6875 17.25 Z M 5.6875 17.25 "/>
</g>
</svg>
