<?xml version="1.0" encoding="UTF-8"?>
<svg xmlns="http://www.w3.org/2000/svg" xmlns:xlink="http://www.w3.org/1999/xlink" width="15pt" height="23pt" viewBox="0 0 15 23" version="1.1">
<g id="surface1">
<path style=" stroke:none;fill-rule:nonzero;fill:rgb(15.686275%,18.039216%,35.686275%);fill-opacity:1;" d="M 9.851562 7.078125 C 9.851562 3.78125 8.25 0.9375 7.023438 0.0078125 C 7.023438 0.0078125 6.9375 -0.0429688 6.9375 0.09375 C 6.835938 6.46875 3.578125 8.210938 1.773438 10.527344 C -2.371094 15.90625 1.484375 21.789062 5.402344 22.875 C 7.601562 23.480469 4.890625 21.789062 4.550781 18.238281 C 4.140625 13.925781 9.851562 10.644531 9.851562 7.078125 "/>
<path style=" stroke:none;fill-rule:nonzero;fill:rgb(1.960784%,60.784314%,86.27451%);fill-opacity:1;" d="M 12 9.257812 C 11.984375 9.242188 11.949219 9.242188 11.914062 9.257812 C 11.914062 9.257812 11.914062 9.257812 11.898438 9.277344 C 11.828125 10.070312 10.941406 11.796875 9.835938 13.367188 C 6.066406 18.710938 8.214844 21.285156 9.425781 22.671875 C 10.125 23.480469 9.425781 22.671875 11.183594 21.839844 C 11.316406 21.773438 14.589844 20.050781 14.949219 16.140625 C 15.308594 12.335938 12.871094 9.953125 12 9.257812 "/>
</g>
</svg>
