<?xml version="1.0" encoding="UTF-8"?>
<svg xmlns="http://www.w3.org/2000/svg" xmlns:xlink="http://www.w3.org/1999/xlink" width="26pt" height="40pt" viewBox="0 0 26 40" version="1.1">
<g id="surface1">
<path style=" stroke:none;fill-rule:nonzero;fill:rgb(15.686275%,18.039216%,35.686275%);fill-opacity:1;" d="M 17.078125 12.308594 C 17.078125 6.574219 14.300781 1.632812 12.171875 0.015625 C 12.171875 0.015625 12.023438 -0.0742188 12.023438 0.160156 C 11.847656 11.25 6.203125 14.28125 3.074219 18.308594 C -4.105469 27.660156 2.570312 37.898438 9.367188 39.78125 C 13.175781 40.839844 8.480469 37.898438 7.886719 31.71875 C 7.179688 24.21875 17.078125 18.515625 17.078125 12.308594 "/>
<path style=" stroke:none;fill-rule:nonzero;fill:rgb(1.960784%,60.784314%,86.27451%);fill-opacity:1;" d="M 20.800781 16.101562 C 20.769531 16.074219 20.710938 16.074219 20.652344 16.101562 C 20.652344 16.101562 20.652344 16.101562 20.621094 16.132812 C 20.503906 17.515625 18.96875 20.515625 17.046875 23.25 C 10.519531 32.542969 14.242188 37.015625 16.339844 39.425781 C 17.550781 40.839844 16.339844 39.425781 19.382812 37.984375 C 19.617188 37.867188 25.289062 34.867188 25.910156 28.074219 C 26.53125 21.457031 22.308594 17.308594 20.800781 16.101562 "/>
</g>
</svg>
