<?xml version="1.0" encoding="UTF-8"?>
<svg xmlns="http://www.w3.org/2000/svg" xmlns:xlink="http://www.w3.org/1999/xlink" width="26pt" height="30pt" viewBox="0 0 26 30" version="1.1">
<g id="surface1">
<path style=" stroke:none;fill-rule:nonzero;fill:rgb(39.215686%,51.764706%,58.431373%);fill-opacity:1;" d="M 13 0 L 0 7.5 L 13 30 L 26 7.5 Z M 13 0 "/>
<path style=" stroke:none;fill-rule:nonzero;fill:rgb(86.27451%,95.294118%,100%);fill-opacity:1;" d="M 13 0 L 0 7.5 L 8.667969 7.5 Z M 13 0 "/>
<path style=" stroke:none;fill-rule:nonzero;fill:rgb(90.196078%,97.254902%,100%);fill-opacity:1;" d="M 0 7.5 L 7.269531 9.914062 L 8.667969 7.5 L 0 7.5 "/>
<path style=" stroke:none;fill-rule:nonzero;fill:rgb(60.784314%,77.254902%,86.27451%);fill-opacity:1;" d="M 7.269531 9.914062 L 8.667969 7.5 L 26 7.5 L 7.269531 9.914062 "/>
<path style=" stroke:none;fill-rule:nonzero;fill:rgb(48.235294%,62.352941%,69.411765%);fill-opacity:1;" d="M 8.667969 7.5 L 13 0 L 26 7.5 Z M 8.667969 7.5 "/>
<path style=" stroke:none;fill-rule:nonzero;fill:rgb(28.627451%,37.647059%,42.745098%);fill-opacity:1;" d="M 0 7.5 L 7.269531 9.914062 L 13 30 Z M 0 7.5 "/>
<path style=" stroke:none;fill-rule:nonzero;fill:rgb(100%,100%,100%);fill-opacity:1;" d="M 7.148438 9.875 L 13 0 L 7.425781 9.894531 L 7.269531 9.914062 L 7.148438 9.875 "/>
</g>
</svg>
