<?xml version="1.0" encoding="UTF-8"?>
<svg xmlns="http://www.w3.org/2000/svg" xmlns:xlink="http://www.w3.org/1999/xlink" width="26pt" height="37pt" viewBox="0 0 26 37" version="1.1">
<g id="surface1">
<path style=" stroke:none;fill-rule:nonzero;fill:rgb(19.215686%,79.607843%,61.960784%);fill-opacity:1;" d="M 11.066406 18.496094 L 24.882812 26.398438 C 25.109375 26.535156 25.394531 26.539062 25.621094 26.40625 C 25.851562 26.277344 25.992188 26.035156 25.992188 25.769531 L 25.992188 11.214844 C 25.992188 10.949219 25.851562 10.703125 25.621094 10.574219 C 25.390625 10.445312 25.109375 10.449219 24.882812 10.589844 Z M 11.066406 18.496094 "/>
<path style=" stroke:none;fill-rule:nonzero;fill:rgb(19.215686%,79.607843%,61.960784%);fill-opacity:1;" d="M 24.589844 7.089844 L 15.144531 0.15625 C 14.945312 0.00390625 14.683594 -0.0429688 14.445312 0.0390625 C 14.210938 0.117188 14.027344 0.3125 13.960938 0.550781 L 10.511719 16.003906 L 24.507812 8.277344 C 24.726562 8.167969 24.867188 7.949219 24.886719 7.707031 C 24.902344 7.464844 24.789062 7.230469 24.589844 7.089844 "/>
<path style=" stroke:none;fill-rule:nonzero;fill:rgb(19.215686%,79.607843%,61.960784%);fill-opacity:1;" d="M 15.132812 36.835938 L 24.589844 29.898438 C 24.792969 29.757812 24.90625 29.519531 24.890625 29.273438 C 24.875 29.027344 24.734375 28.808594 24.515625 28.695312 L 10.511719 20.96875 L 13.960938 36.421875 C 14.019531 36.664062 14.195312 36.863281 14.433594 36.949219 C 14.667969 37.035156 14.933594 36.996094 15.132812 36.84375 "/>
<path style=" stroke:none;fill-rule:nonzero;fill:rgb(19.215686%,79.607843%,61.960784%);fill-opacity:1;" d="M 7.472656 18.210938 L 11.066406 1.433594 C 11.121094 1.148438 11 0.859375 10.757812 0.703125 C 10.511719 0.542969 10.199219 0.546875 9.960938 0.710938 L 0.757812 7.757812 C 0.285156 8.121094 0.0078125 8.683594 0.0078125 9.277344 L 0.0078125 27.15625 C 0 27.757812 0.277344 28.328125 0.757812 28.695312 L 9.914062 35.71875 C 10.152344 35.882812 10.46875 35.890625 10.710938 35.730469 C 10.953125 35.570312 11.078125 35.28125 11.019531 34.996094 Z M 7.472656 18.210938 "/>
</g>
</svg>
