<?xml version="1.0" encoding="UTF-8"?>
<svg xmlns="http://www.w3.org/2000/svg" xmlns:xlink="http://www.w3.org/1999/xlink" width="26pt" height="29pt" viewBox="0 0 26 29" version="1.1">
<defs>
<linearGradient id="linear0" gradientUnits="userSpaceOnUse" x1="56.195" y1="700.57" x2="56.195" y2="798" gradientTransform="matrix(0.131195,0,0,0.130513,-2.057243,-80.40126)">
<stop offset="0" style="stop-color:rgb(96.470588%,91.372549%,23.921569%);stop-opacity:1;"/>
<stop offset="0.13" style="stop-color:rgb(97.254902%,89.019608%,18.823529%);stop-opacity:1;"/>
<stop offset="0.35" style="stop-color:rgb(96.862745%,78.039216%,18.823529%);stop-opacity:1;"/>
<stop offset="0.64" style="stop-color:rgb(96.078431%,61.176471%,18.039216%);stop-opacity:1;"/>
<stop offset="0.98" style="stop-color:rgb(92.156863%,36.862745%,17.254902%);stop-opacity:1;"/>
<stop offset="1" style="stop-color:rgb(92.156863%,36.078431%,17.254902%);stop-opacity:1;"/>
</linearGradient>
<linearGradient id="linear1" gradientUnits="userSpaceOnUse" x1="94.485" y1="757.28" x2="94.485" y2="838.23" gradientTransform="matrix(0.131195,0,0,0.130513,-2.057243,-80.40126)">
<stop offset="0" style="stop-color:rgb(96.470588%,91.372549%,23.921569%);stop-opacity:1;"/>
<stop offset="0.13" style="stop-color:rgb(97.254902%,89.019608%,18.823529%);stop-opacity:1;"/>
<stop offset="0.35" style="stop-color:rgb(96.862745%,78.039216%,18.823529%);stop-opacity:1;"/>
<stop offset="0.64" style="stop-color:rgb(96.078431%,61.176471%,18.039216%);stop-opacity:1;"/>
<stop offset="0.98" style="stop-color:rgb(92.156863%,36.862745%,17.254902%);stop-opacity:1;"/>
<stop offset="1" style="stop-color:rgb(92.156863%,36.078431%,17.254902%);stop-opacity:1;"/>
</linearGradient>
<linearGradient id="linear2" gradientUnits="userSpaceOnUse" x1="139.615" y1="733.63" x2="139.615" y2="824.07" gradientTransform="matrix(0.131195,0,0,0.130513,-2.057243,-80.40126)">
<stop offset="0" style="stop-color:rgb(96.470588%,91.372549%,23.921569%);stop-opacity:1;"/>
<stop offset="0.13" style="stop-color:rgb(97.254902%,89.019608%,18.823529%);stop-opacity:1;"/>
<stop offset="0.35" style="stop-color:rgb(96.862745%,78.039216%,18.823529%);stop-opacity:1;"/>
<stop offset="0.64" style="stop-color:rgb(96.078431%,61.176471%,18.039216%);stop-opacity:1;"/>
<stop offset="0.98" style="stop-color:rgb(92.156863%,36.862745%,17.254902%);stop-opacity:1;"/>
<stop offset="1" style="stop-color:rgb(92.156863%,36.078431%,17.254902%);stop-opacity:1;"/>
</linearGradient>
<linearGradient id="linear3" gradientUnits="userSpaceOnUse" x1="66.615" y1="633.97" x2="66.615" y2="704.35" gradientTransform="matrix(0.131195,0,0,0.130513,-2.057243,-80.40126)">
<stop offset="0" style="stop-color:rgb(96.470588%,91.372549%,23.921569%);stop-opacity:1;"/>
<stop offset="0.13" style="stop-color:rgb(97.254902%,89.019608%,18.823529%);stop-opacity:1;"/>
<stop offset="0.35" style="stop-color:rgb(96.862745%,78.039216%,18.823529%);stop-opacity:1;"/>
<stop offset="0.64" style="stop-color:rgb(96.078431%,61.176471%,18.039216%);stop-opacity:1;"/>
<stop offset="0.98" style="stop-color:rgb(92.156863%,36.862745%,17.254902%);stop-opacity:1;"/>
<stop offset="1" style="stop-color:rgb(92.156863%,36.078431%,17.254902%);stop-opacity:1;"/>
</linearGradient>
<linearGradient id="linear4" gradientUnits="userSpaceOnUse" x1="187.26" y1="657.82" x2="187.26" y2="764.75" gradientTransform="matrix(0.131195,0,0,0.130513,-2.057243,-80.40126)">
<stop offset="0" style="stop-color:rgb(96.470588%,91.372549%,23.921569%);stop-opacity:1;"/>
<stop offset="0.13" style="stop-color:rgb(97.254902%,89.019608%,18.823529%);stop-opacity:1;"/>
<stop offset="0.35" style="stop-color:rgb(96.862745%,78.039216%,18.823529%);stop-opacity:1;"/>
<stop offset="0.64" style="stop-color:rgb(96.078431%,61.176471%,18.039216%);stop-opacity:1;"/>
<stop offset="0.98" style="stop-color:rgb(92.156863%,36.862745%,17.254902%);stop-opacity:1;"/>
<stop offset="1" style="stop-color:rgb(92.156863%,36.078431%,17.254902%);stop-opacity:1;"/>
</linearGradient>
<linearGradient id="linear5" gradientUnits="userSpaceOnUse" x1="128.46" y1="616.04" x2="128.46" y2="726.07" gradientTransform="matrix(0.131195,0,0,0.130513,-2.057243,-80.40126)">
<stop offset="0" style="stop-color:rgb(96.470588%,91.372549%,23.921569%);stop-opacity:1;"/>
<stop offset="0.13" style="stop-color:rgb(97.254902%,89.019608%,18.823529%);stop-opacity:1;"/>
<stop offset="0.35" style="stop-color:rgb(96.862745%,78.039216%,18.823529%);stop-opacity:1;"/>
<stop offset="0.64" style="stop-color:rgb(96.078431%,61.176471%,18.039216%);stop-opacity:1;"/>
<stop offset="0.98" style="stop-color:rgb(92.156863%,36.862745%,17.254902%);stop-opacity:1;"/>
<stop offset="1" style="stop-color:rgb(92.156863%,36.078431%,17.254902%);stop-opacity:1;"/>
</linearGradient>
<linearGradient id="linear6" gradientUnits="userSpaceOnUse" x1="150.08" y1="700.41" x2="150.08" y2="726.1" gradientTransform="matrix(0.131195,0,0,0.130513,-2.057243,-80.40126)">
<stop offset="0" style="stop-color:rgb(96.470588%,91.372549%,23.921569%);stop-opacity:1;"/>
<stop offset="0.13" style="stop-color:rgb(97.254902%,89.019608%,18.823529%);stop-opacity:1;"/>
<stop offset="0.35" style="stop-color:rgb(96.862745%,78.039216%,18.823529%);stop-opacity:1;"/>
<stop offset="0.64" style="stop-color:rgb(96.078431%,61.176471%,18.039216%);stop-opacity:1;"/>
<stop offset="0.98" style="stop-color:rgb(92.156863%,36.862745%,17.254902%);stop-opacity:1;"/>
<stop offset="1" style="stop-color:rgb(92.156863%,36.078431%,17.254902%);stop-opacity:1;"/>
</linearGradient>
<linearGradient id="linear7" gradientUnits="userSpaceOnUse" x1="78.9028" y1="719.6874" x2="87.0628" y2="697.2674" gradientTransform="matrix(0.131195,0,0,0.130513,-2.057243,-80.40126)">
<stop offset="0" style="stop-color:rgb(96.470588%,91.372549%,23.921569%);stop-opacity:1;"/>
<stop offset="0.13" style="stop-color:rgb(97.254902%,89.019608%,18.823529%);stop-opacity:1;"/>
<stop offset="0.35" style="stop-color:rgb(96.862745%,78.039216%,18.823529%);stop-opacity:1;"/>
<stop offset="0.64" style="stop-color:rgb(96.078431%,61.176471%,18.039216%);stop-opacity:1;"/>
<stop offset="0.98" style="stop-color:rgb(92.156863%,36.862745%,17.254902%);stop-opacity:1;"/>
<stop offset="1" style="stop-color:rgb(92.156863%,36.078431%,17.254902%);stop-opacity:1;"/>
</linearGradient>
</defs>
<g id="surface1">
<path style=" stroke:none;fill-rule:nonzero;fill:url(#linear0);" d="M 6.066406 12.425781 L 6.078125 12.425781 L 6.300781 12.503906 L 6.511719 12.582031 L 6.734375 12.648438 L 6.945312 12.738281 L 7.167969 12.816406 L 7.378906 12.894531 L 7.601562 12.972656 L 7.8125 13.050781 L 8.019531 13.128906 L 8.230469 13.207031 L 8.453125 13.285156 L 8.664062 13.378906 L 8.886719 13.441406 L 9.097656 13.519531 L 9.320312 13.597656 L 9.53125 13.691406 L 9.753906 13.769531 L 9.960938 13.835938 L 10.171875 13.914062 L 10.394531 14.003906 L 10.617188 14.082031 L 10.617188 11.027344 L 5.777344 11.027344 L 5.566406 11.132812 L 5.070312 11.394531 L 4.558594 11.667969 L 4.046875 11.914062 L 3.558594 12.175781 L 3.050781 12.449219 L 2.539062 12.699219 L 2.039062 12.972656 L 1.527344 13.234375 L 1.027344 13.480469 L 0.53125 13.757812 L 0.0703125 13.992188 L 0.0195312 21.46875 L 0.53125 21.820312 L 1.027344 22.175781 L 1.527344 22.511719 L 2.039062 22.878906 L 2.539062 23.230469 L 3.050781 23.582031 L 3.273438 23.753906 L 3.558594 23.386719 L 4.046875 22.734375 L 4.097656 22.671875 L 4.046875 22.632812 L 3.558594 22.277344 L 3.050781 21.925781 L 2.539062 21.574219 L 2.039062 21.222656 L 1.527344 20.855469 L 1.394531 20.777344 L 1.433594 14.722656 L 1.527344 14.667969 L 2.039062 14.421875 L 2.539062 14.171875 L 3.050781 13.925781 L 3.558594 13.679688 L 4.046875 13.417969 L 4.558594 13.167969 L 5.070312 12.933594 L 5.566406 12.671875 Z M 6.066406 12.425781 "/>
<path style=" stroke:none;fill-rule:nonzero;fill:url(#linear1);" d="M 14.75 26.691406 L 14.332031 26.859375 L 13.859375 27.054688 L 13.386719 27.238281 L 12.914062 27.433594 L 12.703125 27.511719 L 12.457031 27.394531 L 11.984375 27.148438 L 11.511719 26.925781 L 11.050781 26.675781 L 10.578125 26.441406 L 10.105469 26.21875 L 9.636719 25.972656 L 8.691406 25.503906 L 8.21875 25.265625 L 7.746094 25.019531 L 7.300781 24.796875 L 6.828125 24.5625 L 6.773438 24.535156 L 6.773438 18.429688 L 5.410156 18.429688 L 5.410156 25.371094 L 5.882812 25.59375 L 6.355469 25.828125 L 6.828125 26.078125 L 7.300781 26.296875 L 7.746094 26.546875 L 9.636719 27.484375 L 10.105469 27.722656 L 10.578125 27.957031 L 11.050781 28.203125 L 11.511719 28.425781 L 11.984375 28.671875 L 12.457031 28.894531 L 12.640625 29 L 12.914062 28.871094 L 13.386719 28.699219 L 14.332031 28.308594 L 14.789062 28.125 L 15.261719 27.941406 L 14.789062 26.769531 Z M 14.75 26.691406 "/>
<path style=" stroke:none;fill-rule:nonzero;fill:url(#linear2);" d="M 23.136719 18.207031 L 23.160156 21.078125 L 23.042969 21.183594 L 22.242188 21.730469 L 20.640625 22.878906 L 19.84375 23.441406 L 19.042969 24 L 18.253906 24.574219 L 17.453125 25.136719 L 16.980469 25.476562 L 16.652344 25.226562 L 15.867188 24.613281 L 15.066406 24.015625 L 14.265625 23.402344 L 13.480469 22.800781 L 13.335938 22.695312 L 13.335938 19.601562 L 13.480469 19.472656 L 14.265625 18.636719 L 15.066406 17.816406 L 15.867188 16.980469 L 16.652344 16.15625 L 17.429688 15.347656 L 7.890625 15.347656 L 8.691406 16.183594 L 9.476562 17.003906 L 10.277344 17.828125 L 11.078125 18.664062 L 11.863281 19.484375 L 11.984375 19.601562 L 11.984375 23.347656 L 12.664062 23.882812 L 13.480469 24.496094 L 14.265625 25.097656 L 15.066406 25.710938 L 15.867188 26.3125 L 16.652344 26.925781 L 16.941406 27.148438 L 17.453125 26.78125 L 18.253906 26.234375 L 19.042969 25.660156 L 19.84375 25.085938 L 20.640625 24.535156 L 22.242188 23.386719 L 23.042969 22.839844 L 23.84375 22.265625 L 24.5 21.78125 L 24.628906 18.257812 L 23.84375 18.234375 Z M 23.136719 18.207031 "/>
<path style=" stroke:none;fill-rule:nonzero;fill:url(#linear3);" d="M 1.316406 11.523438 L 1.410156 11.523438 L 1.421875 7.6875 L 1.933594 7.359375 L 2.578125 6.984375 L 3.207031 6.605469 L 3.835938 6.210938 L 4.464844 5.832031 L 5.109375 5.441406 L 5.726562 5.0625 L 6.367188 4.683594 L 6.996094 4.292969 L 7.640625 3.902344 L 7.652344 3.902344 L 8.257812 4.253906 L 8.898438 4.605469 L 9.53125 4.972656 L 10.789062 5.675781 L 11.417969 6.03125 L 12.050781 6.394531 L 12.664062 6.746094 L 12.691406 6.695312 L 13.320312 5.558594 L 12.691406 5.195312 L 12.050781 4.84375 L 11.417969 4.488281 L 10.789062 4.136719 L 10.160156 3.773438 L 9.53125 3.417969 L 8.898438 3.066406 L 8.257812 2.703125 L 7.640625 2.347656 L 7.613281 2.335938 L 6.996094 2.703125 L 6.367188 3.09375 L 5.726562 3.484375 L 5.109375 3.875 L 4.464844 4.253906 L 3.835938 4.632812 L 3.207031 5.023438 L 2.578125 5.402344 L 1.933594 5.792969 L 1.316406 6.171875 L 0.675781 6.550781 L 0.0703125 6.929688 L 0.0429688 11.511719 L 0.675781 11.511719 Z M 1.316406 11.523438 "/>
<path style=" stroke:none;fill-rule:nonzero;fill:url(#linear4);" d="M 25.980469 8.011719 L 25.652344 7.753906 L 25.324219 7.492188 L 24.996094 7.21875 L 24.667969 6.957031 L 24.34375 6.695312 L 24 6.433594 L 23.671875 6.171875 L 23.34375 5.914062 L 23.003906 5.636719 L 22.753906 5.457031 L 22.664062 5.558594 L 22.335938 5.964844 L 22.007812 6.382812 L 21.914062 6.488281 L 22.007812 6.578125 L 22.664062 7.125 L 23.003906 7.398438 L 23.34375 7.675781 L 23.671875 7.960938 L 24 8.234375 L 24.34375 8.507812 L 24.5 8.640625 L 24.511719 14.8125 L 24.34375 14.929688 L 24 15.140625 L 23.671875 15.347656 L 23.34375 15.558594 L 23.003906 15.765625 L 22.664062 15.976562 L 22.007812 16.390625 L 21.679688 16.601562 L 21.351562 16.808594 L 21.023438 17.019531 L 20.679688 17.226562 L 20.351562 17.4375 L 20.027344 17.644531 L 19.699219 17.855469 L 19.355469 18.0625 L 19.027344 18.273438 L 19.355469 18.792969 L 19.699219 19.316406 L 19.75 19.40625 L 20.027344 19.238281 L 20.351562 19.042969 L 20.679688 18.832031 L 21.023438 18.636719 L 21.351562 18.414062 L 21.679688 18.21875 L 22.007812 18.011719 L 22.335938 17.816406 L 22.664062 17.605469 L 23.003906 17.410156 L 23.34375 17.1875 L 23.671875 16.992188 L 24 16.785156 L 24.34375 16.589844 L 24.667969 16.378906 L 24.996094 16.183594 L 25.324219 15.960938 L 25.652344 15.765625 L 25.980469 15.558594 Z M 25.980469 8.011719 "/>
<path style=" stroke:none;fill-rule:nonzero;fill:url(#linear5);" d="M 15.15625 11.695312 L 15.15625 14.355469 L 15.261719 14.316406 L 15.710938 14.148438 L 16.15625 13.964844 L 16.589844 13.796875 L 17.480469 13.429688 L 17.914062 13.261719 L 18.359375 13.078125 L 18.804688 12.90625 L 19.238281 12.726562 L 19.683594 12.554688 L 20.117188 12.371094 L 20.117188 4.292969 L 19.617188 3.980469 L 19.105469 3.695312 L 18.59375 3.40625 L 18.097656 3.09375 L 17.585938 2.804688 L 17.074219 2.519531 L 16.574219 2.21875 L 16.0625 1.917969 L 15.566406 1.617188 L 15.054688 1.332031 L 14.542969 1.03125 L 14.042969 0.730469 L 13.542969 0.445312 L 13.03125 0.15625 L 12.757812 0 L 12.519531 0.128906 L 12.007812 0.40625 L 11.496094 0.664062 L 11.011719 0.953125 L 10.5 1.226562 L 9.988281 1.488281 L 9.476562 1.773438 L 9.988281 2.0625 L 10.5 2.347656 L 10.816406 2.546875 L 11.011719 2.441406 L 11.496094 2.179688 L 12.007812 1.90625 L 12.519531 1.644531 L 12.71875 1.539062 L 13.03125 1.722656 L 13.542969 2.011719 L 14.042969 2.296875 L 14.542969 2.597656 L 15.054688 2.898438 L 15.566406 3.183594 L 16.0625 3.484375 L 16.574219 3.785156 L 17.074219 4.070312 L 17.585938 4.359375 L 18.097656 4.671875 L 18.59375 4.960938 L 18.765625 5.050781 L 18.765625 11.003906 L 15.183594 11.003906 "/>
<path style=" stroke:none;fill-rule:nonzero;fill:url(#linear6);" d="M 15.15625 14.355469 L 20.117188 12.371094 L 15.15625 11.003906 "/>
<path style=" stroke:none;fill-rule:nonzero;fill:url(#linear7);" d="M 10.617188 14.355469 L 10.617188 11.054688 L 6.078125 12.398438 L 10.617188 14.34375 "/>
</g>
</svg>
