<?xml version="1.0" encoding="UTF-8"?>
<svg xmlns="http://www.w3.org/2000/svg" xmlns:xlink="http://www.w3.org/1999/xlink" width="26pt" height="22pt" viewBox="0 0 26 22" version="1.1">
<g id="surface1">
<path style=" stroke:none;fill-rule:nonzero;fill:rgb(29.411765%,75.294118%,78.431373%);fill-opacity:1;" d="M 19.722656 22 L 1.980469 10.042969 C 0.753906 9.214844 0.0195312 7.867188 0.0195312 6.425781 C 0.0195312 4.988281 0.753906 3.636719 1.980469 2.8125 L 6.277344 -0.0703125 L 24.019531 11.890625 C 25.246094 12.714844 25.976562 14.066406 25.976562 15.503906 C 25.976562 16.945312 25.246094 18.292969 24.019531 19.117188 Z M 6.277344 1.851562 L 2.925781 4.101562 C 2.136719 4.632812 1.664062 5.5 1.664062 6.429688 C 1.664062 7.355469 2.136719 8.222656 2.925781 8.753906 L 19.726562 20.078125 L 23.078125 17.828125 C 23.867188 17.296875 24.335938 16.429688 24.335938 15.503906 C 24.335938 14.578125 23.867188 13.710938 23.078125 13.179688 Z M 6.277344 1.851562 "/>
<path style=" stroke:none;fill-rule:nonzero;fill:rgb(0.784314%,50.588235%,60.784314%);fill-opacity:1;" d="M 6.261719 20.066406 L 2.914062 17.8125 C 2.125 17.28125 1.65625 16.414062 1.65625 15.488281 C 1.65625 14.558594 2.125 13.691406 2.914062 13.160156 L 11.574219 7.347656 L 10.144531 6.390625 L 1.980469 11.871094 C 0.75 12.695312 0.0195312 14.046875 0.0195312 15.484375 C 0.0195312 16.925781 0.75 18.273438 1.980469 19.101562 L 6.265625 21.988281 L 11.566406 18.425781 L 10.140625 17.464844 Z M 6.261719 20.066406 "/>
<path style=" stroke:none;fill-rule:nonzero;fill:rgb(0.784314%,50.588235%,60.784314%);fill-opacity:1;" d="M 24.027344 2.828125 L 19.738281 -0.0585938 L 14.433594 3.507812 L 15.859375 4.46875 L 19.738281 1.871094 L 23.085938 4.125 C 23.875 4.65625 24.34375 5.523438 24.34375 6.449219 C 24.34375 7.375 23.875 8.242188 23.085938 8.773438 L 14.425781 14.582031 L 15.851562 15.546875 L 24.019531 10.058594 C 25.25 9.234375 25.980469 7.882812 25.980469 6.445312 C 25.980469 5.003906 25.25 3.65625 24.019531 2.828125 Z M 24.027344 2.828125 "/>
<path style=" stroke:none;fill-rule:nonzero;fill:rgb(0.784314%,50.588235%,60.784314%);fill-opacity:1;" d="M 3 11.179688 L 9.746094 6.648438 L 10.6875 7.9375 L 3.941406 12.472656 Z M 3 11.179688 "/>
<path style=" stroke:none;fill-rule:nonzero;fill:rgb(0.784314%,50.588235%,60.784314%);fill-opacity:1;" d="M 22.210938 9.351562 L 18.925781 11.558594 L 19.863281 12.851562 L 23.273438 10.558594 C 22.917969 10.160156 22.5625 9.757812 22.210938 9.351562 Z M 22.210938 9.351562 "/>
</g>
</svg>
