<?xml version="1.0" encoding="UTF-8"?>
<svg xmlns="http://www.w3.org/2000/svg" xmlns:xlink="http://www.w3.org/1999/xlink" width="26pt" height="20pt" viewBox="0 0 26 20" version="1.1">
<g id="surface1">
<path style=" stroke:none;fill-rule:nonzero;fill:rgb(16.862745%,74.117647%,96.862745%);fill-opacity:1;" d="M 10.097656 8.304688 L 13 14.574219 L 17.3125 12.148438 L 17.320312 12.148438 L 17.320312 7.289062 Z M 10.097656 8.304688 "/>
<path style=" stroke:none;fill-rule:nonzero;fill:rgb(15.686275%,56.862745%,97.647059%);fill-opacity:1;" d="M 22.890625 3.644531 L 20.199219 2.65625 L 17.320312 2.429688 L 17.320312 17.570312 L 21.640625 20 L 25.085938 13.15625 L 22.898438 6.570312 Z M 22.890625 3.644531 "/>
<path style=" stroke:none;fill-rule:nonzero;fill:rgb(16.862745%,74.117647%,96.862745%);fill-opacity:1;" d="M 22.640625 2.429688 L 21.640625 4.859375 L 21.640625 19.960938 L 25.957031 17.53125 L 25.957031 2.429688 Z M 22.640625 2.429688 "/>
<path style=" stroke:none;fill-rule:nonzero;fill:rgb(16.862745%,42.745098%,93.72549%);fill-opacity:1;" d="M 21.640625 0 L 17.320312 2.429688 L 21.640625 4.859375 L 25.957031 2.429688 Z M 21.640625 0 "/>
<path style=" stroke:none;fill-rule:nonzero;fill:rgb(15.686275%,56.862745%,97.647059%);fill-opacity:1;" d="M 13 9.714844 L 8.679688 4.996094 L 0.0429688 2.429688 L 0.0429688 17.53125 L 4.359375 19.960938 L 5.597656 11.601562 L 8.679688 12.148438 L 13 14.574219 Z M 13 9.714844 "/>
<path style=" stroke:none;fill-rule:nonzero;fill:rgb(16.862745%,42.745098%,93.72549%);fill-opacity:1;" d="M 4.359375 0 L 0.0429688 2.429688 L 13 9.714844 L 14.957031 8.617188 L 17.320312 7.289062 Z M 4.359375 0 "/>
<path style=" stroke:none;fill-rule:nonzero;fill:rgb(16.862745%,74.117647%,96.862745%);fill-opacity:1;" d="M 4.359375 9.714844 L 4.359375 19.960938 L 8.679688 17.53125 L 8.679688 12.148438 Z M 4.359375 9.714844 "/>
</g>
</svg>
