<?xml version="1.0" encoding="UTF-8"?>
<svg xmlns="http://www.w3.org/2000/svg" xmlns:xlink="http://www.w3.org/1999/xlink" width="26pt" height="26pt" viewBox="0 0 26 26" version="1.1">
<g id="surface1">
<path style=" stroke:none;fill-rule:evenodd;fill:rgb(6.27451%,24.705882%,40.784314%);fill-opacity:1;" d="M 26 13 C 26 20.179688 20.179688 26 13 26 C 5.820312 26 0 20.179688 0 13 C 0 5.820312 5.820312 0 13 0 C 20.179688 0 26 5.820312 26 13 Z M 26 13 "/>
<path style=" stroke:none;fill-rule:nonzero;fill:rgb(100%,100%,100%);fill-opacity:1;" d="M 12.984375 4.078125 L 20.71875 8.53125 L 20.71875 17.46875 L 12.992188 21.9375 L 12.929688 21.921875 L 5.28125 17.46875 L 5.28125 8.53125 L 12.929688 4.078125 Z M 12.957031 5 L 6.09375 9 L 6.09375 17.003906 L 12.957031 21 L 13.796875 20.515625 L 19.90625 17 L 19.90625 9 L 13.796875 5.464844 Z M 7.15625 13.621094 L 9.1875 12.101562 L 10.984375 13.25 L 10.984375 15.3125 L 12.34375 16.625 L 12.34375 17.238281 L 11.035156 18.464844 L 9.929688 18.464844 Z M 13.578125 17.238281 L 13.574219 16.621094 L 14.929688 15.3125 L 14.929688 13.25 L 16.707031 12.089844 L 18.734375 13.625 L 15.980469 18.449219 L 14.886719 18.449219 Z M 11.652344 13.25 L 10.992188 11.519531 L 14.921875 11.519531 L 14.273438 13.25 L 14.464844 15.1875 L 12.949219 15.1875 L 11.449219 15.191406 Z M 12.949219 11.042969 L 9.214844 11.042969 L 9.90625 7.9375 L 15.972656 7.9375 L 16.703125 11.046875 Z M 12.949219 11.042969 "/>
</g>
</svg>
