<?xml version="1.0" encoding="UTF-8"?>
<svg xmlns="http://www.w3.org/2000/svg" xmlns:xlink="http://www.w3.org/1999/xlink" width="26pt" height="29pt" viewBox="0 0 26 29" version="1.1">
<g id="surface1">
<path style=" stroke:none;fill-rule:nonzero;fill:rgb(43.137255%,65.882353%,94.901961%);fill-opacity:1;" d="M 7.910156 0.925781 C 8.992188 -0.148438 10.859375 -0.3125 12.117188 0.5625 C 13.363281 1.359375 13.878906 3.019531 13.335938 4.363281 C 13.019531 5.203125 12.3125 5.859375 11.480469 6.21875 C 11.730469 7.480469 12 8.738281 12.253906 9.996094 C 13.757812 9.890625 15.28125 10.589844 16.148438 11.792969 C 17.148438 13.132812 17.199219 15.023438 16.335938 16.4375 C 17.964844 17.917969 19.589844 19.402344 21.210938 20.890625 C 22.003906 20.257812 23.121094 20.027344 24.089844 20.371094 C 25.210938 20.746094 26.011719 21.847656 26 22.996094 C 26.011719 24.019531 25.382812 25.011719 24.449219 25.476562 C 23.871094 25.78125 23.183594 25.847656 22.542969 25.734375 C 21.472656 25.527344 20.574219 24.683594 20.328125 23.652344 C 20.160156 23.015625 20.277344 22.34375 20.539062 21.746094 C 18.90625 20.257812 17.28125 18.765625 15.640625 17.285156 C 14.523438 18.335938 12.828125 18.773438 11.328125 18.328125 C 10.511719 20.496094 9.746094 22.679688 8.925781 24.847656 C 9.230469 25.304688 9.484375 25.816406 9.5 26.371094 C 9.527344 27.203125 9.117188 28.039062 8.414062 28.519531 C 7.777344 28.964844 6.933594 29.121094 6.183594 28.898438 C 5.222656 28.648438 4.46875 27.8125 4.324219 26.859375 C 4.21875 26.371094 4.351562 25.882812 4.507812 25.421875 C 4.179688 25.195312 3.855469 24.964844 3.527344 24.738281 C 3.128906 24.949219 2.695312 25.125 2.230469 25.097656 C 1.292969 25.121094 0.402344 24.476562 0.117188 23.609375 C -0.167969 22.824219 0.0820312 21.894531 0.714844 21.332031 C 1.296875 20.785156 2.195312 20.597656 2.960938 20.851562 C 3.816406 21.117188 4.460938 21.925781 4.488281 22.804688 C 4.519531 23.195312 4.398438 23.574219 4.269531 23.941406 C 4.574219 24.144531 4.871094 24.355469 5.175781 24.558594 C 5.5625 24.269531 6.007812 24.035156 6.5 23.96875 C 7.011719 23.867188 7.527344 24.011719 8.011719 24.15625 C 8.769531 22.066406 9.542969 19.980469 10.300781 17.890625 C 9.015625 17.121094 8.140625 15.703125 8.195312 14.21875 C 8.152344 12.4375 9.4375 10.769531 11.160156 10.210938 C 10.917969 8.957031 10.640625 7.707031 10.394531 6.453125 C 9.316406 6.472656 8.238281 6 7.59375 5.152344 C 6.597656 3.921875 6.742188 2 7.910156 0.925781 M 9.910156 1.320312 C 8.835938 1.460938 8.046875 2.578125 8.296875 3.601562 C 8.464844 4.449219 9.28125 5.140625 10.179688 5.132812 C 11.050781 5.1875 11.898438 4.589844 12.136719 3.78125 C 12.40625 2.964844 12.03125 2.003906 11.273438 1.574219 C 10.871094 1.324219 10.375 1.257812 9.910156 1.320312 M 11.914062 11.875 C 10.667969 12.164062 9.820312 13.480469 10.082031 14.695312 C 10.273438 15.824219 11.378906 16.71875 12.558594 16.695312 C 13.710938 16.726562 14.796875 15.875 15.03125 14.78125 C 15.265625 13.8125 14.816406 12.722656 13.945312 12.191406 C 13.355469 11.8125 12.597656 11.695312 11.914062 11.875 M 22.625 21.585938 C 21.898438 21.820312 21.417969 22.628906 21.625 23.351562 C 21.789062 24.058594 22.539062 24.578125 23.28125 24.492188 C 24.074219 24.425781 24.734375 23.683594 24.65625 22.90625 C 24.636719 21.960938 23.535156 21.238281 22.625 21.585938 M 1.875 21.878906 C 1.054688 22.113281 0.84375 23.28125 1.527344 23.777344 C 2.164062 24.339844 3.308594 23.894531 3.378906 23.066406 C 3.523438 22.292969 2.628906 21.574219 1.875 21.878906 M 6.546875 25.28125 C 6.179688 25.382812 5.871094 25.652344 5.722656 25.992188 C 5.390625 26.699219 5.914062 27.609375 6.710938 27.691406 C 7.445312 27.816406 8.195312 27.199219 8.164062 26.472656 C 8.203125 25.675781 7.320312 25.042969 6.546875 25.28125 "/>
</g>
</svg>
