<?xml version="1.0" encoding="UTF-8"?>
<svg xmlns="http://www.w3.org/2000/svg" xmlns:xlink="http://www.w3.org/1999/xlink" width="26pt" height="26pt" viewBox="0 0 26 26" version="1.1">
<g id="surface1">
<path style=" stroke:none;fill-rule:nonzero;fill:rgb(11.764706%,12.156863%,14.509804%);fill-opacity:1;" d="M 26 13 C 26 20.179688 20.179688 26 13 26 C 5.820312 26 0 20.179688 0 13 C 0 5.820312 5.820312 0 13 0 C 20.179688 0 26 5.820312 26 13 Z M 26 13 "/>
<path style=" stroke:none;fill-rule:nonzero;fill:rgb(100%,100%,100%);fill-opacity:1;" d="M 6.5 7.3125 L 7.3125 7.3125 L 7.3125 18.6875 L 6.5 18.6875 Z M 10.5625 9.75 L 11.375 9.75 L 11.375 17.0625 L 10.5625 17.0625 Z M 14.625 11.375 L 15.4375 11.375 L 15.4375 15.4375 L 14.625 15.4375 Z M 18.6875 7.3125 L 19.5 7.3125 L 19.5 18.6875 L 18.6875 18.6875 Z M 18.6875 7.3125 "/>
</g>
</svg>
