<?xml version="1.0" encoding="UTF-8"?>
<svg xmlns="http://www.w3.org/2000/svg" xmlns:xlink="http://www.w3.org/1999/xlink" width="26pt" height="26pt" viewBox="0 0 26 26" version="1.1">
<g id="surface1">
<path style=" stroke:none;fill-rule:nonzero;fill:rgb(7.843137%,7.843137%,7.843137%);fill-opacity:1;" d="M 3.324219 12.515625 C 3.324219 13.277344 2.699219 13.894531 1.925781 13.894531 C 1.15625 13.894531 0.527344 13.277344 0.527344 12.515625 C 0.527344 11.753906 1.15625 11.136719 1.925781 11.136719 C 2.699219 11.136719 3.324219 11.753906 3.324219 12.515625 M 25.546875 12.515625 C 25.546875 13.277344 24.921875 13.894531 24.148438 13.894531 C 23.375 13.894531 22.75 13.277344 22.75 12.515625 C 22.75 11.753906 23.375 11.136719 24.148438 11.136719 C 24.917969 11.136719 25.542969 11.753906 25.542969 12.515625 M 14.4375 17.957031 C 14.4375 18.71875 13.8125 19.339844 13.039062 19.339844 C 12.265625 19.339844 11.640625 18.722656 11.640625 17.957031 C 11.640625 17.195312 12.265625 16.578125 13.039062 16.578125 C 13.808594 16.578125 14.4375 17.195312 14.4375 17.957031 M 8.84375 15.269531 C 8.84375 16.035156 8.214844 16.652344 7.445312 16.652344 C 6.671875 16.652344 6.046875 16.035156 6.046875 15.269531 C 6.046875 14.507812 6.671875 13.890625 7.445312 13.890625 C 8.214844 13.890625 8.84375 14.507812 8.84375 15.269531 M 19.953125 15.269531 C 19.953125 15.828125 19.613281 16.335938 19.09375 16.546875 C 18.570312 16.761719 17.96875 16.644531 17.566406 16.25 C 17.164062 15.855469 17.046875 15.261719 17.261719 14.746094 C 17.480469 14.230469 17.992188 13.894531 18.558594 13.894531 C 19.328125 13.894531 19.953125 14.511719 19.953125 15.269531 M 2.871094 16.691406 C 2.871094 17.207031 2.449219 17.625 1.925781 17.621094 C 1.40625 17.621094 0.980469 17.203125 0.980469 16.691406 C 0.984375 16.175781 1.40625 15.757812 1.929688 15.757812 C 2.449219 15.757812 2.871094 16.175781 2.871094 16.691406 M 25.09375 16.691406 C 25.09375 17.207031 24.667969 17.625 24.148438 17.621094 C 23.625 17.621094 23.203125 17.203125 23.203125 16.691406 C 23.203125 16.175781 23.625 15.757812 24.148438 15.757812 C 24.671875 15.757812 25.09375 16.175781 25.09375 16.691406 M 13.984375 22.207031 C 13.984375 22.722656 13.558594 23.140625 13.039062 23.140625 C 12.515625 23.140625 12.09375 22.722656 12.09375 22.207031 C 12.09375 21.695312 12.515625 21.277344 13.039062 21.277344 C 13.558594 21.277344 13.980469 21.695312 13.984375 22.207031 M 8.390625 19.449219 C 8.390625 19.964844 7.964844 20.378906 7.445312 20.378906 C 6.921875 20.378906 6.5 19.960938 6.5 19.449219 C 6.5 18.933594 6.921875 18.515625 7.445312 18.515625 C 7.96875 18.515625 8.390625 18.933594 8.390625 19.449219 M 19.5 19.449219 C 19.5 19.824219 19.273438 20.167969 18.917969 20.3125 C 18.566406 20.457031 18.15625 20.375 17.886719 20.109375 C 17.617188 19.84375 17.535156 19.441406 17.683594 19.09375 C 17.828125 18.742188 18.175781 18.515625 18.558594 18.519531 C 19.078125 18.519531 19.5 18.933594 19.5 19.449219 M 2.417969 19.972656 C 2.417969 20.242188 2.199219 20.460938 1.925781 20.460938 C 1.652344 20.460938 1.429688 20.242188 1.429688 19.972656 C 1.429688 19.703125 1.652344 19.484375 1.925781 19.484375 C 2.199219 19.484375 2.417969 19.703125 2.417969 19.972656 M 24.640625 19.972656 C 24.640625 20.242188 24.417969 20.460938 24.144531 20.460938 C 23.871094 20.460938 23.652344 20.242188 23.652344 19.972656 C 23.652344 19.703125 23.871094 19.484375 24.144531 19.484375 C 24.417969 19.484375 24.640625 19.703125 24.640625 19.972656 M 13.527344 25.488281 C 13.527344 25.757812 13.308594 25.976562 13.035156 25.976562 C 12.761719 25.976562 12.539062 25.757812 12.539062 25.488281 C 12.539062 25.222656 12.761719 25.003906 13.035156 25.003906 C 13.308594 25.003906 13.527344 25.222656 13.527344 25.488281 M 7.9375 22.730469 C 7.9375 23 7.714844 23.21875 7.441406 23.21875 C 7.167969 23.21875 6.949219 23 6.949219 22.730469 C 6.949219 22.460938 7.167969 22.242188 7.441406 22.242188 C 7.714844 22.242188 7.9375 22.460938 7.9375 22.730469 M 19.046875 22.730469 C 19.046875 23 18.824219 23.21875 18.554688 23.21875 C 18.28125 23.21875 18.058594 23 18.058594 22.730469 C 18.058594 22.460938 18.28125 22.242188 18.554688 22.242188 C 18.824219 22.242188 19.046875 22.460938 19.046875 22.730469 M 14.886719 1.890625 C 14.886719 2.917969 14.042969 3.753906 13 3.753906 C 11.953125 3.753906 11.109375 2.917969 11.109375 1.890625 C 11.109375 0.859375 11.957031 0.0234375 13 0.0234375 C 14.042969 0.0273438 14.886719 0.859375 14.886719 1.890625 M 14.886719 7.40625 C 14.886719 8.433594 14.042969 9.269531 13 9.269531 C 11.953125 9.269531 11.109375 8.433594 11.109375 7.402344 C 11.109375 6.375 11.957031 5.539062 13 5.539062 C 14.042969 5.539062 14.886719 6.375 14.886719 7.40625 M 14.886719 12.847656 C 14.886719 13.878906 14.042969 14.714844 13 14.714844 C 11.953125 14.710938 11.109375 13.878906 11.109375 12.847656 C 11.109375 11.820312 11.957031 10.984375 13 10.984375 C 13.5 10.984375 13.980469 11.179688 14.335938 11.53125 C 14.691406 11.882812 14.890625 12.355469 14.886719 12.851562 M 26 7.40625 C 26 8.433594 25.152344 9.269531 24.109375 9.269531 C 23.066406 9.269531 22.21875 8.433594 22.21875 7.40625 C 22.21875 6.375 23.066406 5.539062 24.109375 5.539062 C 25.152344 5.539062 26 6.375 26 7.40625 M 3.78125 7.40625 C 3.78125 8.433594 2.933594 9.269531 1.890625 9.273438 C 0.847656 9.273438 0 8.4375 0 7.410156 C 0 6.378906 0.84375 5.542969 1.890625 5.542969 C 2.933594 5.542969 3.777344 6.375 3.78125 7.40625 M 9.371094 4.644531 C 9.375 5.675781 8.527344 6.511719 7.484375 6.511719 C 6.441406 6.515625 5.59375 5.679688 5.59375 4.652344 C 5.589844 3.621094 6.4375 2.785156 7.480469 2.785156 C 8.523438 2.785156 9.371094 3.617188 9.371094 4.648438 M 9.371094 10.089844 C 9.371094 11.121094 8.523438 11.957031 7.480469 11.957031 C 6.4375 11.957031 5.589844 11.121094 5.589844 10.089844 C 5.589844 9.0625 6.4375 8.226562 7.480469 8.226562 C 8.523438 8.226562 9.371094 9.0625 9.371094 10.089844 M 20.484375 4.648438 C 20.484375 5.679688 19.636719 6.511719 18.59375 6.511719 C 17.550781 6.511719 16.703125 5.679688 16.703125 4.648438 C 16.703125 3.617188 17.550781 2.785156 18.59375 2.785156 C 19.636719 2.785156 20.484375 3.617188 20.484375 4.648438 M 20.484375 10.089844 C 20.484375 11.121094 19.636719 11.957031 18.59375 11.957031 C 17.550781 11.957031 16.703125 11.121094 16.703125 10.089844 C 16.703125 9.0625 17.550781 8.226562 18.59375 8.226562 C 19.636719 8.226562 20.484375 9.0625 20.484375 10.089844 "/>
</g>
</svg>
