<?xml version="1.0" encoding="UTF-8"?>
<svg xmlns="http://www.w3.org/2000/svg" xmlns:xlink="http://www.w3.org/1999/xlink" width="26pt" height="26pt" viewBox="0 0 26 26" version="1.1">
<g id="surface1">
<path style=" stroke:none;fill-rule:nonzero;fill:rgb(53.333333%,74.117647%,95.294118%);fill-opacity:1;" d="M 18.886719 5.886719 C 18.886719 9.136719 16.25 11.773438 13 11.773438 C 9.75 11.773438 7.113281 9.136719 7.113281 5.886719 C 7.113281 2.636719 9.75 0 13 0 C 16.25 0 18.886719 2.636719 18.886719 5.886719 Z M 18.886719 5.886719 "/>
<path style=" stroke:none;fill-rule:nonzero;fill:rgb(18.823529%,45.882353%,93.333333%);fill-opacity:1;" d="M 18.886719 20.113281 C 18.886719 23.363281 16.25 26 13 26 C 9.75 26 7.113281 23.363281 7.113281 20.113281 C 7.113281 16.863281 9.75 14.226562 13 14.226562 C 16.25 14.226562 18.886719 16.863281 18.886719 20.113281 Z M 18.886719 20.113281 "/>
<path style=" stroke:none;fill-rule:nonzero;fill:rgb(34.117647%,58.431373%,94.509804%);fill-opacity:1;" d="M 26 13 C 26 16.25 23.363281 18.886719 20.113281 18.886719 C 16.863281 18.886719 14.226562 16.25 14.226562 13 C 14.226562 9.75 16.863281 7.113281 20.113281 7.113281 C 23.363281 7.113281 26 9.75 26 13 Z M 26 13 "/>
<path style=" stroke:none;fill-rule:nonzero;fill:rgb(12.54902%,37.254902%,92.54902%);fill-opacity:1;" d="M 11.773438 13 C 11.773438 16.25 9.136719 18.886719 5.886719 18.886719 C 2.636719 18.886719 0 16.25 0 13 C 0 9.75 2.636719 7.113281 5.886719 7.113281 C 9.136719 7.113281 11.773438 9.75 11.773438 13 Z M 11.773438 13 "/>
<path style=" stroke:none;fill-rule:nonzero;fill:rgb(7.45098%,29.411765%,93.72549%);fill-opacity:1;" d="M 11.613281 11.613281 C 9.476562 11.09375 7.804688 9.425781 7.285156 7.285156 C 9.417969 7.8125 11.085938 9.480469 11.613281 11.613281 Z M 11.613281 11.613281 "/>
<path style=" stroke:none;fill-rule:nonzero;fill:rgb(3.529412%,19.607843%,90.980392%);fill-opacity:1;" d="M 7.273438 18.726562 C 7.792969 16.589844 9.460938 14.917969 11.601562 14.398438 C 11.074219 16.53125 9.40625 18.199219 7.273438 18.726562 Z M 7.273438 18.726562 "/>
<path style=" stroke:none;fill-rule:nonzero;fill:rgb(8.627451%,29.411765%,91.764706%);fill-opacity:1;" d="M 14.386719 14.386719 C 16.523438 14.90625 18.195312 16.574219 18.714844 18.714844 C 16.582031 18.1875 14.914062 16.519531 14.386719 14.386719 Z M 14.386719 14.386719 "/>
<path style=" stroke:none;fill-rule:nonzero;fill:rgb(19.215686%,43.921569%,94.509804%);fill-opacity:1;" d="M 18.726562 7.273438 C 18.207031 9.410156 16.539062 11.082031 14.398438 11.601562 C 14.925781 9.46875 16.59375 7.800781 18.726562 7.273438 Z M 18.726562 7.273438 "/>
</g>
</svg>
