<?xml version="1.0" encoding="UTF-8"?>
<svg xmlns="http://www.w3.org/2000/svg" xmlns:xlink="http://www.w3.org/1999/xlink" width="26pt" height="26pt" viewBox="0 0 26 26" version="1.1">
<g id="surface1">
<path style=" stroke:none;fill-rule:evenodd;fill:rgb(10.196078%,32.54902%,94.117647%);fill-opacity:1;" d="M 26 13 C 26 20.179688 20.179688 26 13 26 C 5.820312 26 0 20.179688 0 13 C 0 5.820312 5.820312 0 13 0 C 20.179688 0 26 5.820312 26 13 Z M 26 13 "/>
<path style=" stroke:none;fill-rule:nonzero;fill:rgb(100%,100%,100%);fill-opacity:1;" d="M 9.632812 14.046875 C 7.679688 14.050781 6.097656 15.632812 6.097656 17.585938 C 6.097656 19.539062 7.679688 21.125 9.632812 21.125 C 11.585938 21.125 13.167969 19.539062 13.167969 17.585938 C 13.167969 15.632812 11.585938 14.050781 9.632812 14.046875 Z M 9.632812 20.054688 C 8.269531 20.054688 7.167969 18.949219 7.167969 17.589844 C 7.167969 16.226562 8.269531 15.121094 9.632812 15.121094 C 10.996094 15.121094 12.097656 16.226562 12.097656 17.589844 C 12.097656 18.949219 10.992188 20.050781 9.632812 20.054688 Z M 17.183594 6.5 C 15.230469 6.5 13.648438 8.085938 13.648438 10.039062 C 13.648438 11.992188 15.230469 13.574219 17.183594 13.578125 C 19.136719 13.578125 20.71875 11.992188 20.71875 10.039062 C 20.71875 8.085938 19.136719 6.5 17.183594 6.5 Z M 17.183594 12.507812 C 15.824219 12.507812 14.71875 11.402344 14.71875 10.039062 C 14.71875 8.679688 15.820312 7.574219 17.183594 7.574219 C 18.546875 7.574219 19.648438 8.679688 19.648438 10.039062 C 19.648438 11.402344 18.546875 12.503906 17.183594 12.507812 Z M 9.632812 6.5 C 7.949219 6.503906 6.5 7.6875 6.167969 9.335938 C 5.832031 10.988281 6.707031 12.644531 8.253906 13.300781 C 9.804688 13.957031 11.601562 13.425781 12.550781 12.035156 C 13.5 10.644531 13.339844 8.777344 12.164062 7.570312 L 13.167969 7.570312 L 13.167969 6.5 Z M 12.097656 10.039062 C 12.097656 11.398438 10.996094 12.503906 9.632812 12.503906 C 8.269531 12.503906 7.167969 11.398438 7.167969 10.039062 C 7.167969 8.675781 8.269531 7.574219 9.632812 7.570312 C 10.996094 7.574219 12.097656 8.675781 12.097656 10.039062 Z M 12.097656 10.039062 "/>
</g>
</svg>
