<?xml version="1.0" encoding="UTF-8"?>
<svg xmlns="http://www.w3.org/2000/svg" xmlns:xlink="http://www.w3.org/1999/xlink" width="26pt" height="24pt" viewBox="0 0 26 24" version="1.1">
<g id="surface1">
<path style=" stroke:none;fill-rule:nonzero;fill:rgb(0.784314%,57.647059%,83.921569%);fill-opacity:1;" d="M 5.910156 21.066406 C 7.464844 22.808594 9.667969 23.863281 12.027344 24 C 13.421875 23.925781 14.734375 23.34375 15.710938 22.363281 C 17.636719 20.746094 19.65625 19.246094 21.757812 17.863281 L 22.941406 17.386719 C 23.429688 17.183594 24.261719 16.703125 25.027344 15.816406 C 25.859375 14.726562 26 13.566406 26 13.160156 C 25.90625 11.867188 25.476562 10.625 24.75 9.546875 C 20.890625 16.292969 13.785156 20.636719 5.910156 21.066406 Z M 5.910156 21.066406 "/>
<path style=" stroke:none;fill-rule:nonzero;fill:rgb(92.156863%,90.196078%,21.960784%);fill-opacity:1;" d="M 8.550781 1.703125 C 9.597656 0.617188 11.058594 0 12.582031 0 C 13.550781 -0.0625 14.5 0.253906 15.222656 0.886719 C 17.21875 2.273438 19.59375 3.03125 22.039062 3.066406 C 22.664062 3.136719 23.914062 3.339844 24.75 4.363281 C 25.375 5.183594 25.445312 6.066406 25.445312 6.476562 C 25.386719 7.53125 25.152344 8.566406 24.75 9.546875 Z M 8.550781 1.703125 "/>
<path style=" stroke:none;fill-rule:nonzero;fill:rgb(72.941176%,81.960784%,27.843137%);fill-opacity:1;" d="M 5.910156 21.066406 C 5.285156 21 4.449219 20.796875 3.476562 20.386719 C 2.503906 19.976562 1.320312 19.5 0.554688 18.203125 C 0.0703125 17.386719 0 16.566406 0 16.023438 C 0.015625 14.578125 0.375 13.152344 1.042969 11.863281 C 1.707031 10.269531 2.152344 8.597656 2.363281 6.886719 L 2.710938 5.523438 C 2.917969 4.839844 3.058594 4.160156 3.546875 3.476562 L 4.308594 2.660156 C 5.574219 1.878906 7.066406 1.542969 8.550781 1.703125 C 4.523438 7.355469 3.535156 14.574219 5.910156 21.066406 Z M 5.910156 21.066406 "/>
<path style=" stroke:none;fill-rule:nonzero;fill:rgb(47.058824%,71.372549%,31.372549%);fill-opacity:1;" d="M 8.550781 1.703125 C 8.480469 1.703125 12.304688 1.910156 14.667969 2.726562 L 16.613281 3.546875 C 15.851562 3.476562 10.984375 3.273438 7.300781 6.886719 C 2.640625 11.523438 4.171875 17.863281 4.242188 18.203125 C 3.160156 16.871094 2.617188 15.199219 2.710938 13.5 C 2.894531 8.941406 5.011719 4.667969 8.550781 1.703125 Z M 8.550781 1.703125 "/>
<path style=" stroke:none;fill-rule:nonzero;fill:rgb(18.431373%,50.980392%,37.647059%);fill-opacity:1;" d="M 17.867188 18.546875 C 20.554688 13.753906 20.0625 7.847656 16.613281 3.546875 C 18.628906 3.875 20.480469 4.832031 21.898438 6.273438 C 22.734375 6.953125 23.777344 7.976562 24.75 9.546875 C 23.375 13.125 20.988281 16.25 17.867188 18.546875 Z M 17.867188 18.546875 "/>
<path style=" stroke:none;fill-rule:nonzero;fill:rgb(3.137255%,32.156863%,16.078431%);fill-opacity:1;" d="M 20.089844 6.546875 C 18.980469 4.703125 17.378906 3.886719 16.683594 3.546875 C 16.128906 3.410156 10.914062 2.589844 6.953125 6.339844 C 3.753906 9.339844 3.546875 13.226562 3.546875 13.976562 C 3.558594 16.546875 4.441406 19.039062 6.046875 21.066406 C 8.113281 21.457031 10.238281 21.457031 12.304688 21.066406 C 13.347656 20.863281 15.78125 20.453125 17.867188 18.683594 C 18.144531 18.410156 21.203125 15.613281 21.410156 11.183594 C 21.410156 10.433594 21.410156 8.523438 20.089844 6.546875 Z M 17.589844 16.433594 C 16.28125 17.824219 14.441406 18.617188 12.511719 18.613281 C 12.097656 18.613281 9.316406 18.546875 7.367188 16.296875 C 7.089844 15.953125 5.699219 14.316406 5.769531 11.863281 C 5.910156 8.589844 8.550781 6.683594 9.105469 6.273438 C 9.59375 5.933594 10.777344 5.183594 12.511719 5.113281 C 12.929688 5.046875 14.390625 4.976562 15.851562 5.796875 C 19.046875 7.5 19.1875 11.589844 19.1875 11.863281 C 19.1875 12.613281 19.1875 14.660156 17.589844 16.433594 Z M 17.589844 16.433594 "/>
</g>
</svg>
