<?xml version="1.0" encoding="UTF-8"?>
<svg xmlns="http://www.w3.org/2000/svg" xmlns:xlink="http://www.w3.org/1999/xlink" width="26pt" height="26pt" viewBox="0 0 26 26" version="1.1">
<g id="surface1">
<path style=" stroke:none;fill-rule:nonzero;fill:rgb(1.960784%,73.72549%,66.27451%);fill-opacity:1;" d="M 13.1875 0.0273438 C 13.992188 0.921875 14.863281 1.738281 15.695312 2.59375 C 15.851562 2.75 16.007812 2.710938 16.175781 2.65625 C 17.1875 2.398438 18.214844 2.140625 19.230469 1.855469 C 19.527344 1.765625 19.617188 1.828125 19.695312 2.125 C 19.945312 3.136719 20.230469 4.121094 20.488281 5.132812 C 20.554688 5.40625 20.671875 5.5625 20.96875 5.625 C 22.023438 5.886719 23.050781 6.195312 24.089844 6.457031 C 24.363281 6.519531 24.402344 6.625 24.324219 6.871094 C 24.039062 7.882812 23.777344 8.890625 23.480469 9.902344 C 23.371094 10.148438 23.445312 10.4375 23.660156 10.601562 C 24.386719 11.300781 25.078125 12.039062 25.804688 12.742188 C 26.050781 12.988281 26.078125 13.117188 25.804688 13.375 C 25.050781 14.089844 24.324219 14.839844 23.582031 15.554688 C 23.398438 15.699219 23.335938 15.949219 23.425781 16.164062 C 23.710938 17.1875 23.972656 18.222656 24.257812 19.234375 C 24.347656 19.542969 24.257812 19.660156 23.960938 19.726562 C 22.945312 19.972656 21.957031 20.257812 20.945312 20.503906 C 20.660156 20.570312 20.515625 20.683594 20.449219 20.984375 C 20.203125 21.980469 19.890625 22.980469 19.644531 23.976562 C 19.566406 24.273438 19.449219 24.328125 19.164062 24.25 C 18.164062 23.964844 17.164062 23.71875 16.160156 23.417969 C 15.910156 23.320312 15.625 23.398438 15.460938 23.613281 C 14.730469 24.367188 13.980469 25.078125 13.265625 25.832031 C 13.03125 26.0625 12.898438 26.050781 12.679688 25.816406 C 11.964844 25.078125 11.238281 24.367188 10.523438 23.628906 C 10.347656 23.402344 10.046875 23.320312 9.78125 23.417969 C 8.78125 23.703125 7.765625 23.9375 6.765625 24.222656 C 6.503906 24.300781 6.414062 24.234375 6.351562 23.976562 C 6.089844 22.953125 5.804688 21.957031 5.542969 20.929688 C 5.480469 20.660156 5.363281 20.503906 5.0625 20.4375 C 4.050781 20.191406 3.0625 19.894531 2.046875 19.648438 C 1.671875 19.558594 1.621094 19.414062 1.722656 19.066406 C 2.023438 18.066406 2.269531 17.070312 2.554688 16.070312 C 2.640625 15.859375 2.570312 15.613281 2.386719 15.476562 C 1.632812 14.738281 0.90625 13.984375 0.152344 13.246094 C -0.0429688 13.050781 -0.0585938 12.933594 0.152344 12.742188 C 0.917969 12.003906 1.660156 11.238281 2.425781 10.5 C 2.609375 10.355469 2.671875 10.105469 2.582031 9.890625 C 2.296875 8.878906 2.0625 7.855469 1.761719 6.855469 C 1.660156 6.507812 1.75 6.390625 2.085938 6.3125 C 3.113281 6.066406 4.113281 5.78125 5.140625 5.523438 C 5.351562 5.488281 5.515625 5.320312 5.542969 5.109375 C 5.804688 4.097656 6.101562 3.085938 6.363281 2.074219 C 6.441406 1.777344 6.558594 1.726562 6.84375 1.804688 C 7.859375 2.089844 8.871094 2.347656 9.886719 2.632812 C 10.101562 2.71875 10.347656 2.65625 10.496094 2.476562 C 11.261719 1.699219 12.042969 0.933594 12.820312 0.167969 C 12.882812 0.136719 12.917969 0.0703125 12.914062 0 C 13.003906 0.0195312 13.09375 0.03125 13.1875 0.0273438 Z M 7.804688 5.082031 C 7.519531 5.160156 7.234375 5.238281 6.949219 5.289062 C 6.875 5.292969 6.804688 5.332031 6.761719 5.390625 C 6.714844 5.453125 6.699219 5.527344 6.714844 5.601562 C 6.726562 5.808594 6.714844 6.015625 6.714844 6.261719 C 7.128906 5.859375 7.492188 5.496094 7.859375 5.144531 C 7.867188 5.121094 7.886719 5.097656 7.910156 5.082031 C 7.875 5.074219 7.839844 5.074219 7.804688 5.082031 Z M 1.214844 12.585938 C 1.710938 12.46875 2.203125 12.351562 2.699219 12.222656 C 3.257812 12.078125 3.269531 12.039062 2.972656 11.484375 L 1.175781 12.535156 M 0.945312 13.699219 C 1.488281 14.335938 2.085938 14.90625 2.683594 15.5 C 2.933594 15.007812 2.972656 14.777344 2.800781 14.683594 C 2.191406 14.347656 1.621094 13.933594 0.957031 13.6875 M 7.597656 2.28125 C 8.039062 2.644531 8.570312 2.890625 9.054688 3.191406 C 9.613281 3.527344 9.652344 3.511719 10.039062 2.878906 C 9.226562 2.722656 8.449219 2.386719 7.597656 2.28125 M 7.507812 23.808594 C 8.351562 23.703125 9.132812 23.40625 10.078125 23.1875 C 9.742188 23.003906 9.664062 22.550781 9.324219 22.707031 C 8.703125 23.03125 8.066406 23.355469 7.507812 23.808594 C 7.46875 23.820312 7.429688 23.835938 7.375 23.847656 M 25.023438 13.765625 C 24.570312 14.011719 24.101562 14.257812 23.648438 14.503906 C 23.050781 14.828125 23.0625 14.828125 23.257812 15.460938 C 23.269531 15.480469 23.28125 15.5 23.296875 15.515625 C 23.894531 14.945312 24.480469 14.375 25.078125 13.804688 M 2.179688 18.652344 C 2.464844 18.25 2.761719 17.847656 3.050781 17.433594 C 3.582031 16.667969 3.582031 16.667969 2.90625 16.019531 C 2.894531 16.007812 2.855469 16.007812 2.816406 15.992188 L 2.113281 18.597656 M 2.125 6.84375 C 2.085938 6.84375 2.0625 6.832031 2.023438 6.832031 C 2.035156 6.871094 2.035156 6.894531 2.046875 6.933594 C 2.320312 7.972656 2.582031 8.996094 2.855469 10.03125 C 2.898438 10.058594 2.945312 10.082031 2.996094 10.097656 C 3.515625 9.539062 4.035156 8.984375 4.570312 8.4375 C 4.699219 8.296875 4.582031 8.269531 4.503906 8.21875 C 3.699219 7.765625 2.90625 7.296875 2.125 6.84375 Z M 13.875 15.707031 C 14.019531 15.773438 14.082031 15.644531 14.171875 15.539062 C 14.679688 14.945312 15.175781 14.335938 15.679688 13.75 C 15.808594 13.628906 15.839844 13.441406 15.757812 13.285156 C 15.484375 12.574219 15.226562 11.847656 14.964844 11.132812 C 14.921875 10.964844 14.777344 10.839844 14.601562 10.824219 C 13.824219 10.691406 13.03125 10.550781 12.25 10.40625 C 12.117188 10.371094 11.976562 10.421875 11.898438 10.539062 C 11.390625 11.160156 10.871094 11.78125 10.339844 12.390625 C 10.230469 12.496094 10.203125 12.660156 10.273438 12.792969 C 10.546875 13.53125 10.820312 14.28125 11.09375 15.023438 C 11.144531 15.152344 11.199219 15.253906 11.367188 15.28125 C 12.199219 15.421875 13.015625 15.566406 13.875 15.707031 Z M 8.234375 17.511719 C 8.609375 16.109375 8.976562 14.75 9.351562 13.390625 C 9.417969 13.167969 9.3125 13.140625 9.132812 13.140625 C 8.429688 13.140625 7.726562 13.15625 7.027344 13.128906 C 6.738281 13.117188 6.699219 13.21875 6.699219 13.464844 C 6.714844 14.152344 6.714844 14.839844 6.6875 15.527344 C 6.660156 16.617188 6.660156 16.617188 7.625 17.160156 C 7.804688 17.265625 8 17.367188 8.234375 17.511719 Z M 11.304688 16.238281 C 10.878906 16.964844 10.488281 17.652344 10.070312 18.339844 C 9.96875 18.507812 10.019531 18.585938 10.175781 18.675781 C 11.035156 19.167969 11.878906 19.660156 12.722656 20.167969 C 12.855469 20.265625 13.035156 20.277344 13.179688 20.191406 C 13.566406 19.972656 13.945312 19.738281 14.335938 19.53125 C 14.492188 19.441406 14.476562 19.390625 14.359375 19.273438 C 13.34375 18.273438 12.347656 17.277344 11.304688 16.238281 Z M 11.515625 6.714844 C 12.566406 7.738281 13.566406 8.710938 14.570312 9.695312 C 14.75 9.875 14.816406 9.800781 14.90625 9.628906 C 15.257812 9.019531 15.59375 8.414062 15.972656 7.816406 C 16.089844 7.621094 16.078125 7.53125 15.867188 7.414062 C 15.023438 6.933594 14.191406 6.441406 13.359375 5.9375 C 13.21875 5.828125 13.023438 5.824219 12.878906 5.925781 C 12.457031 6.183594 12.027344 6.417969 11.507812 6.714844 Z M 17.832031 8.605469 C 17.453125 10.007812 17.078125 11.378906 16.699219 12.753906 C 16.648438 12.960938 16.738281 12.972656 16.90625 12.972656 C 17.597656 12.972656 18.285156 12.949219 18.972656 12.988281 C 19.300781 13 19.363281 12.871094 19.351562 12.597656 C 19.351562 11.664062 19.351562 10.746094 19.363281 9.8125 C 19.386719 9.636719 19.296875 9.46875 19.144531 9.382812 C 18.722656 9.113281 18.292969 8.867188 17.824219 8.605469 Z M 19.285156 15.980469 C 19.285156 15.667969 19.273438 15.460938 19.285156 15.269531 C 19.3125 15.023438 19.234375 14.984375 18.988281 15.046875 C 17.726562 15.398438 16.464844 15.722656 15.191406 16.046875 C 14.996094 16.097656 14.917969 16.164062 15.050781 16.371094 C 15.414062 16.964844 15.765625 17.574219 16.089844 18.195312 C 16.21875 18.429688 16.324219 18.417969 16.53125 18.300781 C 17.179688 17.925781 17.832031 17.523438 18.507812 17.1875 C 19.105469 16.914062 19.5 16.589844 19.28125 15.980469 Z M 6.777344 10.121094 C 6.777344 10.421875 6.792969 10.617188 6.777344 10.796875 C 6.738281 11.09375 6.84375 11.121094 7.117188 11.042969 C 8.351562 10.707031 9.585938 10.371094 10.820312 10.058594 C 11.082031 9.992188 11.121094 9.929688 10.976562 9.695312 C 10.625 9.125 10.289062 8.542969 9.976562 7.945312 C 9.859375 7.726562 9.769531 7.648438 9.519531 7.804688 C 8.871094 8.191406 8.234375 8.582031 7.546875 8.917969 C 6.960938 9.191406 6.558594 9.515625 6.777344 10.121094 Z M 14.277344 15.734375 C 14.707031 15.980469 15.121094 15.890625 15.539062 15.773438 C 16.511719 15.5 17.488281 15.242188 18.460938 14.984375 C 19.269531 14.761719 19.269531 14.777344 19.28125 13.960938 C 19.28125 13.804688 19.308594 13.636719 19.320312 13.480469 C 19.347656 13.246094 19.28125 13.140625 19.019531 13.140625 C 18.410156 13.15625 17.800781 13.140625 17.203125 13.140625 C 16.605469 13.140625 16.605469 13.140625 16.433594 13.726562 C 16.382812 13.90625 16.421875 14.207031 16.199219 14.242188 C 15.980469 14.28125 16.070312 13.933594 15.890625 13.816406 Z M 13.796875 15.902344 C 12.976562 15.761719 12.160156 15.617188 11.328125 15.476562 C 11.328125 15.980469 11.601562 16.265625 11.886719 16.550781 C 12.628906 17.277344 13.355469 18.015625 14.09375 18.753906 C 14.65625 19.3125 14.65625 19.3125 15.371094 18.921875 C 15.511719 18.847656 15.660156 18.777344 15.8125 18.714844 C 16.046875 18.625 16.070312 18.507812 15.941406 18.289062 C 15.628906 17.769531 15.304688 17.25 15.042969 16.707031 C 14.835938 16.292969 14.601562 16.125 14.148438 16.332031 C 13.980469 16.410156 13.730469 16.5625 13.589844 16.394531 C 13.445312 16.226562 13.796875 16.125 13.796875 15.902344 Z M 11.78125 10.371094 C 11.351562 10.160156 10.964844 10.214844 10.5625 10.332031 C 9.558594 10.617188 8.558594 10.875 7.558594 11.132812 C 6.792969 11.339844 6.792969 11.339844 6.777344 12.15625 C 6.777344 12.324219 6.753906 12.507812 6.738281 12.675781 C 6.714844 12.871094 6.777344 12.960938 7.011719 12.960938 C 7.753906 12.949219 8.496094 12.960938 9.234375 12.972656 C 9.308594 12.984375 9.382812 12.96875 9.441406 12.921875 C 9.5 12.878906 9.539062 12.8125 9.546875 12.742188 C 9.570312 12.609375 9.605469 12.476562 9.652344 12.351562 C 9.714844 12.183594 9.664062 11.898438 9.859375 11.871094 C 10.078125 11.847656 10 12.183594 10.183594 12.3125 C 10.703125 11.664062 11.238281 11.015625 11.78125 10.371094 Z M 10.078125 12.792969 C 9.746094 13.027344 9.519531 13.378906 9.441406 13.777344 C 9.222656 14.722656 8.949219 15.644531 8.6875 16.578125 C 8.597656 16.902344 8.402344 17.25 8.46875 17.535156 C 8.535156 17.847656 8.988281 17.886719 9.261719 18.082031 C 9.363281 18.144531 9.457031 18.222656 9.558594 18.289062 C 9.730469 18.417969 9.832031 18.390625 9.9375 18.195312 C 10.171875 17.769531 10.417969 17.355469 10.664062 16.941406 C 10.820312 16.667969 11.066406 16.410156 11.09375 16.136719 C 11.121094 15.8125 10.703125 15.667969 10.523438 15.421875 C 10.46875 15.347656 10.351562 15.292969 10.40625 15.191406 C 10.457031 15.085938 10.574219 15.125 10.664062 15.136719 C 10.9375 15.191406 10.949219 15.097656 10.871094 14.867188 C 10.585938 14.207031 10.339844 13.503906 10.078125 12.792969 Z M 15.136719 10.992188 C 15.421875 11.757812 15.695312 12.519531 15.992188 13.324219 C 16.304688 13.078125 16.5 12.84375 16.589844 12.480469 C 16.835938 11.472656 17.136719 10.460938 17.398438 9.449219 C 17.472656 9.152344 17.65625 8.828125 17.589844 8.554688 C 17.527344 8.28125 17.097656 8.230469 16.863281 8.050781 C 16.78125 7.996094 16.703125 7.941406 16.628906 7.882812 C 16.394531 7.699219 16.238281 7.671875 16.082031 7.984375 C 15.824219 8.503906 15.511719 8.984375 15.214844 9.488281 C 14.902344 10.03125 14.902344 10.019531 15.332031 10.460938 C 15.460938 10.589844 15.71875 10.707031 15.65625 10.875 C 15.59375 11.09375 15.316406 10.863281 15.136719 10.992188 Z M 14.746094 10.628906 C 14.714844 10.25 14.542969 9.898438 14.265625 9.644531 C 13.523438 8.945312 12.808594 8.203125 12.085938 7.480469 C 11.851562 7.257812 11.671875 6.910156 11.371094 6.84375 C 11.113281 6.792969 10.863281 7.101562 10.59375 7.21875 C 10.476562 7.273438 10.359375 7.335938 10.226562 7.386719 C 10.007812 7.480469 9.992188 7.582031 10.109375 7.789062 C 10.421875 8.296875 10.707031 8.8125 10.996094 9.332031 C 11.332031 9.914062 11.320312 9.902344 11.96875 9.746094 C 12.125 9.707031 12.332031 9.539062 12.464844 9.695312 C 12.605469 9.875 12.308594 9.96875 12.269531 10.121094 C 12.253906 10.148438 12.269531 10.175781 12.269531 10.199219 C 13.082031 10.355469 13.90625 10.484375 14.746094 10.628906 Z M 21.476562 17.832031 C 22.296875 18.3125 23.152344 18.820312 24.089844 19.375 C 23.777344 18.222656 23.492188 17.160156 23.21875 16.109375 C 22.621094 16.679688 22.0625 17.25 21.476562 17.832031 Z M 5.386719 20.359375 C 5.167969 19.542969 4.972656 18.820312 4.777344 18.082031 C 4.738281 17.949219 4.6875 17.9375 4.582031 18.003906 C 3.75 18.46875 2.933594 18.9375 2.023438 19.453125 C 3.179688 19.753906 4.230469 20.039062 5.386719 20.359375 Z M 21.320312 8.191406 C 22.21875 7.6875 23.089844 7.195312 24.039062 6.664062 C 22.867188 6.351562 21.800781 6.054688 20.671875 5.753906 C 20.890625 6.597656 21.101562 7.386719 21.320312 8.191406 Z M 12.953125 0.480469 C 12.914062 0.453125 12.886719 0.429688 12.847656 0.402344 C 12.121094 1.15625 11.390625 1.90625 10.65625 2.65625 C 10.617188 2.707031 10.582031 2.757812 10.554688 2.8125 C 11.292969 3.019531 12.007812 3.214844 12.710938 3.410156 C 12.878906 3.460938 12.957031 3.410156 12.957031 3.214844 Z M 13.109375 25.621094 L 13.226562 25.699219 C 13.925781 24.960938 14.640625 24.234375 15.34375 23.496094 C 15.433594 23.40625 15.589844 23.304688 15.316406 23.238281 C 14.65625 23.070312 13.992188 22.875 13.328125 22.695312 C 13.1875 22.65625 13.09375 22.667969 13.09375 22.847656 C 13.109375 23.78125 13.109375 24.703125 13.109375 25.621094 Z M 19.527344 11.664062 L 19.527344 12.675781 C 19.527344 12.765625 19.449219 12.894531 19.59375 12.949219 C 19.734375 13 19.839844 12.921875 19.917969 12.792969 C 20.359375 12.132812 20.816406 11.484375 21.269531 10.835938 C 21.375 10.679688 21.375 10.589844 21.191406 10.5 C 20.722656 10.253906 20.269531 9.992188 19.828125 9.722656 C 19.605469 9.589844 19.554688 9.667969 19.554688 9.890625 M 6.53125 14.375 C 6.53125 14.050781 6.542969 13.726562 6.53125 13.402344 C 6.53125 13.3125 6.621094 13.167969 6.441406 13.140625 C 6.316406 13.117188 6.195312 13.183594 6.140625 13.296875 C 5.699219 13.960938 5.246094 14.605469 4.789062 15.253906 C 4.671875 15.421875 4.671875 15.515625 4.867188 15.617188 C 5.324219 15.851562 5.765625 16.109375 6.207031 16.371094 C 6.453125 16.523438 6.492188 16.421875 6.492188 16.1875 M 6.726562 8.050781 C 6.726562 8.308594 6.738281 8.554688 6.726562 8.8125 C 6.714844 9.035156 6.738281 9.152344 7 8.996094 L 9.457031 7.597656 C 9.535156 7.542969 9.675781 7.53125 9.636719 7.375 C 9.597656 7.21875 9.488281 7.21875 9.355469 7.207031 C 8.785156 7.167969 8.199219 7.101562 7.628906 7.0625 C 6.730469 7 6.730469 7 6.730469 7.917969 Z M 19.332031 18.027344 C 19.332031 17.78125 19.320312 17.550781 19.332031 17.300781 C 19.359375 17.03125 19.28125 16.964844 19.035156 17.109375 C 18.226562 17.574219 17.421875 18.027344 16.605469 18.480469 C 16.511719 18.535156 16.371094 18.546875 16.410156 18.703125 C 16.449219 18.859375 16.550781 18.871094 16.683594 18.882812 C 17.203125 18.921875 17.734375 18.972656 18.253906 19.011719 C 19.332031 19.105469 19.332031 19.105469 19.332031 18.027344 Z M 12.78125 20.4375 C 11.847656 19.894531 10.964844 19.363281 10.066406 18.84375 C 9.988281 18.804688 9.910156 18.714844 9.820312 18.804688 C 9.703125 18.910156 9.742188 19.011719 9.808594 19.128906 C 10.15625 19.84375 10.507812 20.554688 10.832031 21.269531 C 10.9375 21.515625 11.054688 21.476562 11.222656 21.359375 C 11.71875 21.0625 12.222656 20.761719 12.78125 20.4375 Z M 13.277344 5.664062 C 14.199219 6.210938 15.070312 6.726562 15.953125 7.234375 C 16.046875 7.285156 16.136719 7.425781 16.265625 7.285156 C 16.371094 7.167969 16.304688 7.050781 16.253906 6.949219 C 15.914062 6.234375 15.5625 5.523438 15.226562 4.808594 C 15.160156 4.667969 15.097656 4.601562 14.925781 4.707031 C 14.40625 5.015625 13.863281 5.328125 13.277344 5.664062 Z M 16.527344 21.4375 C 15.929688 20.839844 15.34375 20.269531 14.769531 19.699219 C 14.710938 19.628906 14.601562 19.617188 14.523438 19.675781 C 14.082031 19.933594 13.652344 20.179688 13.1875 20.4375 C 13.691406 20.738281 14.199219 20.984375 14.640625 21.308594 C 15.214844 21.746094 15.796875 21.800781 16.433594 21.515625 C 16.433594 21.515625 16.449219 21.5 16.527344 21.4375 Z M 12.875 5.664062 C 12.289062 5.328125 11.71875 5.054688 11.238281 4.679688 C 10.664062 4.238281 10.144531 4.40625 9.519531 4.652344 C 10.132812 5.261719 10.714844 5.832031 11.289062 6.417969 C 11.390625 6.519531 11.46875 6.480469 11.574219 6.417969 C 11.988281 6.171875 12.40625 5.9375 12.875 5.664062 Z M 19.554688 16.589844 C 19.96875 16.355469 20.359375 16.148438 20.738281 15.929688 C 21.035156 15.761719 21.320312 15.59375 21.621094 15.4375 C 21.746094 15.378906 21.835938 15.269531 21.867188 15.136719 C 21.933594 14.851562 22.011719 14.582031 22.101562 14.242188 C 21.683594 14.347656 21.320312 14.425781 20.957031 14.542969 C 20.476562 14.699219 19.789062 14.621094 19.566406 15.023438 M 3.996094 11.871094 C 4.828125 11.652344 5.621094 11.445312 6.414062 11.238281 C 6.5 11.222656 6.558594 11.140625 6.542969 11.054688 L 6.542969 9.5 C 5.984375 9.8125 5.519531 10.148438 5 10.355469 C 4.308594 10.628906 4.050781 11.121094 3.996094 11.871094 Z M 19.386719 9.230469 C 19.386719 8.527344 19.320312 7.90625 19.398438 7.296875 C 19.488281 6.585938 19.074219 6.222656 18.578125 5.820312 C 18.359375 6.648438 18.148438 7.441406 17.929688 8.21875 C 17.910156 8.261719 17.910156 8.308594 17.925781 8.351562 C 17.941406 8.398438 17.976562 8.433594 18.019531 8.449219 C 18.453125 8.683594 18.878906 8.945312 19.386719 9.230469 Z M 6.675781 16.875 C 6.675781 17.640625 6.726562 18.328125 6.660156 19 C 6.597656 19.675781 7.105469 19.894531 7.480469 20.308594 C 7.703125 19.480469 7.894531 18.726562 8.105469 17.976562 C 8.144531 17.859375 8.183594 17.757812 8.039062 17.664062 C 7.609375 17.417969 7.183594 17.171875 6.675781 16.875 Z M 4.921875 12.949219 L 5.726562 12.949219 C 5.9375 12.949219 6.140625 12.867188 6.292969 12.71875 C 6.445312 12.570312 6.53125 12.367188 6.53125 12.15625 C 6.53125 12.003906 6.519531 11.832031 6.53125 11.679688 C 6.558594 11.445312 6.46875 11.417969 6.246094 11.472656 C 5.621094 11.652344 5.011719 11.871094 4.375 11.964844 C 3.878906 12.039062 3.789062 12.339844 3.699219 12.714844 C 3.660156 12.894531 3.710938 12.960938 3.894531 12.960938 C 4.246094 12.949219 4.582031 12.949219 4.921875 12.949219 Z M 15.96875 19.039062 C 15.601562 18.960938 15.382812 19.21875 15.097656 19.351562 C 14.863281 19.453125 14.847656 19.53125 15.03125 19.714844 C 15.484375 20.152344 15.953125 20.582031 16.371094 21.0625 C 16.667969 21.410156 16.96875 21.449219 17.359375 21.292969 C 17.550781 21.214844 17.566406 21.152344 17.472656 20.984375 C 17.164062 20.464844 16.863281 19.945312 16.578125 19.414062 C 16.433594 19.144531 16.277344 18.960938 15.96875 19.039062 Z M 20.554688 13.179688 C 20.035156 13.011719 19.773438 13.285156 19.59375 13.660156 C 19.464844 13.90625 19.566406 14.167969 19.527344 14.414062 C 19.488281 14.660156 19.605469 14.699219 19.828125 14.632812 C 20.449219 14.453125 21.074219 14.257812 21.699219 14.140625 C 22.140625 14.0625 22.257812 13.816406 22.335938 13.453125 C 22.375 13.257812 22.335938 13.179688 22.128906 13.179688 C 21.582031 13.195312 21.054688 13.179688 20.554688 13.179688 Z M 7.667969 20.359375 C 7.628906 20.570312 7.8125 20.632812 7.902344 20.761719 C 8.121094 21.0625 8.277344 21.085938 8.472656 20.710938 C 8.703125 20.238281 8.96875 19.785156 9.265625 19.351562 C 9.511719 19.011719 9.433594 18.726562 9.238281 18.441406 C 9.046875 18.15625 8.71875 18.082031 8.449219 17.910156 C 8.371094 17.859375 8.332031 17.925781 8.316406 17.988281 C 8.089844 18.78125 7.882812 19.570312 7.667969 20.359375 Z M 8.46875 4.925781 C 8.804688 5.523438 9.144531 6.105469 9.480469 6.703125 C 9.664062 7.054688 10.09375 7.203125 10.457031 7.039062 C 10.714844 6.90625 10.96875 6.757812 11.210938 6.597656 C 10.675781 6.078125 10.195312 5.601562 9.703125 5.121094 C 9.210938 4.640625 9.210938 4.628906 8.46875 4.925781 Z M 6 13.128906 L 3.933594 13.128906 C 3.828125 13.128906 3.648438 13.078125 3.710938 13.285156 C 3.867188 13.90625 4.035156 14.527344 4.21875 15.152344 C 4.269531 15.332031 4.425781 15.421875 4.570312 15.203125 C 5.039062 14.542969 5.492188 13.867188 6 13.128906 Z M 9.585938 19.167969 C 9.222656 19.804688 8.871094 20.386719 8.535156 20.96875 C 8.480469 21.0625 8.390625 21.164062 8.570312 21.214844 C 9.195312 21.386719 9.820312 21.566406 10.445312 21.707031 C 10.652344 21.761719 10.78125 21.671875 10.652344 21.410156 C 10.3125 20.683594 9.960938 19.960938 9.585938 19.167969 Z M 16.472656 6.949219 C 16.851562 6.3125 17.1875 5.730469 17.527344 5.144531 C 17.578125 5.054688 17.65625 4.9375 17.488281 4.898438 C 16.863281 4.730469 16.238281 4.550781 15.617188 4.40625 C 15.394531 4.355469 15.292969 4.460938 15.40625 4.707031 C 15.746094 5.417969 16.082031 6.15625 16.472656 6.949219 Z M 20.046875 12.972656 L 22.113281 12.972656 C 22.230469 12.972656 22.386719 13 22.320312 12.792969 C 22.167969 12.183594 22.011719 11.574219 21.828125 10.964844 C 21.761719 10.757812 21.621094 10.667969 21.453125 10.902344 C 21.023438 11.574219 20.566406 12.234375 20.046875 12.972656 Z M 17.8125 21.175781 C 18.320312 20.632812 18.789062 20.128906 19.242188 19.636719 C 19.359375 19.503906 19.464844 19.324219 19.175781 19.296875 C 18.359375 19.21875 17.527344 19.167969 16.617188 19.089844 C 17.03125 19.789062 17.382812 20.425781 17.8125 21.175781 Z M 8.273438 5.003906 C 7.753906 5.535156 7.273438 6.015625 6.804688 6.507812 C 6.699219 6.609375 6.597656 6.792969 6.84375 6.816406 C 7.675781 6.910156 8.519531 6.960938 9.441406 7.027344 C 9.027344 6.324219 8.675781 5.703125 8.273438 5.003906 Z M 0.617188 13.128906 C 0.617188 13.152344 0.609375 13.171875 0.605469 13.195312 C 1.074219 13.453125 1.527344 13.738281 1.996094 13.984375 C 2.320312 14.152344 2.699219 14.582031 2.972656 14.4375 C 3.203125 14.320312 3.191406 13.765625 3.320312 13.414062 C 3.414062 13.15625 3.320312 13.117188 3.101562 13.117188 C 2.269531 13.128906 1.449219 13.128906 0.617188 13.128906 Z M 6.777344 2.398438 C 6.753906 2.414062 6.726562 2.421875 6.699219 2.425781 C 6.699219 2.96875 6.6875 3.5 6.714844 4.042969 C 6.726562 4.40625 6.53125 4.925781 6.816406 5.082031 C 7.066406 5.210938 7.519531 4.9375 7.882812 4.847656 C 7.894531 4.847656 7.910156 4.835938 7.921875 4.835938 C 8.089844 4.808594 8.117188 4.730469 8.027344 4.589844 C 7.609375 3.851562 7.195312 3.125 6.777344 2.398438 Z M 19.28125 23.703125 C 19.308594 23.691406 19.320312 23.691406 19.347656 23.679688 L 19.347656 20.957031 C 18.929688 21.0625 18.539062 21.175781 18.148438 21.269531 C 17.957031 21.308594 17.941406 21.386719 18.035156 21.539062 C 18.453125 22.265625 18.863281 22.992188 19.28125 23.703125 Z M 25.390625 12.972656 C 25.40625 12.945312 25.417969 12.914062 25.429688 12.882812 C 24.699219 12.46875 23.972656 12.066406 23.246094 11.640625 C 23.089844 11.546875 23.035156 11.601562 22.996094 11.757812 C 22.921875 12.078125 22.84375 12.402344 22.738281 12.726562 C 22.660156 12.960938 22.765625 12.972656 22.945312 12.972656 Z M 6.53125 9.191406 L 6.53125 7.257812 C 6.53125 7.167969 6.582031 7.050781 6.480469 7.011719 C 6.378906 6.964844 6.257812 7 6.195312 7.089844 C 5.855469 7.441406 5.519531 7.777344 5.167969 8.113281 C 5.023438 8.257812 5.0625 8.335938 5.207031 8.414062 C 5.621094 8.660156 6.050781 8.917969 6.53125 9.191406 Z M 19.515625 16.914062 L 19.515625 18.84375 C 19.515625 18.9375 19.449219 19.066406 19.605469 19.117188 C 19.714844 19.132812 19.824219 19.085938 19.890625 19 C 20.214844 18.664062 20.554688 18.328125 20.890625 18.003906 C 21.023438 17.871094 21.007812 17.796875 20.855469 17.703125 C 20.425781 17.457031 20.015625 17.199219 19.515625 16.914062 Z M 13.132812 5.523438 C 13.757812 5.160156 14.316406 4.824219 14.886719 4.5 C 14.953125 4.460938 15.003906 4.421875 14.992188 4.34375 C 14.964844 4.214844 14.863281 4.1875 14.757812 4.160156 C 14.304688 4.042969 13.847656 3.929688 13.394531 3.785156 C 13.199219 3.722656 13.121094 3.773438 13.132812 3.980469 Z M 12.925781 21.476562 L 12.925781 20.917969 C 12.9375 20.710938 12.914062 20.59375 12.664062 20.75 C 12.183594 21.046875 11.691406 21.320312 11.210938 21.605469 C 11.144531 21.644531 11.054688 21.671875 11.066406 21.773438 C 11.082031 21.878906 11.160156 21.929688 11.261719 21.957031 C 11.523438 22.019531 11.78125 22.097656 12.042969 22.164062 C 12.925781 22.394531 12.925781 22.394531 12.925781 21.476562 Z M 22.167969 18.46875 C 21.28125 17.949219 21.296875 17.949219 21.035156 18.9375 C 20.96875 19.195312 21.0625 19.246094 21.269531 19.257812 C 22.0625 19.3125 22.867188 19.375 23.726562 19.441406 M 19.632812 9.382812 C 20.214844 9.722656 20.761719 10.03125 21.308594 10.332031 C 21.386719 10.371094 21.453125 10.472656 21.554688 10.40625 C 21.640625 10.332031 21.664062 10.210938 21.621094 10.109375 C 21.503906 9.644531 21.359375 9.175781 21.242188 8.710938 C 21.203125 8.554688 21.164062 8.503906 21.007812 8.59375 C 20.566406 8.851562 20.125 9.097656 19.632812 9.382812 Z M 6.441406 16.730469 C 5.828125 16.394531 5.296875 16.085938 4.765625 15.785156 C 4.6875 15.746094 4.609375 15.65625 4.503906 15.722656 C 4.402344 15.785156 4.414062 15.914062 4.441406 16.019531 C 4.554688 16.484375 4.699219 16.953125 4.816406 17.417969 C 4.855469 17.574219 4.894531 17.613281 5.050781 17.523438 C 5.492188 17.25 5.945312 17.003906 6.441406 16.730469 Z M 2.210938 19.011719 C 2.222656 19.039062 2.242188 19.058594 2.261719 19.078125 C 3.003906 18.664062 3.757812 18.234375 4.496094 17.820312 C 4.664062 17.71875 4.535156 17.652344 4.46875 17.574219 C 4.285156 17.402344 4.105469 17.222656 3.9375 17.03125 C 3.757812 16.808594 3.664062 16.886719 3.535156 17.082031 C 3.085938 17.730469 2.644531 18.367188 2.210938 19.011719 Z M 23.875 7.089844 C 23.757812 7.089844 23.730469 7.078125 23.703125 7.089844 C 23.25 7.347656 22.796875 7.597656 22.339844 7.855469 C 21.378906 8.398438 21.390625 8.386719 22.210938 9.136719 C 22.339844 9.253906 22.390625 9.253906 22.484375 9.113281 C 22.921875 8.464844 23.375 7.804688 23.867188 7.089844 Z M 19.566406 6.871094 L 19.566406 8.90625 C 19.566406 9.113281 19.644531 9.125 19.8125 9.035156 C 20.230469 8.800781 20.644531 8.566406 21.074219 8.320312 C 20.582031 7.84375 20.101562 7.386719 19.566406 6.871094 Z M 2.398438 6.765625 C 2.933594 7.078125 3.425781 7.363281 3.90625 7.648438 C 4.828125 8.191406 4.816406 8.191406 5.050781 7.128906 C 5.089844 6.949219 5.050781 6.882812 4.867188 6.871094 C 4.074219 6.832031 3.269531 6.6875 2.398438 6.765625 Z M 6.390625 9.34375 C 5.894531 9.058594 5.464844 8.800781 5.023438 8.542969 C 4.960938 8.503906 4.867188 8.476562 4.84375 8.59375 C 4.671875 9.203125 4.503906 9.8125 4.324219 10.5 C 5.050781 10.109375 5.6875 9.746094 6.390625 9.34375 Z M 6.492188 19.234375 C 6.492188 18.558594 6.480469 17.910156 6.492188 17.277344 C 6.492188 17.003906 6.414062 16.980469 6.195312 17.109375 C 5.804688 17.339844 5.402344 17.5625 4.984375 17.796875 C 5.480469 18.261719 5.960938 18.726562 6.5 19.234375 Z M 19.671875 16.769531 C 20.152344 17.054688 20.554688 17.300781 20.96875 17.535156 C 21.046875 17.585938 21.164062 17.691406 21.21875 17.511719 C 21.386719 16.902344 21.554688 16.292969 21.738281 15.605469 C 21.007812 16.007812 20.371094 16.371094 19.671875 16.769531 Z M 13.109375 20.632812 L 13.109375 22.1875 C 13.109375 22.34375 13.160156 22.382812 13.304688 22.34375 C 13.902344 22.1875 14.5 22.019531 15.175781 21.851562 C 14.460938 21.421875 13.824219 21.046875 13.109375 20.632812 Z M 10.886719 4.265625 C 11.601562 4.679688 12.25 5.070312 12.953125 5.46875 L 12.953125 3.929688 C 12.953125 3.746094 12.875 3.734375 12.730469 3.773438 C 12.132812 3.929688 11.546875 4.082031 10.886719 4.265625 Z M 12.808594 25.414062 C 12.835938 25.414062 12.847656 25.402344 12.875 25.402344 L 12.875 24.519531 C 12.875 24.222656 12.886719 23.9375 12.886719 23.640625 C 12.886719 22.601562 12.886719 22.617188 11.898438 22.902344 C 11.679688 22.964844 11.652344 23.03125 11.742188 23.226562 C 12.105469 23.949219 12.457031 24.691406 12.808594 25.414062 Z M 3.179688 11.160156 C 3.476562 10.953125 3.933594 10.902344 4.0625 10.578125 C 4.296875 10.007812 4.414062 9.382812 4.59375 8.734375 C 4.558594 8.75 4.523438 8.769531 4.492188 8.789062 C 4.128906 9.152344 3.761719 9.5 3.398438 9.863281 C 2.878906 10.394531 2.878906 10.394531 3.179688 11.160156 Z M 13.265625 0.714844 C 13.226562 0.714844 13.199219 0.726562 13.160156 0.726562 L 13.160156 2.488281 C 13.160156 3.550781 13.210938 3.578125 14.226562 3.175781 C 14.394531 3.113281 14.382812 3.035156 14.316406 2.90625 C 13.964844 2.191406 13.613281 1.453125 13.265625 0.714844 Z M 21.492188 17.238281 C 21.644531 17.277344 21.710938 17.171875 21.789062 17.109375 C 22.152344 16.757812 22.515625 16.394531 22.882812 16.03125 C 23.089844 15.824219 23.113281 15.269531 22.921875 15.046875 C 22.894531 15.019531 22.863281 15.003906 22.828125 14.996094 C 22.648438 14.984375 21.972656 15.5 21.917969 15.707031 C 21.777344 16.199219 21.632812 16.707031 21.492188 17.238281 Z M 6.480469 20.59375 C 6.375 20.21875 6.636719 19.816406 6.363281 19.492188 C 5.984375 19.039062 5.542969 18.652344 5.128906 18.234375 C 5.179688 18.753906 5.335938 19.21875 5.414062 19.714844 C 5.492188 20.296875 5.804688 20.582031 6.375 20.621094 C 6.375 20.621094 6.390625 20.605469 6.480469 20.59375 Z M 20.929688 7.855469 C 20.953125 7.84375 20.976562 7.832031 20.996094 7.816406 C 20.839844 7.21875 20.683594 6.625 20.527344 6.039062 C 20.449219 5.742188 20.007812 5.457031 19.710938 5.523438 C 19.671875 5.523438 19.636719 5.542969 19.617188 5.574219 C 19.539062 5.679688 19.59375 6.519531 19.683594 6.625 C 20.101562 7.027344 20.515625 7.441406 20.929688 7.855469 Z M 12.457031 3.644531 L 12.457031 3.550781 C 11.808594 3.371094 11.144531 3.203125 10.496094 3.035156 C 10.351562 2.996094 9.808594 3.410156 9.792969 3.550781 C 9.792969 3.578125 9.808594 3.644531 9.832031 3.65625 C 10.171875 3.8125 10.429688 4.1875 10.871094 4.082031 C 11.40625 3.929688 11.9375 3.785156 12.457031 3.644531 Z M 13.601562 22.472656 C 13.605469 22.503906 13.597656 22.535156 13.589844 22.5625 C 14.226562 22.734375 14.875 22.914062 15.511719 23.082031 C 15.679688 23.121094 16.226562 22.746094 16.253906 22.578125 C 16.253906 22.542969 16.242188 22.503906 16.226562 22.472656 C 15.890625 22.316406 15.640625 21.957031 15.226562 22.046875 C 14.6875 22.164062 14.132812 22.332031 13.601562 22.472656 Z M 2.582031 6.429688 C 2.582031 6.453125 2.578125 6.472656 2.566406 6.496094 C 3.335938 6.558594 4.101562 6.609375 4.855469 6.675781 C 5 6.6875 5.152344 6.726562 5.207031 6.519531 C 5.269531 6.261719 5.335938 6.015625 5.414062 5.703125 C 4.441406 5.949219 3.507812 6.195312 2.582031 6.429688 Z M 23.492188 19.675781 C 23.480469 19.660156 23.480469 19.636719 23.464844 19.621094 C 22.710938 19.558594 21.972656 19.503906 21.21875 19.453125 C 21.074219 19.441406 20.90625 19.390625 20.855469 19.597656 C 20.789062 19.855469 20.722656 20.128906 20.644531 20.4375 C 21.632812 20.167969 22.554688 19.921875 23.492188 19.675781 Z M 12.496094 25.273438 C 12.25 24.742188 11.988281 24.210938 11.742188 23.679688 C 11.429688 23.019531 11.429688 23.03125 10.714844 23.226562 C 10.46875 23.289062 10.457031 23.355469 10.636719 23.511719 C 11.25 24.082031 11.875 24.664062 12.496094 25.273438 Z M 23.933594 7.570312 C 23.894531 7.558594 23.855469 7.53125 23.816406 7.519531 C 23.53125 7.917969 23.257812 8.320312 22.972656 8.722656 C 22.453125 9.476562 22.453125 9.476562 23.140625 10.097656 C 23.152344 10.109375 23.191406 10.109375 23.230469 10.121094 C 23.480469 9.269531 23.699219 8.414062 23.933594 7.570312 Z M 15.539062 2.800781 C 15.332031 2.4375 13.953125 1.089844 13.628906 0.960938 C 13.847656 1.441406 14.054688 1.867188 14.265625 2.308594 C 14.65625 3.125 14.667969 3.125 15.523438 2.828125 C 15.527344 2.816406 15.53125 2.808594 15.539062 2.800781 Z M 19.539062 20.113281 C 19.554688 20.75 19.4375 20.722656 20.125 20.554688 C 20.359375 20.492188 20.761719 19.765625 20.660156 19.503906 C 20.554688 19.246094 20.253906 19.375 20.046875 19.363281 C 19.644531 19.324219 19.539062 19.503906 19.539062 20.113281 Z M 6.519531 6 L 6.519531 5.847656 C 6.558594 5.523438 6.480469 5.355469 6.101562 5.507812 C 5.882812 5.601562 5.621094 5.5625 5.570312 5.898438 C 5.53125 6.132812 5.453125 6.363281 5.402344 6.597656 C 5.386719 6.675781 5.441406 6.703125 5.519531 6.726562 C 6.167969 6.960938 6.519531 6.703125 6.519531 6 Z M 23.152344 10.433594 C 23.011719 10.214844 22.765625 10.046875 22.582031 9.824219 C 22.4375 9.65625 22.320312 9.605469 22.207031 9.851562 C 22.140625 9.96875 22.0625 10.070312 21.984375 10.1875 C 21.914062 10.273438 21.882812 10.382812 21.898438 10.488281 C 21.910156 10.597656 21.972656 10.695312 22.0625 10.757812 C 22.292969 10.921875 22.535156 11.0625 22.789062 11.1875 C 22.882812 11.238281 22.945312 11.210938 22.972656 11.121094 C 23.035156 10.886719 23.089844 10.679688 23.152344 10.433594 Z M 10.378906 23.109375 C 10.652344 23.042969 10.9375 22.964844 11.222656 22.886719 C 11.289062 22.875 11.351562 22.808594 11.300781 22.734375 C 11.121094 22.472656 11.144531 22.046875 10.714844 21.992188 C 10.601562 21.980469 9.78125 22.371094 9.730469 22.472656 C 9.710938 22.496094 9.707031 22.523438 9.714844 22.550781 C 9.714844 22.640625 10.25 23.09375 10.378906 23.109375 Z M 15.707031 2.996094 C 15.40625 3.074219 15.136719 3.136719 14.863281 3.214844 C 14.824219 3.226562 14.757812 3.265625 14.757812 3.304688 C 14.695312 3.539062 15.226562 4.1875 15.445312 4.109375 C 15.75 3.976562 16.042969 3.816406 16.316406 3.628906 C 16.34375 3.601562 16.355469 3.5625 16.34375 3.527344 C 16.136719 3.359375 15.992188 3.085938 15.707031 2.996094 Z M 19.539062 23.289062 C 19.566406 23.289062 19.605469 23.304688 19.632812 23.304688 C 19.867188 22.460938 20.085938 21.605469 20.332031 20.710938 C 20.191406 20.753906 20.050781 20.789062 19.90625 20.816406 C 19.59375 20.839844 19.515625 20.996094 19.527344 21.292969 C 19.554688 21.957031 19.539062 22.628906 19.539062 23.289062 Z M 6.519531 2.828125 C 6.492188 2.8125 6.453125 2.8125 6.429688 2.800781 C 6.195312 3.644531 5.960938 4.5 5.726562 5.367188 C 6.519531 5.261719 6.519531 5.261719 6.519531 4.550781 Z M 4.160156 15.773438 C 4.160156 15.476562 3.574219 14.929688 3.25 14.945312 C 2.964844 14.957031 3.066406 15.292969 2.976562 15.476562 C 2.964844 15.5 2.964844 15.527344 2.949219 15.554688 C 2.925781 15.695312 3.5625 16.472656 3.691406 16.449219 C 3.703125 16.449219 3.71875 16.433594 3.730469 16.433594 C 3.898438 16.199219 4.074219 15.992188 4.160156 15.773438 Z M 19.675781 2.8125 L 19.597656 2.8125 C 19.597656 3.460938 19.636719 4.109375 19.585938 4.757812 C 19.546875 5.199219 19.726562 5.339844 20.105469 5.40625 C 20.300781 5.445312 20.363281 5.417969 20.3125 5.222656 C 20.101562 4.421875 19.890625 3.617188 19.671875 2.8125 Z M 5.691406 20.699219 C 5.925781 21.566406 6.148438 22.410156 6.382812 23.25 C 6.40625 23.25 6.433594 23.238281 6.460938 23.238281 L 6.460938 21.476562 C 6.460938 20.828125 6.460938 20.828125 5.835938 20.683594 C 5.804688 20.671875 5.777344 20.683594 5.6875 20.699219 Z M 18.558594 2.359375 L 18.519531 2.28125 C 17.816406 2.464844 17.128906 2.632812 16.441406 2.828125 C 16.335938 2.851562 16.050781 2.8125 16.152344 3.019531 C 16.257812 3.226562 16.425781 3.566406 16.6875 3.4375 C 17.320312 3.113281 17.933594 2.710938 18.554688 2.359375 Z M 0.996094 12.378906 C 1.488281 12.105469 1.945312 11.859375 2.386719 11.601562 C 2.984375 11.261719 2.984375 11.261719 2.800781 10.601562 C 2.800781 10.589844 2.761719 10.578125 2.722656 10.539062 C 2.152344 11.132812 1.59375 11.730469 0.996094 12.378906 Z M 18.332031 23.835938 C 18.34375 23.792969 18.363281 23.753906 18.382812 23.71875 L 16.980469 22.902344 C 16.460938 22.589844 16.304688 22.640625 16.03125 23.226562 C 16.796875 23.433594 17.566406 23.628906 18.332031 23.835938 Z M 25.011719 12.429688 C 25.023438 12.417969 25.023438 12.390625 25.039062 12.378906 C 24.464844 11.808594 23.894531 11.238281 23.308594 10.667969 C 23.308594 10.914062 22.957031 11.210938 23.246094 11.417969 C 23.804688 11.792969 24.414062 12.09375 25.011719 12.429688 Z M 25.0625 13.234375 C 25.050781 13.21875 25.042969 13.199219 25.039062 13.179688 L 22.945312 13.179688 C 22.828125 13.179688 22.621094 13.140625 22.699219 13.363281 C 22.75 13.519531 22.660156 13.855469 22.984375 13.777344 C 23.6875 13.609375 24.375 13.414062 25.0625 13.234375 Z M 1.058594 12.859375 C 1.058594 12.882812 1.074219 12.921875 1.074219 12.949219 L 3.191406 12.949219 C 3.347656 12.949219 3.4375 12.882812 3.375 12.742188 C 3.308594 12.597656 3.414062 12.25 3.074219 12.324219 C 2.386719 12.496094 1.722656 12.6875 1.058594 12.859375 Z M 6.636719 23.238281 C 6.648438 23.238281 6.660156 23.25 6.675781 23.25 C 6.816406 22.707031 6.972656 22.148438 7.117188 21.605469 C 7.257812 21.0625 7.273438 21.046875 6.699219 20.929688 C 6.6875 20.929688 6.660156 20.957031 6.621094 20.96875 C 6.636719 21.722656 6.636719 22.472656 6.636719 23.238281 Z M 19.425781 2.929688 L 19.363281 2.929688 C 19.195312 3.578125 19.011719 4.214844 18.84375 4.859375 C 18.753906 5.222656 19.089844 5.09375 19.234375 5.160156 C 19.46875 5.277344 19.417969 5.054688 19.417969 4.9375 C 19.425781 4.265625 19.425781 3.605469 19.425781 2.929688 Z M 7.375 2.75 C 7.335938 2.773438 7.296875 2.8125 7.257812 2.839844 C 7.585938 3.410156 7.910156 3.96875 8.234375 4.539062 C 8.3125 4.679688 8.402344 4.667969 8.46875 4.550781 C 8.546875 4.40625 8.910156 4.355469 8.6875 4.097656 C 8.273438 3.628906 7.820312 3.191406 7.375 2.75 Z M 6.910156 23.148438 C 7.066406 23.160156 7.078125 23.058594 7.128906 22.980469 C 7.414062 22.5 7.6875 22.03125 7.960938 21.554688 C 8.011719 21.460938 8.195312 21.292969 7.933594 21.253906 C 7.78125 21.242188 7.519531 20.929688 7.414062 21.308594 C 7.234375 21.917969 7.078125 22.539062 6.910156 23.148438 Z M 19.136719 2.996094 C 19.105469 2.980469 19.070312 2.972656 19.035156 2.96875 C 18.710938 3.527344 18.382812 4.070312 18.058594 4.628906 C 18.007812 4.71875 17.929688 4.859375 18.113281 4.859375 C 18.292969 4.859375 18.527344 5.144531 18.617188 4.847656 C 18.824219 4.238281 18.972656 3.605469 19.136719 2.996094 Z M 18.671875 23.328125 C 18.730469 23.203125 18.710938 23.054688 18.617188 22.953125 L 17.878906 21.671875 C 17.824219 21.578125 17.761719 21.347656 17.617188 21.566406 C 17.511719 21.695312 17.164062 21.761719 17.410156 22.046875 C 17.8125 22.472656 18.226562 22.902344 18.671875 23.328125 Z M 16.636719 22.460938 C 17.285156 22.835938 17.855469 23.1875 18.441406 23.535156 C 18.507812 23.34375 18.363281 23.277344 18.273438 23.1875 C 17.972656 22.875 17.648438 22.589844 17.363281 22.265625 C 17.167969 22.058594 17.039062 22.03125 16.867188 22.265625 C 16.824219 22.332031 16.746094 22.371094 16.636719 22.460938 Z M 24.863281 13.609375 C 24.210938 13.636719 23.613281 13.816406 23.015625 13.996094 C 22.78125 14.074219 22.964844 14.296875 22.976562 14.4375 C 22.988281 14.527344 23.027344 14.632812 23.160156 14.554688 C 23.726562 14.242188 24.285156 13.921875 24.855469 13.609375 Z M 7.667969 2.65625 C 7.65625 2.683594 7.640625 2.722656 7.628906 2.75 C 7.980469 3.097656 8.34375 3.4375 8.667969 3.796875 C 8.890625 4.042969 9.046875 4.03125 9.214844 3.785156 C 9.253906 3.722656 9.34375 3.695312 9.332031 3.578125 C 8.78125 3.304688 8.273438 2.890625 7.667969 2.65625 Z M 3.585938 13.542969 C 3.132812 14.851562 3.003906 14.582031 3.988281 15.0625 C 3.839844 14.527344 3.710938 14.035156 3.582031 13.542969 Z M 22.0625 11.015625 C 22.21875 11.585938 22.347656 12.078125 22.503906 12.675781 C 22.945312 11.472656 22.945312 11.472656 22.0625 11.015625 Z M 10.289062 21.878906 C 9.730469 21.722656 9.210938 21.59375 8.648438 21.4375 C 9.402344 22.433594 9.429688 22.449219 10.289062 21.878906 Z M 17.449219 4.679688 C 16.355469 3.527344 16.722656 3.65625 15.785156 4.226562 C 16.332031 4.382812 16.835938 4.523438 17.449219 4.679688 Z M 19.347656 20.011719 C 19.035156 20.320312 18.683594 20.660156 18.359375 20.96875 C 19.292969 20.957031 19.386719 20.867188 19.347656 20.011719 Z M 6.714844 19.855469 C 6.542969 20.59375 6.597656 20.699219 7.089844 20.800781 C 7.167969 20.816406 7.296875 20.945312 7.351562 20.761719 C 7.390625 20.644531 7.429688 20.542969 7.3125 20.4375 C 7.117188 20.257812 6.921875 20.0625 6.714844 19.855469 Z M 19.320312 6.351562 C 19.5 5.507812 19.464844 5.394531 18.980469 5.300781 C 18.890625 5.289062 18.773438 5.210938 18.710938 5.367188 C 18.652344 5.472656 18.675781 5.605469 18.761719 5.691406 C 18.941406 5.886719 19.105469 6.09375 19.320312 6.351562 Z M 10.328125 4.199219 C 9.613281 3.683594 9.597656 3.683594 9.285156 4.019531 C 9.222656 4.082031 9.078125 4.136719 9.171875 4.277344 C 9.226562 4.40625 9.375 4.46875 9.507812 4.421875 C 9.753906 4.328125 10.027344 4.277344 10.328125 4.199219 Z M 22.128906 15.097656 C 22.816406 14.867188 22.894531 14.761719 22.738281 14.320312 C 22.710938 14.230469 22.710938 14.101562 22.554688 14.113281 C 22.4375 14.128906 22.335938 14.167969 22.308594 14.28125 C 22.242188 14.542969 22.113281 14.800781 22.128906 15.097656 Z M 3.972656 10.992188 C 3.191406 11.316406 3.164062 11.339844 3.308594 11.769531 C 3.335938 11.859375 3.335938 12.003906 3.476562 12.003906 C 3.621094 12.015625 3.75 11.910156 3.769531 11.769531 C 3.828125 11.535156 3.898438 11.289062 3.972656 10.992188 Z M 4.257812 16.097656 C 3.726562 16.695312 3.75 16.769531 4.59375 17.367188 C 4.476562 16.925781 4.375 16.511719 4.257812 16.097656 Z M 15.734375 21.902344 C 16.449219 22.421875 16.449219 22.421875 16.761719 22.085938 C 16.824219 22.007812 16.96875 21.957031 16.890625 21.824219 C 16.820312 21.703125 16.671875 21.644531 16.539062 21.695312 C 16.292969 21.773438 16.03125 21.824219 15.734375 21.902344 Z M 11.289062 22.148438 C 11.523438 22.863281 11.679688 22.902344 12.523438 22.472656 C 12.105469 22.371094 11.730469 22.265625 11.289062 22.148438 Z M 5.089844 7.789062 C 5.363281 7.542969 5.660156 7.285156 5.960938 7.011719 C 5.285156 6.804688 5.21875 6.871094 5.089844 7.789062 Z M 20.984375 18.183594 C 20.660156 18.519531 20.347656 18.765625 20.101562 19.117188 C 20.828125 19.246094 20.75 19.390625 20.984375 18.183594 Z M 20.984375 18.183594 "/>
<path style=" stroke:none;fill-rule:nonzero;fill:rgb(100%,100%,100%);fill-opacity:1;" d="M 17.707031 8.257812 C 17.320312 7.996094 16.835938 7.894531 16.667969 7.386719 C 16.601562 7.242188 16.605469 7.074219 16.683594 6.933594 C 17.019531 6.378906 17.34375 5.820312 17.65625 5.261719 C 17.785156 5.042969 17.863281 5.082031 18.035156 5.222656 C 18.320312 5.46875 18.421875 5.714844 18.292969 6.09375 C 18.074219 6.804688 17.902344 7.53125 17.707031 8.257812 Z M 19.113281 2.296875 C 19.097656 2.59375 18.890625 2.800781 18.761719 3.035156 C 18.449219 3.578125 18.125 4.121094 17.8125 4.667969 C 17.460938 4.304688 17.148438 3.96875 16.8125 3.617188 C 17.550781 3.191406 18.304688 2.683594 19.113281 2.296875 Z M 6.921875 23.78125 C 7.363281 23.003906 7.804688 22.214844 8.246094 21.421875 C 8.648438 21.746094 8.949219 22.109375 9.300781 22.472656 C 8.496094 22.925781 7.753906 23.417969 6.949219 23.808594 Z M 6.921875 23.78125 "/>
<path style=" stroke:none;fill-rule:nonzero;fill:rgb(1.960784%,73.72549%,66.27451%);fill-opacity:1;" d="M 14.730469 3.914062 C 14.328125 3.902344 13.980469 3.734375 13.589844 3.644531 C 14.265625 3.164062 14.589844 3.253906 14.730469 3.914062 Z M 21.554688 8.839844 C 21.632812 8.90625 21.722656 8.96875 21.800781 9.046875 C 22.242188 9.488281 22.242188 9.488281 21.839844 10.007812 C 21.699219 9.851562 21.710938 9.644531 21.644531 9.476562 C 21.589844 9.285156 21.546875 9.089844 21.515625 8.890625 C 21.527344 8.871094 21.539062 8.855469 21.554688 8.839844 Z M 6.886719 23.835938 C 6.902344 23.820312 6.914062 23.796875 6.925781 23.78125 L 6.953125 23.808594 M 2.046875 6.933594 C 2.035156 6.894531 2.035156 6.871094 2.023438 6.832031 C 2.0625 6.832031 2.085938 6.84375 2.125 6.84375 C 2.101562 6.871094 2.078125 6.910156 2.046875 6.933594 Z M 2.046875 6.933594 "/>
</g>
</svg>
