<?xml version="1.0" encoding="UTF-8"?>
<svg xmlns="http://www.w3.org/2000/svg" xmlns:xlink="http://www.w3.org/1999/xlink" width="26pt" height="26pt" viewBox="0 0 26 26" version="1.1">
<g id="surface1">
<path style=" stroke:none;fill-rule:nonzero;fill:rgb(8.235294%,15.294118%,26.27451%);fill-opacity:1;" d="M 26 13 C 26 20.179688 20.179688 26 13 26 C 5.820312 26 0 20.179688 0 13 C 0 5.820312 5.820312 0 13 0 C 20.179688 0 26 5.820312 26 13 Z M 26 13 "/>
<path style=" stroke:none;fill-rule:nonzero;fill:rgb(100%,100%,100%);fill-opacity:1;" d="M 13.039062 6.757812 C 11.96875 6.757812 11.105469 6.160156 11.105469 5.425781 C 11.105469 4.691406 11.96875 4.09375 13.039062 4.09375 C 14.109375 4.09375 14.976562 4.691406 14.976562 5.425781 C 14.976562 6.160156 14.109375 6.757812 13.039062 6.757812 Z M 12.039062 21.613281 L 12.039062 7.398438 L 16.355469 7.398438 C 16.515625 7.398438 16.628906 7.515625 16.628906 7.675781 L 16.628906 15.5625 C 16.628906 15.722656 16.511719 15.859375 16.355469 15.859375 L 13.976562 15.859375 L 13.976562 21.613281 C 13.976562 21.773438 13.851562 21.917969 13.691406 21.917969 L 12.335938 21.917969 C 12.171875 21.910156 12.042969 21.777344 12.039062 21.613281 Z M 11.308594 15.859375 L 9.675781 15.859375 C 9.511719 15.859375 9.378906 15.726562 9.371094 15.5625 L 9.371094 7.675781 C 9.371094 7.515625 9.515625 7.398438 9.675781 7.398438 L 11.308594 7.398438 Z M 11.308594 15.859375 "/>
</g>
</svg>
