<?xml version="1.0" encoding="UTF-8"?>
<svg xmlns="http://www.w3.org/2000/svg" xmlns:xlink="http://www.w3.org/1999/xlink" width="26pt" height="26pt" viewBox="0 0 26 26" version="1.1">
<g id="surface1">
<path style=" stroke:none;fill-rule:evenodd;fill:rgb(20.784314%,33.333333%,97.647059%);fill-opacity:1;" d="M 26 13 C 26 20.179688 20.179688 26 13 26 C 5.820312 26 0 20.179688 0 13 C 0 5.820312 5.820312 0 13 0 C 20.179688 0 26 5.820312 26 13 Z M 26 13 "/>
<path style=" stroke:none;fill-rule:nonzero;fill:rgb(100%,100%,100%);fill-opacity:1;" d="M 11.667969 5.382812 C 12.359375 5.257812 13.066406 5.269531 13.765625 5.304688 C 14.570312 5.398438 15.378906 5.570312 16.117188 5.902344 C 17.597656 6.519531 18.851562 7.578125 19.710938 8.933594 C 20.03125 9.398438 20.246094 9.917969 20.460938 10.4375 C 20.660156 10.117188 20.839844 9.789062 21.015625 9.453125 C 21.089844 9.296875 21.246094 9.175781 21.429688 9.183594 C 21.679688 9.164062 21.902344 9.347656 21.933594 9.597656 C 21.957031 9.792969 21.832031 9.960938 21.753906 10.132812 C 21.5 10.644531 21.171875 11.117188 20.832031 11.578125 C 20.769531 11.644531 20.796875 11.738281 20.804688 11.816406 C 21.179688 14.042969 20.460938 16.410156 18.933594 18.082031 C 18.054688 19.0625 16.941406 19.808594 15.703125 20.253906 C 14.273438 20.753906 12.703125 20.867188 11.226562 20.515625 C 9.082031 20.050781 7.1875 18.640625 6.109375 16.765625 C 5.875 16.386719 5.726562 15.964844 5.539062 15.5625 C 5.335938 15.875 5.164062 16.203125 4.992188 16.53125 C 4.90625 16.699219 4.742188 16.808594 4.558594 16.820312 C 4.25 16.820312 3.96875 16.488281 4.09375 16.191406 C 4.359375 15.578125 4.722656 15.011719 5.132812 14.480469 C 5.21875 14.390625 5.207031 14.257812 5.191406 14.144531 C 5.039062 13.167969 5.085938 12.167969 5.320312 11.207031 C 5.949219 8.507812 8.191406 6.253906 10.90625 5.550781 C 11.160156 5.488281 11.410156 5.425781 11.667969 5.382812 Z M 9.75 7.015625 C 8.308594 7.773438 7.148438 9.042969 6.546875 10.539062 C 6.199219 11.441406 6.023438 12.414062 6.074219 13.378906 C 6.226562 13.265625 6.375 13.140625 6.511719 13.007812 C 7.320312 12.289062 8.265625 11.726562 9.257812 11.28125 C 11.09375 10.445312 13.121094 10.085938 15.132812 9.988281 C 14.449219 9.285156 13.714844 8.632812 13.035156 7.929688 C 13.246094 7.691406 13.480469 7.476562 13.710938 7.257812 C 13.976562 7.496094 14.21875 7.753906 14.480469 8 C 15.316406 8.832031 16.175781 9.640625 17 10.484375 C 16.125 11.359375 15.222656 12.214844 14.34375 13.089844 C 14.273438 13.15625 14.195312 13.222656 14.113281 13.285156 C 13.890625 13.0625 13.636719 12.867188 13.457031 12.605469 C 13.996094 12.042969 14.613281 11.546875 15.128906 10.960938 C 14.203125 10.972656 13.277344 11.105469 12.371094 11.285156 C 11.636719 11.414062 10.929688 11.664062 10.226562 11.898438 C 8.75 12.453125 7.390625 13.332031 6.351562 14.511719 C 6.292969 14.570312 6.300781 14.664062 6.316406 14.738281 C 6.4375 15.265625 6.671875 15.757812 6.925781 16.234375 C 7.761719 17.742188 9.207031 18.910156 10.867188 19.433594 C 11.839844 19.734375 12.878906 19.847656 13.886719 19.707031 C 15.300781 19.53125 16.625 18.925781 17.683594 17.972656 C 19.199219 16.636719 20.050781 14.601562 19.917969 12.605469 C 19.757812 12.730469 19.617188 12.871094 19.464844 13.003906 C 18.449219 13.878906 17.28125 14.558594 16.019531 15.007812 C 14.378906 15.617188 12.628906 15.933594 10.878906 15.984375 C 11.03125 16.183594 11.21875 16.351562 11.398438 16.527344 C 11.921875 17.039062 12.4375 17.554688 12.96875 18.058594 C 12.765625 18.300781 12.527344 18.507812 12.300781 18.730469 C 12.074219 18.546875 11.878906 18.332031 11.667969 18.128906 C 10.875 17.363281 10.09375 16.585938 9.300781 15.816406 C 9.191406 15.714844 9.09375 15.605469 9 15.492188 C 9.34375 15.125 9.738281 14.804688 10.085938 14.445312 C 10.6875 13.867188 11.273438 13.269531 11.882812 12.695312 C 12.109375 12.914062 12.347656 13.125 12.550781 13.371094 C 12.007812 13.933594 11.433594 14.460938 10.886719 15.011719 C 11.484375 15.042969 12.078125 14.9375 12.675781 14.882812 C 13.105469 14.835938 13.53125 14.738281 13.953125 14.652344 C 16.136719 14.148438 18.261719 13.109375 19.726562 11.402344 C 19.164062 8.980469 17.101562 6.984375 14.648438 6.421875 C 13.015625 6.003906 11.234375 6.242188 9.75 7.015625 Z M 9.75 7.015625 "/>
</g>
</svg>
