<?xml version="1.0" encoding="UTF-8"?>
<svg xmlns="http://www.w3.org/2000/svg" xmlns:xlink="http://www.w3.org/1999/xlink" width="26pt" height="26pt" viewBox="0 0 26 26" version="1.1">
<defs>
<linearGradient id="linear0" gradientUnits="userSpaceOnUse" x1="0" y1="16" x2="32" y2="16" gradientTransform="matrix(0.8125,0,0,0.8125,0,0)">
<stop offset="0" style="stop-color:rgb(0%,10.980392%,22.745098%);stop-opacity:1;"/>
<stop offset="0.6" style="stop-color:rgb(0%,11.764706%,23.921569%);stop-opacity:1;"/>
<stop offset="0.7" style="stop-color:rgb(0%,12.156863%,24.705882%);stop-opacity:1;"/>
<stop offset="1" style="stop-color:rgb(0%,12.54902%,25.882353%);stop-opacity:1;"/>
</linearGradient>
</defs>
<g id="surface1">
<path style=" stroke:none;fill-rule:nonzero;fill:url(#linear0);" d="M 26 13 C 26 20.179688 20.179688 26 13 26 C 5.820312 26 0 20.179688 0 13 C 0 5.820312 5.820312 0 13 0 C 20.179688 0 26 5.820312 26 13 Z M 26 13 "/>
<path style=" stroke:none;fill-rule:nonzero;fill:rgb(100%,100%,100%);fill-opacity:1;" d="M 7.3125 7.554688 L 8.695312 6.824219 L 8.855469 7.148438 L 13.894531 4.226562 L 13.570312 3.980469 L 13.164062 3.738281 L 13 3.65625 L 4.710938 8.449219 L 4.710938 8.613281 L 7.070312 7.3125 Z M 7.3125 10.644531 L 11.292969 8.289062 L 11.457031 8.613281 L 16.574219 5.6875 L 16.167969 5.445312 L 15.761719 5.28125 L 15.601562 5.199219 L 4.710938 11.457031 L 4.710938 11.617188 L 7.070312 10.320312 Z M 7.3125 12.105469 L 12.59375 9.101562 L 12.757812 9.34375 L 17.875 6.417969 L 17.46875 6.257812 L 17.0625 6.011719 L 16.898438 5.929688 L 4.710938 12.917969 L 4.710938 13.164062 L 7.070312 11.78125 Z M 7.3125 13.570312 L 13.894531 9.832031 L 14.054688 10.074219 L 19.175781 7.230469 L 18.769531 6.988281 L 18.363281 6.742188 L 18.199219 6.664062 L 4.710938 14.460938 L 4.710938 14.625 L 7.070312 13.324219 Z M 7.3125 15.113281 L 15.195312 10.5625 L 15.355469 10.886719 L 20.476562 7.960938 L 20.070312 7.71875 L 19.742188 7.554688 L 19.5 7.394531 L 4.710938 15.925781 L 4.710938 16.167969 L 7.070312 14.789062 Z M 20.960938 8.289062 L 20.800781 8.125 L 4.710938 17.46875 L 4.710938 17.632812 L 7.070312 16.332031 L 7.3125 16.65625 L 15.195312 12.023438 L 15.355469 12.351562 L 21.289062 9.019531 L 21.289062 8.449219 Z M 5.769531 18.605469 L 7.070312 17.792969 L 7.230469 18.117188 L 15.195312 13.570312 L 15.355469 13.894531 L 21.289062 10.480469 L 21.289062 9.425781 L 5.523438 18.445312 Z M 15.195312 15.113281 L 15.355469 15.4375 L 21.289062 11.945312 L 21.289062 10.886719 L 6.824219 19.257812 L 7.070312 19.335938 L 8.367188 18.523438 L 8.613281 18.851562 M 8.367188 20.070312 L 9.75 19.335938 L 9.914062 19.664062 L 15.195312 16.574219 L 15.355469 16.898438 L 21.289062 13.488281 L 21.289062 12.429688 L 8.125 19.988281 Z M 9.667969 20.800781 L 11.050781 20.070312 L 11.210938 20.394531 L 15.195312 18.117188 L 15.355469 18.445312 L 21.289062 15.03125 L 21.289062 13.894531 L 9.425781 20.71875 Z M 10.726562 21.449219 L 10.96875 21.613281 L 12.351562 20.800781 L 12.511719 21.125 L 15.195312 19.582031 L 15.355469 19.90625 L 21.289062 16.492188 L 21.289062 15.4375 Z M 12.269531 22.34375 L 13.570312 21.53125 L 13.8125 21.855469 L 15.195312 21.125 L 15.355469 21.449219 L 21.289062 18.039062 L 21.289062 16.898438 L 12.105469 22.261719 Z M 15.273438 4.957031 L 14.867188 4.710938 L 14.460938 4.550781 L 14.300781 4.386719 L 4.710938 9.914062 L 4.710938 10.15625 L 7.070312 8.773438 L 7.3125 9.101562 L 9.992188 7.554688 L 10.15625 7.882812 Z M 15.273438 4.957031 "/>
</g>
</svg>
