<?xml version="1.0" encoding="UTF-8"?>
<svg xmlns="http://www.w3.org/2000/svg" xmlns:xlink="http://www.w3.org/1999/xlink" width="26pt" height="26pt" viewBox="0 0 26 26" version="1.1">
<g id="surface1">
<path style=" stroke:none;fill-rule:evenodd;fill:rgb(37.647059%,16.470588%,32.156863%);fill-opacity:1;" d="M 26 13 C 26 20.179688 20.179688 26 13 26 C 5.820312 26 0 20.179688 0 13 C 0 5.820312 5.820312 0 13 0 C 20.179688 0 26 5.820312 26 13 Z M 26 13 "/>
<path style=" stroke:none;fill-rule:evenodd;fill:rgb(100%,100%,100%);fill-opacity:1;" d="M 16.722656 13.253906 C 16.496094 12.621094 16.09375 12.070312 15.5625 11.664062 L 15.554688 11.65625 C 15.5 11.613281 15.441406 11.574219 15.382812 11.535156 L 15.371094 11.527344 C 15.3125 11.488281 15.253906 11.453125 15.195312 11.417969 L 15.175781 11.40625 C 15.117188 11.375 15.058594 11.34375 14.996094 11.3125 L 14.976562 11.304688 C 14.914062 11.273438 14.851562 11.246094 14.785156 11.21875 L 14.765625 11.210938 C 14.558594 11.125 14.339844 11.058594 14.117188 11.011719 C 13.992188 11.242188 13.828125 11.453125 13.632812 11.632812 C 14.089844 11.667969 14.53125 11.816406 14.917969 12.058594 L 14.9375 12.070312 L 15.046875 12.144531 L 15.09375 12.179688 C 15.128906 12.203125 15.15625 12.226562 15.191406 12.25 L 15.246094 12.292969 C 15.273438 12.320312 15.300781 12.34375 15.328125 12.367188 L 15.382812 12.421875 L 15.460938 12.496094 L 15.515625 12.558594 L 15.582031 12.636719 L 15.636719 12.703125 L 15.695312 12.78125 C 15.71875 12.808594 15.730469 12.832031 15.746094 12.855469 C 15.761719 12.878906 15.785156 12.910156 15.800781 12.9375 L 15.847656 13.015625 C 15.863281 13.042969 15.882812 13.070312 15.894531 13.097656 C 15.910156 13.125 15.925781 13.15625 15.941406 13.183594 C 15.953125 13.214844 15.96875 13.238281 15.980469 13.265625 C 15.996094 13.300781 16.007812 13.339844 16.023438 13.375 C 16.101562 13.566406 16.15625 13.769531 16.1875 13.972656 L 16.273438 14.300781 C 16.3125 14.4375 16.65625 15.644531 17.457031 16.054688 C 18.375 16.523438 19.589844 17.105469 20.066406 17.335938 L 13.757812 21.039062 L 13.757812 18.5 C 13.757812 18.101562 14.570312 17.632812 14.945312 17.464844 L 14.96875 17.453125 C 15.046875 17.414062 15.121094 17.375 15.195312 17.332031 L 15.226562 17.3125 C 15.390625 17.214844 15.542969 17.105469 15.691406 16.984375 L 15.730469 16.949219 L 15.773438 16.910156 C 15.820312 16.867188 15.863281 16.824219 15.90625 16.78125 L 15.929688 16.761719 C 15.980469 16.710938 16.027344 16.667969 16.070312 16.609375 L 16.109375 16.566406 C 16.144531 16.523438 16.179688 16.480469 16.210938 16.4375 L 16.242188 16.398438 C 16.28125 16.347656 16.320312 16.289062 16.355469 16.234375 L 16.371094 16.21875 C 16.417969 16.140625 16.464844 16.0625 16.511719 15.980469 C 16.335938 15.765625 16.183594 15.53125 16.058594 15.28125 C 16.007812 15.421875 15.945312 15.558594 15.871094 15.691406 C 15.84375 15.746094 15.808594 15.804688 15.777344 15.855469 L 15.761719 15.878906 C 15.730469 15.925781 15.699219 15.96875 15.667969 16.011719 L 15.636719 16.050781 C 15.605469 16.09375 15.570312 16.132812 15.535156 16.175781 L 15.515625 16.195312 C 15.277344 16.453125 15 16.664062 14.6875 16.820312 L 14.625 16.847656 C 14.464844 16.917969 13.054688 17.546875 13.054688 18.496094 L 13.054688 21.035156 L 6.726562 17.324219 C 7.132812 17.078125 8.324219 16.382812 9.300781 16.078125 C 9.683594 15.960938 10.496094 16.464844 10.957031 16.832031 L 10.984375 16.855469 C 11.046875 16.914062 11.109375 16.96875 11.175781 17.019531 L 11.199219 17.039062 C 11.347656 17.15625 11.5 17.261719 11.664062 17.351562 L 11.773438 17.414062 L 11.796875 17.425781 C 11.902344 17.476562 12.011719 17.527344 12.125 17.570312 L 12.171875 17.589844 L 12.203125 17.601562 C 12.363281 17.660156 12.53125 17.707031 12.695312 17.738281 C 12.828125 17.503906 12.996094 17.292969 13.195312 17.117188 C 12.929688 17.09375 12.667969 17.039062 12.414062 16.945312 L 12.371094 16.929688 L 12.289062 16.894531 L 12.246094 16.878906 L 12.167969 16.839844 C 11.980469 16.75 11.804688 16.640625 11.644531 16.511719 L 11.390625 16.285156 C 11.160156 16.085938 10.910156 15.910156 10.644531 15.761719 C 10.019531 15.410156 9.496094 15.296875 9.09375 15.421875 C 8.257812 15.679688 7.3125 16.183594 6.738281 16.511719 L 13.058594 5.367188 L 13.058594 10.25 C 13.058594 10.421875 12.796875 10.875 11.929688 11.257812 L 11.871094 11.289062 C 11.785156 11.332031 11.703125 11.375 11.621094 11.421875 L 11.605469 11.429688 C 11.339844 11.585938 11.09375 11.78125 10.875 12 L 10.867188 12.007812 C 10.785156 12.09375 10.707031 12.183594 10.636719 12.273438 L 10.625 12.289062 C 10.589844 12.332031 10.558594 12.378906 10.523438 12.425781 L 10.511719 12.441406 C 10.480469 12.484375 10.453125 12.527344 10.425781 12.574219 L 10.414062 12.589844 C 10.386719 12.632812 10.359375 12.679688 10.332031 12.730469 L 10.3125 12.761719 C 10.289062 12.808594 10.265625 12.855469 10.242188 12.898438 L 10.234375 12.921875 C 10.210938 12.964844 10.191406 13.007812 10.171875 13.050781 L 10.152344 13.097656 C 10.132812 13.144531 10.117188 13.195312 10.101562 13.238281 L 10.082031 13.285156 C 10.070312 13.320312 10.058594 13.355469 10.050781 13.390625 C 10.042969 13.410156 10.039062 13.429688 10.03125 13.449219 C 9.984375 13.613281 9.953125 13.78125 9.929688 13.949219 L 9.921875 14.023438 C 9.917969 14.058594 9.917969 14.09375 9.914062 14.125 C 9.914062 14.160156 9.914062 14.195312 9.910156 14.230469 C 9.902344 14.265625 9.910156 14.273438 9.910156 14.296875 L 9.910156 14.371094 C 9.910156 14.542969 9.921875 14.714844 9.949219 14.882812 C 10.21875 14.949219 10.484375 15.046875 10.730469 15.175781 C 10.65625 14.929688 10.613281 14.675781 10.609375 14.417969 L 10.609375 14.371094 C 10.609375 14.3125 10.609375 14.25 10.617188 14.183594 L 10.617188 14.136719 C 10.617188 14.082031 10.628906 14.03125 10.636719 13.976562 L 10.636719 13.953125 C 10.644531 13.894531 10.65625 13.835938 10.667969 13.777344 L 10.679688 13.734375 C 10.691406 13.6875 10.703125 13.636719 10.71875 13.589844 L 10.730469 13.558594 C 10.746094 13.503906 10.765625 13.449219 10.785156 13.394531 L 10.804688 13.359375 C 10.820312 13.3125 10.839844 13.269531 10.859375 13.222656 L 10.875 13.191406 C 10.902344 13.136719 10.929688 13.085938 10.957031 13.035156 L 10.972656 13.007812 C 11 12.964844 11.023438 12.921875 11.054688 12.878906 L 11.074219 12.851562 C 11.105469 12.800781 11.140625 12.753906 11.175781 12.703125 L 11.183594 12.695312 C 11.21875 12.652344 11.253906 12.609375 11.292969 12.566406 L 11.3125 12.542969 C 11.484375 12.355469 11.679688 12.1875 11.898438 12.050781 L 12.195312 11.914062 C 12.355469 11.84375 13.761719 11.199219 13.761719 10.25 L 13.761719 5.367188 L 20.128906 16.597656 C 19.5625 16.324219 18.5625 15.839844 17.78125 15.441406 C 17.335938 15.214844 17.035156 14.414062 16.957031 14.125 L 16.867188 13.789062 C 16.835938 13.609375 16.789062 13.429688 16.730469 13.257812 Z M 21.039062 16.789062 L 14.015625 4.417969 C 13.890625 4.195312 13.65625 4.0625 13.402344 4.0625 C 13.148438 4.0625 12.914062 4.195312 12.789062 4.417969 L 5.777344 16.789062 C 5.59375 17.113281 5.707031 17.523438 6.027344 17.710938 L 13.046875 21.839844 C 13.269531 21.96875 13.546875 21.96875 13.769531 21.839844 L 20.785156 17.714844 C 21.109375 17.527344 21.21875 17.117188 21.039062 16.792969 Z M 21.039062 16.789062 "/>
</g>
</svg>
