<?xml version="1.0" encoding="UTF-8"?>
<svg xmlns="http://www.w3.org/2000/svg" xmlns:xlink="http://www.w3.org/1999/xlink" width="26pt" height="25pt" viewBox="0 0 26 25" version="1.1">
<g id="surface1">
<path style=" stroke:none;fill-rule:nonzero;fill:rgb(0%,0%,0%);fill-opacity:1;" d="M 15.828125 12.332031 C 15.828125 13.855469 14.5625 15.085938 13.003906 15.085938 C 11.441406 15.085938 10.175781 13.855469 10.175781 12.332031 C 10.175781 10.8125 11.441406 9.582031 13.003906 9.582031 C 14.5625 9.582031 15.828125 10.8125 15.828125 12.332031 Z M 15.828125 12.332031 "/>
<path style=" stroke:none;fill-rule:nonzero;fill:rgb(0%,0%,0%);fill-opacity:1;" d="M 3.128906 16.660156 C 3.757812 16.25 4.046875 15.492188 3.84375 14.78125 C 2.472656 9.890625 5.386719 4.835938 10.386719 3.4375 C 11.289062 3.15625 11.800781 2.222656 11.535156 1.335938 C 11.269531 0.445312 10.328125 -0.0742188 9.410156 0.160156 C 2.570312 2.082031 -1.414062 9 0.464844 15.6875 C 0.613281 16.214844 1.011719 16.644531 1.539062 16.835938 C 2.066406 17.03125 2.660156 16.964844 3.128906 16.660156 Z M 3.128906 16.660156 "/>
<path style=" stroke:none;fill-rule:nonzero;fill:rgb(0%,0%,0%);fill-opacity:1;" d="M 14.015625 1.710938 C 14.015625 2.492188 14.554688 3.171875 15.328125 3.363281 C 20.332031 4.597656 23.40625 9.496094 22.253906 14.394531 C 22.074219 15.183594 22.488281 15.988281 23.246094 16.320312 C 24.003906 16.652344 24.894531 16.421875 25.382812 15.765625 C 25.519531 15.578125 25.621094 15.367188 25.671875 15.140625 C 27.226562 8.449219 23.039062 1.765625 16.21875 0.0585938 C 15.765625 -0.0546875 15.285156 0.0078125 14.882812 0.238281 C 14.480469 0.46875 14.1875 0.847656 14.070312 1.285156 C 14.035156 1.425781 14.015625 1.570312 14.015625 1.710938 Z M 14.015625 1.710938 "/>
<path style=" stroke:none;fill-rule:nonzero;fill:rgb(0%,0%,0%);fill-opacity:1;" d="M 22.171875 18.457031 C 21.46875 17.96875 20.5 18.0625 19.910156 18.679688 C 16.3125 22.394531 10.300781 22.5625 6.488281 19.054688 C 6.441406 19.011719 6.394531 18.96875 6.347656 18.921875 C 5.769531 18.375 4.882812 18.300781 4.214844 18.734375 L 4.140625 18.785156 C 3.765625 19.027344 3.5 19.40625 3.410156 19.839844 C 3.320312 20.269531 3.410156 20.71875 3.660156 21.085938 C 3.722656 21.179688 3.796875 21.265625 3.878906 21.34375 C 8.984375 26.257812 17.214844 26.207031 22.257812 21.230469 C 22.335938 21.15625 22.410156 21.078125 22.484375 21 C 23.132812 20.332031 23.101562 19.277344 22.414062 18.644531 C 22.359375 18.59375 22.300781 18.550781 22.242188 18.507812 Z M 22.171875 18.457031 "/>
</g>
</svg>
