<?xml version="1.0" encoding="UTF-8"?>
<svg xmlns="http://www.w3.org/2000/svg" xmlns:xlink="http://www.w3.org/1999/xlink" width="26pt" height="26pt" viewBox="0 0 26 26" version="1.1">
<g id="surface1">
<path style=" stroke:none;fill-rule:nonzero;fill:rgb(35.686275%,42.745098%,93.333333%);fill-opacity:1;" d="M 26 13 C 26 20.179688 20.179688 26 13 26 C 5.820312 26 0 20.179688 0 13 C 0 5.820312 5.820312 0 13 0 C 20.179688 0 26 5.820312 26 13 Z M 26 13 "/>
<path style=" stroke:none;fill-rule:nonzero;fill:rgb(100%,100%,100%);fill-opacity:1;" d="M 10.804688 12.203125 C 10.351562 12.203125 9.902344 12.242188 9.453125 12.320312 C 9.820312 8.925781 12.652344 6.351562 16.023438 6.351562 C 18.085938 6.351562 19.5 7.363281 19.5 9.453125 C 19.5 11.546875 17.800781 12.558594 15.328125 12.558594 C 13.5 12.558594 12.632812 12.203125 10.804688 12.203125 M 10.671875 13.441406 C 8.199219 13.441406 6.5 14.453125 6.5 16.546875 C 6.5 18.636719 7.914062 19.648438 9.976562 19.648438 C 13.347656 19.648438 16.179688 17.078125 16.546875 13.679688 C 16.097656 13.757812 15.648438 13.796875 15.195312 13.796875 C 13.367188 13.796875 12.5 13.441406 10.671875 13.441406 "/>
</g>
</svg>
