<?xml version="1.0" encoding="UTF-8"?>
<svg xmlns="http://www.w3.org/2000/svg" xmlns:xlink="http://www.w3.org/1999/xlink" width="26pt" height="26pt" viewBox="0 0 26 26" version="1.1">
<g id="surface1">
<path style=" stroke:none;fill-rule:nonzero;fill:rgb(14.901961%,51.372549%,100%);fill-opacity:1;" d="M 3.699219 17.679688 C 3.304688 17.679688 2.988281 18 2.988281 18.390625 C 2.988281 18.785156 3.304688 19.101562 3.699219 19.101562 C 4.089844 19.101562 4.410156 18.785156 4.410156 18.390625 C 4.410156 18.265625 4.375 18.152344 4.316406 18.035156 C 4.1875 17.816406 3.953125 17.683594 3.699219 17.679688 M 13.742188 2.214844 C 13.742188 1.820312 13.425781 1.503906 13.03125 1.503906 C 12.640625 1.503906 12.320312 1.820312 12.320312 2.214844 C 12.320312 2.605469 12.640625 2.925781 13.03125 2.925781 C 13.421875 2.921875 13.742188 2.605469 13.742188 2.214844 M 22.410156 8.382812 C 22.804688 8.382812 23.121094 8.0625 23.121094 7.671875 C 23.121094 7.277344 22.804688 6.960938 22.410156 6.960938 C 22.019531 6.960938 21.699219 7.277344 21.699219 7.671875 C 21.703125 7.792969 21.734375 7.910156 21.792969 8.015625 C 21.917969 8.242188 22.152344 8.382812 22.410156 8.382812 M 4.03125 7.015625 C 3.6875 6.824219 3.261719 6.9375 3.066406 7.28125 C 2.871094 7.625 2.988281 8.050781 3.332031 8.246094 C 3.675781 8.4375 4.097656 8.324219 4.292969 7.980469 C 4.488281 7.648438 4.375 7.210938 4.03125 7.015625 M 22.699219 17.820312 C 22.59375 17.75 22.46875 17.726562 22.34375 17.714844 C 22.085938 17.710938 21.847656 17.847656 21.71875 18.066406 C 21.589844 18.289062 21.589844 18.5625 21.71875 18.785156 C 21.847656 19.007812 22.085938 19.140625 22.34375 19.136719 C 22.59375 19.136719 22.824219 19 22.960938 18.78125 C 23.15625 18.449219 23.042969 18.015625 22.699219 17.820312 M 12.320312 23.746094 C 12.285156 24.066406 12.480469 24.378906 12.78125 24.492188 C 12.847656 24.515625 12.929688 24.539062 12.996094 24.539062 C 13.355469 24.539062 13.664062 24.28125 13.730469 23.929688 C 13.785156 23.546875 13.519531 23.191406 13.132812 23.132812 C 12.75 23.078125 12.390625 23.339844 12.332031 23.722656 C 12.324219 23.730469 12.320312 23.738281 12.320312 23.746094 "/>
<path style=" stroke:none;fill-rule:nonzero;fill:rgb(14.901961%,51.372549%,100%);fill-opacity:1;" d="M 23.398438 16.511719 C 23.3125 16.460938 23.226562 16.421875 23.132812 16.386719 L 23.132812 9.746094 C 23.238281 9.710938 23.339844 9.65625 23.445312 9.609375 C 24.507812 9.011719 24.898438 7.660156 24.304688 6.59375 C 23.707031 5.527344 22.355469 5.136719 21.289062 5.734375 C 21.195312 5.777344 21.117188 5.835938 21.035156 5.894531 L 15.1875 2.511719 C 15.199219 2.40625 15.210938 2.316406 15.210938 2.210938 C 15.210938 0.984375 14.214844 0 12.996094 0 C 11.78125 0 10.761719 1.007812 10.761719 2.222656 C 10.761719 2.328125 10.773438 2.417969 10.785156 2.523438 L 4.980469 5.882812 C 4.355469 5.390625 3.511719 5.273438 2.773438 5.578125 C 2.035156 5.878906 1.515625 6.558594 1.417969 7.347656 C 1.316406 8.140625 1.648438 8.925781 2.289062 9.402344 C 2.367188 9.460938 2.449219 9.515625 2.539062 9.574219 C 2.632812 9.632812 2.734375 9.679688 2.839844 9.710938 L 2.839844 16.339844 C 1.703125 16.796875 1.152344 18.082031 1.609375 19.21875 C 2.070312 20.351562 3.355469 20.902344 4.488281 20.445312 C 4.59375 20.410156 4.683594 20.351562 4.777344 20.308594 C 4.867188 20.25 4.960938 20.191406 5.050781 20.125 L 10.796875 23.4375 C 10.601562 24.640625 11.425781 25.777344 12.628906 25.972656 C 13.835938 26.167969 14.96875 25.339844 15.164062 24.136719 C 15.1875 24.011719 15.1875 23.894531 15.1875 23.769531 C 15.1875 23.664062 15.179688 23.554688 15.164062 23.449219 L 20.875 20.15625 C 20.964844 20.226562 21.058594 20.296875 21.160156 20.351562 C 22.226562 20.949219 23.582031 20.570312 24.175781 19.503906 C 24.75 18.4375 24.40625 17.132812 23.398438 16.511719 Z M 23.800781 19.285156 C 23.328125 20.089844 22.285156 20.363281 21.484375 19.894531 C 20.839844 19.515625 20.519531 18.769531 20.691406 18.046875 L 18.007812 16.476562 C 17.160156 17.335938 15.882812 17.601562 14.761719 17.152344 C 14.363281 17.28125 13.503906 17.359375 13.503906 17.359375 L 13.503906 22.085938 C 14.441406 22.371094 14.957031 23.367188 14.671875 24.308594 C 14.386719 25.25 13.386719 25.765625 12.449219 25.476562 C 12.4375 25.476562 12.425781 25.46875 12.414062 25.46875 C 12.332031 25.445312 12.265625 25.410156 12.195312 25.375 C 11.3125 24.941406 10.96875 23.863281 11.402344 22.992188 C 11.621094 22.554688 12.011719 22.234375 12.46875 22.085938 L 12.46875 17.269531 C 12.132812 17.164062 11.804688 17.039062 11.484375 16.890625 C 10.445312 17.097656 9.371094 16.832031 8.546875 16.167969 L 5.347656 18.011719 C 5.566406 18.929688 5.003906 19.847656 4.089844 20.066406 C 3.171875 20.285156 2.253906 19.71875 2.035156 18.804688 C 1.816406 17.890625 2.382812 16.972656 3.296875 16.753906 C 3.847656 16.613281 4.433594 16.777344 4.855469 17.164062 L 7.847656 15.433594 C 6.839844 14.011719 7 12.0625 8.238281 10.824219 L 4.832031 8.875 C 4.15625 9.515625 3.089844 9.484375 2.449219 8.792969 C 2.140625 8.46875 1.976562 8.03125 1.988281 7.578125 C 2.003906 7.128906 2.199219 6.703125 2.527344 6.398438 C 3.214844 5.757812 4.273438 5.789062 4.914062 6.476562 C 5.304688 6.890625 5.453125 7.464844 5.328125 8.015625 L 9.097656 10.183594 C 9.59375 9.917969 10.144531 9.769531 10.703125 9.757812 C 11.230469 9.320312 12.585938 8.875 12.585938 8.875 L 12.585938 3.714844 C 11.746094 3.464844 11.277344 2.578125 11.527344 1.742188 C 11.78125 0.90625 12.664062 0.445312 13.5 0.699219 C 14.339844 0.953125 14.808594 1.835938 14.558594 2.671875 C 14.40625 3.179688 14.007812 3.574219 13.5 3.726562 L 13.5 8.785156 C 13.5 8.785156 15.980469 9.402344 16.757812 10.332031 L 20.773438 8.050781 C 20.566406 7.132812 21.128906 6.214844 22.042969 6.007812 C 22.960938 5.800781 23.878906 6.363281 24.085938 7.28125 C 24.292969 8.199219 23.730469 9.117188 22.8125 9.324219 C 22.257812 9.449219 21.679688 9.289062 21.265625 8.898438 L 17.296875 11.144531 C 17.410156 11.386719 17.515625 11.625 17.582031 11.878906 C 18.8125 12.714844 19.246094 14.320312 18.59375 15.664062 L 21.21875 17.1875 C 21.761719 16.683594 22.574219 16.59375 23.214844 16.96875 C 24.003906 17.441406 24.28125 18.472656 23.800781 19.285156 Z M 23.800781 19.285156 "/>
<path style=" stroke:none;fill-rule:nonzero;fill:rgb(14.901961%,51.372549%,100%);fill-opacity:1;" d="M 16.402344 12.773438 C 16.390625 12.683594 16.378906 12.601562 16.367188 12.511719 C 16.355469 12.449219 16.34375 12.386719 16.324219 12.328125 C 16.324219 12.304688 16.3125 12.28125 16.3125 12.257812 C 16.289062 12.1875 16.265625 12.109375 16.242188 12.039062 L 16.242188 12.027344 C 16.097656 11.644531 15.875 11.292969 15.589844 10.996094 C 15.519531 10.925781 15.460938 10.871094 15.382812 10.800781 L 15.371094 10.789062 C 15.300781 10.734375 15.234375 10.675781 15.152344 10.628906 L 15.140625 10.617188 C 15.074219 10.570312 14.992188 10.515625 14.921875 10.480469 L 14.914062 10.46875 C 14.839844 10.425781 14.761719 10.386719 14.683594 10.355469 L 14.660156 10.34375 C 14.578125 10.308594 14.5 10.273438 14.40625 10.238281 L 14.394531 10.226562 C 14.304688 10.207031 14.222656 10.171875 14.132812 10.160156 L 14.121094 10.160156 C 14.03125 10.136719 13.9375 10.125 13.847656 10.113281 L 13.835938 10.113281 C 13.347656 10.042969 12.847656 10.101562 12.390625 10.285156 L 12.332031 10.332031 C 12.265625 10.355469 12.148438 10.410156 12.082031 10.445312 C 12.042969 10.46875 12.007812 10.488281 11.964844 10.503906 C 11.929688 10.515625 11.875 10.5625 11.839844 10.582031 C 11.804688 10.605469 11.726562 10.664062 11.679688 10.699219 L 11.644531 10.722656 C 11.574219 10.765625 11.519531 10.824219 11.449219 10.882812 L 11.390625 10.9375 C 11.324219 11.007812 11.265625 11.066406 11.207031 11.132812 C 11.074219 11.109375 10.933594 11.101562 10.796875 11.101562 C 10.75 11.101562 10.714844 11.101562 10.679688 11.109375 C 10.152344 11.132812 9.648438 11.351562 9.257812 11.707031 C 9.066406 11.878906 8.902344 12.097656 8.777344 12.328125 L 8.765625 12.351562 C 8.730469 12.417969 8.699219 12.484375 8.675781 12.554688 C 8.664062 12.578125 8.664062 12.589844 8.652344 12.613281 C 8.628906 12.671875 8.609375 12.734375 8.59375 12.796875 C 8.582031 12.820312 8.582031 12.855469 8.570312 12.878906 C 8.558594 12.933594 8.546875 12.992188 8.535156 13.0625 C 8.535156 13.082031 8.527344 13.105469 8.527344 13.140625 C 8.515625 13.230469 8.511719 13.316406 8.515625 13.40625 C 8.511719 13.476562 8.515625 13.550781 8.527344 13.621094 C 8.527344 13.644531 8.535156 13.667969 8.535156 13.703125 C 8.546875 13.75 8.546875 13.792969 8.558594 13.839844 C 8.570312 13.886719 8.570312 13.898438 8.582031 13.933594 C 8.597656 13.964844 8.601562 14 8.605469 14.035156 C 8.605469 14.070312 8.628906 14.105469 8.640625 14.136719 C 8.648438 14.167969 8.660156 14.191406 8.675781 14.21875 C 8.691406 14.257812 8.707031 14.292969 8.71875 14.332031 C 8.730469 14.355469 8.742188 14.367188 8.742188 14.390625 C 8.90625 14.769531 9.175781 15.089844 9.523438 15.308594 C 9.695312 15.410156 9.867188 15.503906 10.050781 15.558594 C 10.121094 15.585938 10.195312 15.605469 10.269531 15.617188 L 10.292969 15.628906 L 10.496094 15.664062 L 10.542969 15.675781 C 10.625 15.6875 10.703125 15.6875 10.796875 15.6875 C 11.105469 15.6875 11.402344 15.628906 11.679688 15.503906 C 11.746094 15.550781 11.804688 15.59375 11.875 15.640625 L 11.898438 15.652344 C 11.953125 15.6875 12.023438 15.722656 12.09375 15.753906 L 12.101562 15.753906 C 12.757812 16.089844 13.515625 16.167969 14.222656 15.972656 L 14.234375 15.972656 C 14.339844 15.949219 14.4375 15.917969 14.535156 15.871094 L 14.84375 15.730469 C 15.136719 15.960938 15.5 16.085938 15.875 16.085938 C 15.957031 16.085938 16.023438 16.078125 16.105469 16.078125 L 16.164062 16.066406 C 16.234375 16.054688 16.308594 16.039062 16.378906 16.019531 C 16.449219 15.996094 16.519531 15.96875 16.585938 15.9375 L 16.621094 15.925781 C 16.691406 15.894531 16.746094 15.859375 16.816406 15.824219 C 17.101562 15.640625 17.320312 15.367188 17.445312 15.054688 C 17.492188 14.953125 17.515625 14.847656 17.539062 14.746094 L 17.539062 14.710938 C 17.550781 14.664062 17.550781 14.621094 17.5625 14.574219 C 17.5625 14.515625 17.574219 14.460938 17.574219 14.402344 C 17.574219 13.644531 17.101562 12.992188 16.402344 12.773438 "/>
</g>
</svg>
