<?xml version="1.0" encoding="UTF-8"?>
<svg xmlns="http://www.w3.org/2000/svg" xmlns:xlink="http://www.w3.org/1999/xlink" width="26pt" height="24pt" viewBox="0 0 26 24" version="1.1">
<defs>
<linearGradient id="linear0" gradientUnits="userSpaceOnUse" x1="0" y1="0" x2="2000" y2="0" gradientTransform="matrix(0.0129983,0,0,0.0129154,0.00167901,-1.033236)">
<stop offset="0" style="stop-color:rgb(100%,100%,100%);stop-opacity:1;"/>
<stop offset="0" style="stop-color:rgb(12.941176%,73.333333%,75.294118%);stop-opacity:1;"/>
<stop offset="0.34" style="stop-color:rgb(12.54902%,72.54902%,75.294118%);stop-opacity:1;"/>
<stop offset="1" style="stop-color:rgb(7.45098%,52.941176%,78.823529%);stop-opacity:1;"/>
</linearGradient>
</defs>
<g id="surface1">
<path style=" stroke:none;fill-rule:nonzero;fill:url(#linear0);" d="M 1.765625 8.527344 L 13.140625 15.648438 C 13.148438 15.65625 13.160156 15.65625 13.167969 15.648438 L 24.769531 8.367188 C 24.773438 8.363281 24.777344 8.359375 24.78125 8.351562 C 24.78125 8.347656 24.78125 8.339844 24.777344 8.335938 C 24.773438 8.332031 24.773438 8.332031 24.769531 8.328125 L 13.273438 1.050781 C 13.265625 1.042969 13.253906 1.042969 13.25 1.050781 L 1.765625 8.488281 C 1.761719 8.492188 1.757812 8.5 1.757812 8.503906 C 1.757812 8.511719 1.757812 8.519531 1.761719 8.523438 C 1.765625 8.523438 1.765625 8.527344 1.765625 8.527344 Z M 13.140625 24 C 12.992188 24 12.84375 23.957031 12.714844 23.875 L 0.535156 16.082031 C 0.527344 16.070312 0.527344 16.058594 0.535156 16.050781 L 1.054688 15.246094 C 1.0625 15.238281 1.074219 15.238281 1.085938 15.246094 L 13.136719 22.960938 C 13.144531 22.964844 13.152344 22.964844 13.160156 22.960938 L 24.582031 15.667969 C 24.84375 15.503906 25.003906 15.214844 25 14.90625 L 25 13.109375 C 25 13.097656 24.988281 13.089844 24.976562 13.089844 C 24.972656 13.089844 24.96875 13.089844 24.964844 13.089844 L 13.429688 20.390625 C 13.171875 20.554688 12.84375 20.554688 12.585938 20.390625 L 0.929688 13.023438 C 0.351562 12.664062 0 12.035156 0 11.359375 L 0 8.847656 C 0 8.644531 0.0820312 8.449219 0.222656 8.300781 L 0.261719 8.269531 L 0.484375 8.117188 L 12.851562 0.109375 L 12.863281 0.101562 C 13.117188 -0.0390625 13.429688 -0.03125 13.675781 0.121094 L 25.632812 7.6875 C 25.859375 7.832031 25.996094 8.082031 25.996094 8.351562 C 25.996094 8.621094 25.859375 8.867188 25.632812 9.011719 L 13.574219 16.578125 C 13.316406 16.734375 12.992188 16.734375 12.734375 16.578125 L 1.039062 9.261719 C 1.03125 9.253906 1.015625 9.257812 1.007812 9.269531 C 1.007812 9.273438 1.007812 9.277344 1.007812 9.28125 L 1.007812 11.355469 C 1.003906 11.691406 1.175781 12 1.460938 12.179688 L 12.996094 19.464844 C 13.003906 19.472656 13.015625 19.472656 13.023438 19.464844 L 24.789062 12.007812 C 25.089844 11.816406 25.476562 11.847656 25.738281 12.082031 C 25.90625 12.242188 26 12.464844 25.992188 12.695312 L 25.992188 14.898438 C 25.996094 15.546875 25.664062 16.152344 25.113281 16.503906 L 13.5625 23.878906 C 13.433594 23.957031 13.289062 23.996094 13.140625 24 Z M 13.140625 24 "/>
</g>
</svg>
