<?xml version="1.0" encoding="UTF-8"?>
<svg xmlns="http://www.w3.org/2000/svg" xmlns:xlink="http://www.w3.org/1999/xlink" width="26pt" height="26pt" viewBox="0 0 26 26" version="1.1">
<g id="surface1">
<path style=" stroke:none;fill-rule:nonzero;fill:rgb(0%,15.686275%,40.784314%);fill-opacity:1;" d="M 13 26 C 5.851562 26 0 20.148438 0 13 C 0 5.851562 5.851562 0 13 0 C 20.148438 0 26 5.851562 26 13 C 26 20.148438 20.148438 26 13 26 Z M 13 26 "/>
<path style=" stroke:none;fill-rule:nonzero;fill:rgb(100%,100%,100%);fill-opacity:1;" d="M 19.550781 20.800781 L 6.449219 20.800781 C 5.761719 20.800781 5.199219 20.238281 5.199219 19.550781 L 5.199219 6.449219 C 5.199219 5.761719 5.761719 5.199219 6.449219 5.199219 L 19.550781 5.199219 C 20.238281 5.199219 20.800781 5.761719 20.800781 6.449219 L 20.800781 19.550781 C 20.800781 20.238281 20.238281 20.800781 19.550781 20.800781 Z M 19.550781 20.800781 "/>
<path style=" stroke:none;fill-rule:nonzero;fill:rgb(0%,15.686275%,40.784314%);fill-opacity:1;" d="M 8.242188 19.230469 C 8.203125 19.230469 8.167969 19.191406 8.167969 19.152344 L 8.167969 17.054688 C 8.167969 17.015625 8.136719 16.976562 8.09375 16.976562 L 7.355469 16.976562 C 7.3125 16.976562 7.277344 16.941406 7.277344 16.902344 L 7.277344 16.496094 C 7.277344 16.457031 7.3125 16.417969 7.355469 16.417969 L 9.632812 16.417969 C 9.675781 16.417969 9.710938 16.457031 9.710938 16.496094 L 9.710938 16.902344 C 9.710938 16.941406 9.675781 16.976562 9.632812 16.976562 L 8.898438 16.976562 C 8.855469 16.976562 8.820312 17.011719 8.820312 17.054688 L 8.820312 19.152344 C 8.820312 19.191406 8.785156 19.230469 8.746094 19.230469 Z M 8.242188 19.230469 "/>
<path style=" stroke:none;fill-rule:nonzero;fill:rgb(0%,15.686275%,40.784314%);fill-opacity:1;" d="M 11.984375 16.496094 C 11.984375 16.457031 12.019531 16.417969 12.058594 16.417969 L 12.554688 16.417969 C 12.597656 16.417969 12.632812 16.457031 12.632812 16.496094 L 12.632812 17.925781 C 12.632812 18.773438 12.15625 19.265625 11.394531 19.265625 C 10.636719 19.265625 10.160156 18.773438 10.160156 17.925781 L 10.160156 16.496094 C 10.160156 16.457031 10.195312 16.417969 10.234375 16.417969 L 10.730469 16.417969 C 10.773438 16.417969 10.8125 16.457031 10.8125 16.496094 L 10.8125 17.949219 C 10.8125 18.367188 11.027344 18.664062 11.398438 18.664062 C 11.769531 18.664062 11.984375 18.367188 11.984375 17.949219 Z M 11.984375 16.496094 "/>
<path style=" stroke:none;fill-rule:nonzero;fill:rgb(0%,15.686275%,40.784314%);fill-opacity:1;" d="M 14.910156 17.335938 C 14.847656 17.335938 14.824219 17.3125 14.800781 17.261719 C 14.714844 17.058594 14.523438 16.929688 14.234375 16.929688 C 13.972656 16.929688 13.753906 17.023438 13.753906 17.195312 C 13.753906 17.386719 13.957031 17.464844 14.402344 17.519531 C 15.082031 17.597656 15.46875 17.804688 15.46875 18.339844 C 15.46875 18.945312 14.941406 19.261719 14.261719 19.261719 C 13.675781 19.261719 13.171875 18.976562 13.09375 18.378906 C 13.085938 18.320312 13.113281 18.300781 13.171875 18.300781 L 13.625 18.300781 C 13.683594 18.300781 13.71875 18.324219 13.734375 18.371094 C 13.796875 18.570312 14.007812 18.722656 14.3125 18.722656 C 14.582031 18.722656 14.816406 18.621094 14.816406 18.410156 C 14.816406 18.160156 14.570312 18.113281 14.074219 18.050781 C 13.503906 17.976562 13.105469 17.8125 13.105469 17.285156 C 13.105469 16.761719 13.558594 16.386719 14.261719 16.386719 C 14.898438 16.386719 15.34375 16.730469 15.433594 17.242188 C 15.445312 17.300781 15.429688 17.335938 15.367188 17.335938 Z M 14.910156 17.335938 "/>
<path style=" stroke:none;fill-rule:nonzero;fill:rgb(0%,15.686275%,40.784314%);fill-opacity:1;" d="M 16.03125 19.230469 C 15.992188 19.230469 15.957031 19.191406 15.957031 19.152344 L 15.957031 16.496094 C 15.957031 16.457031 15.992188 16.417969 16.03125 16.417969 L 17.15625 16.417969 C 17.992188 16.417969 18.640625 16.992188 18.640625 17.832031 C 18.640625 18.660156 18 19.230469 17.15625 19.230469 Z M 17.15625 18.671875 C 17.605469 18.671875 17.957031 18.316406 17.957031 17.824219 C 17.957031 17.332031 17.605469 16.976562 17.152344 16.976562 L 16.683594 16.976562 C 16.644531 16.976562 16.609375 17.011719 16.609375 17.054688 L 16.609375 18.597656 C 16.609375 18.636719 16.644531 18.671875 16.683594 18.671875 Z M 17.15625 18.671875 "/>
<path style=" stroke:none;fill-rule:nonzero;fill:rgb(0%,15.686275%,40.784314%);fill-opacity:1;" d="M 20.382812 14.871094 L 5.617188 14.871094 C 5.5 14.871094 5.40625 14.777344 5.40625 14.664062 L 5.40625 6.449219 C 5.40625 5.875 5.875 5.40625 6.449219 5.40625 L 19.550781 5.40625 C 20.125 5.40625 20.59375 5.875 20.59375 6.449219 L 20.59375 14.664062 C 20.59375 14.777344 20.5 14.871094 20.382812 14.871094 Z M 20.382812 14.871094 "/>
<path style=" stroke:none;fill-rule:nonzero;fill:rgb(100%,100%,100%);fill-opacity:1;" d="M 13.765625 13.183594 L 12.414062 13.183594 C 12.328125 13.183594 12.257812 13.113281 12.257812 13.027344 L 12.257812 7.308594 C 12.257812 7.222656 12.328125 7.152344 12.414062 7.152344 L 13.765625 7.152344 C 13.851562 7.152344 13.921875 7.222656 13.921875 7.308594 L 13.921875 13.027344 C 13.921875 13.113281 13.851562 13.183594 13.765625 13.183594 Z M 13.765625 13.183594 "/>
<path style=" stroke:none;fill-rule:nonzero;fill:rgb(100%,100%,100%);fill-opacity:1;" d="M 16.066406 8.816406 L 9.933594 8.816406 C 9.847656 8.816406 9.777344 8.746094 9.777344 8.660156 L 9.777344 7.308594 C 9.777344 7.222656 9.847656 7.152344 9.933594 7.152344 L 16.066406 7.152344 C 16.152344 7.152344 16.222656 7.222656 16.222656 7.308594 L 16.222656 8.660156 C 16.222656 8.746094 16.152344 8.816406 16.066406 8.816406 Z M 16.066406 8.816406 "/>
</g>
</svg>
