<?xml version="1.0" encoding="UTF-8"?>
<svg xmlns="http://www.w3.org/2000/svg" xmlns:xlink="http://www.w3.org/1999/xlink" width="26pt" height="26pt" viewBox="0 0 26 26" version="1.1">
<g id="surface1">
<path style=" stroke:none;fill-rule:nonzero;fill:rgb(15.294118%,45.882353%,79.215686%);fill-opacity:1;" d="M 13 26 C 20.203125 26 26 20.203125 26 13 C 26 5.796875 20.203125 0 13 0 C 5.796875 0 0 5.796875 0 13 C 0 20.203125 5.796875 26 13 26 Z M 13 26 "/>
<path style=" stroke:none;fill-rule:nonzero;fill:rgb(100%,100%,100%);fill-opacity:1;" d="M 16.574219 15.058594 C 16.574219 13.164062 15.4375 12.511719 13.164062 12.242188 C 11.539062 12.023438 11.210938 11.589844 11.210938 10.832031 C 11.210938 10.074219 11.753906 9.585938 12.835938 9.585938 C 13.8125 9.585938 14.355469 9.914062 14.625 10.726562 C 14.679688 10.886719 14.839844 10.996094 15.003906 10.996094 L 15.871094 10.996094 C 16.085938 10.996094 16.25 10.832031 16.25 10.617188 L 16.25 10.5625 C 16.035156 9.371094 15.058594 8.449219 13.8125 8.339844 L 13.8125 7.042969 C 13.8125 6.824219 13.648438 6.664062 13.378906 6.609375 L 12.566406 6.609375 C 12.351562 6.609375 12.1875 6.769531 12.132812 7.042969 L 12.132812 8.289062 C 10.507812 8.503906 9.480469 9.585938 9.480469 10.941406 C 9.480469 12.730469 10.5625 13.433594 12.835938 13.703125 C 14.355469 13.976562 14.839844 14.300781 14.839844 15.167969 C 14.839844 16.035156 14.082031 16.628906 13.054688 16.628906 C 11.644531 16.628906 11.160156 16.035156 10.996094 15.222656 C 10.941406 15.003906 10.777344 14.894531 10.617188 14.894531 L 9.695312 14.894531 C 9.480469 14.894531 9.316406 15.058594 9.316406 15.273438 L 9.316406 15.328125 C 9.535156 16.683594 10.398438 17.660156 12.1875 17.929688 L 12.1875 19.230469 C 12.1875 19.445312 12.351562 19.609375 12.621094 19.664062 L 13.433594 19.664062 C 13.648438 19.664062 13.8125 19.5 13.867188 19.230469 L 13.867188 17.929688 C 15.492188 17.660156 16.574219 16.519531 16.574219 15.058594 Z M 16.574219 15.058594 "/>
<path style=" stroke:none;fill-rule:nonzero;fill:rgb(100%,100%,100%);fill-opacity:1;" d="M 10.238281 20.746094 C 6.011719 19.230469 3.847656 14.515625 5.417969 10.347656 C 6.230469 8.070312 8.015625 6.335938 10.238281 5.523438 C 10.453125 5.417969 10.5625 5.253906 10.5625 4.984375 L 10.5625 4.226562 C 10.5625 4.007812 10.453125 3.847656 10.238281 3.792969 C 10.183594 3.792969 10.074219 3.792969 10.019531 3.847656 C 4.875 5.472656 2.058594 10.941406 3.683594 16.085938 C 4.660156 19.121094 6.988281 21.449219 10.019531 22.425781 C 10.238281 22.535156 10.453125 22.425781 10.507812 22.207031 C 10.5625 22.152344 10.5625 22.101562 10.5625 21.992188 L 10.5625 21.234375 C 10.5625 21.070312 10.398438 20.855469 10.238281 20.746094 Z M 15.980469 3.847656 C 15.761719 3.738281 15.546875 3.847656 15.492188 4.0625 C 15.4375 4.117188 15.4375 4.171875 15.4375 4.277344 L 15.4375 5.039062 C 15.4375 5.253906 15.601562 5.472656 15.761719 5.578125 C 19.988281 7.097656 22.152344 11.808594 20.582031 15.980469 C 19.769531 18.253906 17.984375 19.988281 15.761719 20.800781 C 15.546875 20.910156 15.4375 21.070312 15.4375 21.339844 L 15.4375 22.101562 C 15.4375 22.316406 15.546875 22.480469 15.761719 22.535156 C 15.816406 22.535156 15.925781 22.535156 15.980469 22.480469 C 21.125 20.855469 23.941406 15.382812 22.316406 10.238281 C 21.339844 7.148438 18.957031 4.820312 15.980469 3.847656 Z M 15.980469 3.847656 "/>
</g>
</svg>
