<?xml version="1.0" encoding="UTF-8"?>
<svg xmlns="http://www.w3.org/2000/svg" xmlns:xlink="http://www.w3.org/1999/xlink" width="26pt" height="22pt" viewBox="0 0 26 22" version="1.1">
<g id="surface1">
<path style=" stroke:none;fill-rule:evenodd;fill:rgb(31.372549%,68.627451%,58.431373%);fill-opacity:1;" d="M 4.761719 0.113281 L 0.0195312 9.792969 C -0.015625 9.867188 0 9.957031 0.0625 10.011719 L 12.863281 21.941406 C 12.941406 22.015625 13.058594 22.015625 13.136719 21.941406 L 25.9375 10.015625 C 26 9.957031 26.015625 9.871094 25.980469 9.796875 L 21.238281 0.113281 C 21.207031 0.046875 21.140625 0.00390625 21.066406 0.00390625 L 4.9375 0.00390625 C 4.859375 0.00390625 4.792969 0.046875 4.761719 0.113281 Z M 4.761719 0.113281 "/>
<path style=" stroke:none;fill-rule:evenodd;fill:rgb(100%,100%,100%);fill-opacity:1;" d="M 14.644531 10.789062 C 14.554688 10.796875 14.078125 10.824219 13.019531 10.824219 C 12.175781 10.824219 11.578125 10.796875 11.367188 10.789062 C 8.113281 10.648438 5.679688 10.097656 5.679688 9.4375 C 5.679688 8.777344 8.113281 8.226562 11.367188 8.085938 L 11.367188 10.238281 C 11.582031 10.253906 12.191406 10.289062 13.035156 10.289062 C 14.042969 10.289062 14.550781 10.25 14.640625 10.242188 L 14.640625 8.089844 C 17.890625 8.230469 20.316406 8.78125 20.316406 9.4375 C 20.316406 10.097656 17.890625 10.648438 14.640625 10.789062 Z M 14.644531 7.867188 L 14.644531 5.9375 L 19.179688 5.9375 L 19.179688 3 L 6.832031 3 L 6.832031 5.9375 L 11.367188 5.9375 L 11.367188 7.863281 C 7.683594 8.027344 4.910156 8.738281 4.910156 9.589844 C 4.910156 10.441406 7.683594 11.148438 11.367188 11.316406 L 11.367188 17.488281 L 14.644531 17.488281 L 14.644531 11.3125 C 18.320312 11.148438 21.085938 10.4375 21.085938 9.589844 C 21.085938 8.738281 18.324219 8.03125 14.644531 7.863281 Z M 14.644531 7.867188 Z M 14.644531 7.867188 "/>
</g>
</svg>
