<?xml version="1.0" encoding="UTF-8"?>
<svg xmlns="http://www.w3.org/2000/svg" xmlns:xlink="http://www.w3.org/1999/xlink" width="26pt" height="26pt" viewBox="0 0 26 26" version="1.1">
<g id="surface1">
<path style=" stroke:none;fill-rule:nonzero;fill:rgb(100%,60%,20%);fill-opacity:1;" d="M 26 13 C 26 20.179688 20.179688 26 13 26 C 5.820312 26 0 20.179688 0 13 C 0 5.820312 5.820312 0 13 0 C 20.179688 0 26 5.820312 26 13 Z M 26 13 "/>
<path style=" stroke:none;fill-rule:nonzero;fill:rgb(100%,100%,100%);fill-opacity:1;" d="M 4.875 6.5 C 5.773438 6.5 6.667969 6.5 7.566406 6.5 L 9.265625 15.582031 C 9.292969 15.71875 9.324219 15.851562 9.359375 15.980469 C 9.492188 15.453125 9.574219 14.914062 9.6875 14.382812 L 11.234375 6.5 L 13.835938 6.5 C 12.882812 10.75 11.929688 15.003906 10.972656 19.253906 L 7.742188 19.253906 C 6.785156 15.007812 5.828125 10.757812 4.875 6.507812 Z M 14.878906 10.507812 C 15.445312 9.796875 16.351562 9.472656 17.222656 9.417969 C 18.085938 9.355469 19.011719 9.433594 19.742188 9.949219 C 20.390625 10.398438 20.742188 11.164062 20.910156 11.921875 C 21.117188 12.875 21.125 13.851562 21.125 14.824219 L 16.355469 14.824219 C 16.359375 15.539062 16.316406 16.28125 16.554688 16.96875 C 16.671875 17.304688 16.886719 17.644531 17.230469 17.765625 C 17.597656 17.882812 18.042969 17.808594 18.308594 17.511719 C 18.667969 17.105469 18.742188 16.539062 18.820312 16.019531 L 20.984375 16.019531 C 20.9375 16.882812 20.777344 17.792969 20.210938 18.46875 C 19.648438 19.171875 18.734375 19.460938 17.871094 19.496094 C 16.933594 19.53125 15.917969 19.402344 15.167969 18.769531 C 14.476562 18.191406 14.171875 17.273438 14.050781 16.394531 C 13.929688 15.378906 13.925781 14.355469 13.980469 13.335938 C 14.054688 12.34375 14.234375 11.292969 14.878906 10.507812 Z M 16.726562 11.519531 C 16.359375 12.050781 16.347656 12.734375 16.355469 13.359375 L 18.820312 13.359375 C 18.78125 12.765625 18.785156 12.136719 18.515625 11.589844 C 18.183594 10.917969 17.128906 10.914062 16.730469 11.519531 Z M 16.726562 11.519531 "/>
</g>
</svg>
