<?xml version="1.0" encoding="UTF-8"?>
<svg xmlns="http://www.w3.org/2000/svg" xmlns:xlink="http://www.w3.org/1999/xlink" width="26pt" height="26pt" viewBox="0 0 26 26" version="1.1">
<g id="surface1">
<path style=" stroke:none;fill-rule:evenodd;fill:rgb(8.235294%,74.117647%,100%);fill-opacity:1;" d="M 26 13 C 26 20.179688 20.179688 26 13 26 C 5.820312 26 0 20.179688 0 13 C 0 5.820312 5.820312 0 13 0 C 20.179688 0 26 5.820312 26 13 Z M 26 13 "/>
<path style=" stroke:none;fill-rule:nonzero;fill:rgb(100%,100%,100%);fill-opacity:1;" d="M 11.976562 20.097656 L 5.71875 7.351562 C 5.671875 7.253906 5.679688 7.140625 5.734375 7.050781 C 5.792969 6.960938 5.890625 6.90625 5.996094 6.90625 L 8.164062 6.90625 C 8.28125 6.90625 8.390625 6.972656 8.441406 7.074219 L 13.007812 16.320312 C 13.414062 17.148438 14.59375 17.148438 15 16.320312 L 19.554688 7.082031 C 19.605469 6.976562 19.714844 6.914062 19.828125 6.914062 L 20.101562 6.914062 C 20.257812 6.914062 20.359375 7.082031 20.289062 7.21875 L 13.96875 20.097656 C 13.5625 20.925781 12.382812 20.925781 11.976562 20.097656 Z M 11.976562 20.097656 "/>
</g>
</svg>
