<?xml version="1.0" encoding="UTF-8"?>
<svg xmlns="http://www.w3.org/2000/svg" xmlns:xlink="http://www.w3.org/1999/xlink" width="26pt" height="17pt" viewBox="0 0 26 17" version="1.1">
<g id="surface1">
<path style=" stroke:none;fill-rule:nonzero;fill:rgb(51.764706%,0%,99.215686%);fill-opacity:1;" d="M 7.023438 11.273438 L 0.839844 13.050781 L 0.632812 1.796875 L 6.816406 0.414062 Z M 7.023438 11.273438 "/>
<path style=" stroke:none;fill-rule:nonzero;fill:rgb(100%,100%,100%);fill-opacity:1;" d="M 1.25 13.445312 C 0.984375 13.445312 0.738281 13.367188 0.507812 13.230469 C 0.199219 13.03125 0.015625 12.714844 0.015625 12.378906 L 0.015625 2.152344 C 0.015625 1.660156 0.40625 1.242188 0.941406 1.125 L 5.992188 0.0390625 C 6.382812 -0.0390625 6.796875 0.0195312 7.125 0.238281 C 7.457031 0.453125 7.640625 0.789062 7.640625 1.144531 L 7.640625 11.078125 C 7.640625 11.570312 7.25 12.023438 6.691406 12.164062 L 1.601562 13.40625 C 1.476562 13.425781 1.375 13.445312 1.25 13.445312 Z M 5.765625 1.242188 C 5.703125 1.242188 5.621094 1.242188 5.558594 1.261719 L 1.644531 2.210938 C 1.292969 2.289062 1.023438 2.605469 1.023438 2.960938 L 1.023438 11.847656 C 1.023438 12.082031 1.148438 12.320312 1.355469 12.457031 C 1.5625 12.597656 1.808594 12.65625 2.054688 12.578125 L 6.011719 11.492188 C 6.382812 11.390625 6.652344 11.058594 6.652344 10.683594 L 6.652344 2.074219 C 6.652344 1.816406 6.527344 1.578125 6.320312 1.421875 C 6.136719 1.304688 5.949219 1.242188 5.765625 1.242188 Z M 5.765625 1.242188 "/>
<path style=" stroke:none;fill-rule:nonzero;fill:rgb(0.784314%,100%,85.882353%);fill-opacity:1;" d="M 11.351562 15.027344 L 5.167969 16.800781 L 4.960938 5.546875 L 11.144531 4.167969 Z M 11.351562 15.027344 "/>
<path style=" stroke:none;fill-rule:nonzero;fill:rgb(100%,100%,100%);fill-opacity:1;" d="M 5.722656 16.980469 C 5.476562 16.980469 5.230469 16.902344 5.023438 16.761719 C 4.734375 16.566406 4.550781 16.269531 4.550781 15.933594 L 4.550781 6.042969 C 4.550781 5.566406 4.921875 5.152344 5.4375 5.054688 L 10.21875 4.007812 C 10.589844 3.929688 10.980469 4.007812 11.289062 4.207031 C 11.597656 4.421875 11.761719 4.738281 11.761719 5.074219 L 11.761719 14.691406 C 11.761719 15.183594 11.390625 15.617188 10.855469 15.738281 L 6.035156 16.941406 C 5.929688 16.960938 5.828125 16.980469 5.722656 16.980469 Z M 10.09375 4.796875 C 10.03125 4.796875 9.949219 4.796875 9.886719 4.816406 L 5.972656 5.765625 C 5.621094 5.84375 5.351562 6.160156 5.351562 6.515625 L 5.351562 15.402344 C 5.351562 15.636719 5.476562 15.875 5.683594 16.011719 C 5.890625 16.152344 6.136719 16.210938 6.382812 16.132812 L 10.339844 15.046875 C 10.710938 14.945312 10.980469 14.609375 10.980469 14.234375 L 10.980469 5.628906 C 10.980469 5.371094 10.855469 5.132812 10.648438 4.976562 C 10.464844 4.855469 10.28125 4.796875 10.09375 4.796875 Z M 10.09375 4.796875 "/>
<path style=" stroke:none;fill-rule:nonzero;fill:rgb(51.764706%,0%,99.215686%);fill-opacity:1;" d="M 16.089844 11.472656 L 9.910156 13.25 L 9.703125 1.996094 L 15.886719 0.613281 Z M 16.089844 11.472656 "/>
<path style=" stroke:none;fill-rule:nonzero;fill:rgb(100%,100%,100%);fill-opacity:1;" d="M 10.464844 13.445312 C 10.21875 13.445312 9.96875 13.367188 9.765625 13.230469 C 9.476562 13.03125 9.289062 12.734375 9.289062 12.398438 L 9.289062 2.46875 C 9.289062 1.996094 9.660156 1.578125 10.175781 1.480469 L 14.9375 0.433594 C 15.308594 0.355469 15.699219 0.433594 16.007812 0.632812 C 16.320312 0.847656 16.484375 1.164062 16.484375 1.5 L 16.484375 11.136719 C 16.484375 11.628906 16.113281 12.0625 15.578125 12.183594 L 10.773438 13.386719 C 10.671875 13.425781 10.566406 13.445312 10.464844 13.445312 Z M 14.835938 1.242188 C 14.773438 1.242188 14.691406 1.242188 14.628906 1.261719 L 10.691406 2.210938 C 10.339844 2.289062 10.074219 2.605469 10.074219 2.960938 L 10.074219 11.847656 C 10.074219 12.082031 10.195312 12.320312 10.402344 12.457031 C 10.609375 12.597656 10.878906 12.65625 11.125 12.578125 L 15.0625 11.492188 C 15.433594 11.390625 15.699219 11.058594 15.699219 10.683594 L 15.699219 2.074219 C 15.699219 1.816406 15.578125 1.578125 15.371094 1.421875 C 15.207031 1.304688 15.019531 1.242188 14.835938 1.242188 Z M 14.835938 1.242188 "/>
<path style=" stroke:none;fill-rule:nonzero;fill:rgb(0.784314%,100%,85.882353%);fill-opacity:1;" d="M 20.832031 15.027344 L 14.648438 16.800781 L 14.441406 5.546875 L 20.625 4.167969 Z M 20.832031 15.027344 "/>
<path style=" stroke:none;fill-rule:nonzero;fill:rgb(100%,100%,100%);fill-opacity:1;" d="M 15.0625 17 C 14.792969 17 14.546875 16.921875 14.320312 16.78125 C 14.011719 16.585938 13.824219 16.269531 13.824219 15.933594 L 13.824219 5.707031 C 13.824219 5.210938 14.214844 4.796875 14.75 4.679688 L 19.800781 3.59375 C 20.191406 3.515625 20.605469 3.574219 20.933594 3.789062 C 21.265625 4.007812 21.449219 4.34375 21.449219 4.679688 L 21.449219 14.609375 C 21.449219 15.105469 21.058594 15.558594 20.503906 15.695312 L 15.410156 16.941406 C 15.289062 16.980469 15.183594 17 15.0625 17 Z M 19.574219 4.796875 C 19.511719 4.796875 19.429688 4.796875 19.367188 4.816406 L 15.453125 5.765625 C 15.101562 5.84375 14.835938 6.160156 14.835938 6.515625 L 14.835938 15.402344 C 14.835938 15.636719 14.957031 15.875 15.164062 16.011719 C 15.371094 16.152344 15.617188 16.210938 15.863281 16.132812 L 19.820312 15.046875 C 20.191406 14.945312 20.460938 14.609375 20.460938 14.234375 L 20.460938 5.628906 C 20.460938 5.371094 20.335938 5.132812 20.132812 4.976562 C 19.945312 4.855469 19.761719 4.796875 19.574219 4.796875 Z M 19.574219 4.796875 "/>
<path style=" stroke:none;fill-rule:nonzero;fill:rgb(51.764706%,0%,99.215686%);fill-opacity:1;" d="M 25.574219 11.273438 L 19.390625 13.050781 L 19.183594 1.796875 L 25.367188 0.414062 Z M 25.574219 11.273438 "/>
<path style=" stroke:none;fill-rule:nonzero;fill:rgb(100%,100%,100%);fill-opacity:1;" d="M 19.59375 13.445312 C 19.328125 13.445312 19.082031 13.367188 18.851562 13.230469 C 18.542969 13.03125 18.359375 12.714844 18.359375 12.378906 L 18.359375 2.152344 C 18.359375 1.660156 18.75 1.242188 19.285156 1.125 L 24.335938 0.0390625 C 24.726562 -0.0390625 25.140625 0.0195312 25.46875 0.238281 C 25.800781 0.453125 25.984375 0.789062 25.984375 1.125 L 25.984375 11.058594 C 25.984375 11.550781 25.59375 12.003906 25.035156 12.144531 L 19.945312 13.386719 C 19.820312 13.425781 19.71875 13.445312 19.59375 13.445312 Z M 24.109375 1.242188 C 24.046875 1.242188 23.964844 1.242188 23.902344 1.261719 L 19.988281 2.210938 C 19.636719 2.289062 19.367188 2.605469 19.367188 2.960938 L 19.367188 11.847656 C 19.367188 12.082031 19.492188 12.320312 19.699219 12.457031 C 19.90625 12.597656 20.152344 12.65625 20.398438 12.578125 L 24.355469 11.492188 C 24.726562 11.390625 24.996094 11.058594 24.996094 10.683594 L 24.996094 2.074219 C 24.996094 1.816406 24.871094 1.578125 24.664062 1.421875 C 24.480469 1.304688 24.292969 1.242188 24.109375 1.242188 Z M 24.109375 1.242188 "/>
</g>
</svg>
