<?xml version="1.0" encoding="UTF-8"?>
<svg xmlns="http://www.w3.org/2000/svg" xmlns:xlink="http://www.w3.org/1999/xlink" width="26pt" height="26pt" viewBox="0 0 26 26" version="1.1">
<g id="surface1">
<path style=" stroke:none;fill-rule:nonzero;fill:rgb(90.196078%,12.54902%,10.196078%);fill-opacity:1;" d="M 13 26 C 5.832031 26 0 20.167969 0 13 C 0 5.832031 5.832031 0 13 0 C 20.167969 0 26 5.832031 26 13 C 26 20.167969 20.167969 26 13 26 Z M 13 2.105469 C 6.988281 2.105469 2.105469 6.988281 2.105469 13 C 2.105469 19.011719 6.988281 23.894531 13 23.894531 C 19.011719 23.894531 23.894531 19.011719 23.894531 13 C 23.894531 6.988281 19.011719 2.105469 13 2.105469 Z M 13 2.105469 "/>
<path style=" stroke:none;fill-rule:nonzero;fill:rgb(90.196078%,12.54902%,10.196078%);fill-opacity:1;" d="M 19.074219 8.640625 C 18.609375 7.570312 17.601562 6.894531 16.433594 6.894531 L 9.546875 6.832031 L 9.527344 6.832031 C 8.390625 6.832031 7.390625 7.472656 6.9375 8.515625 C 6.464844 9.578125 6.664062 10.777344 7.464844 11.632812 L 8.410156 12.652344 L 9.84375 11.105469 L 9.011719 10.199219 C 8.683594 9.84375 8.8125 9.472656 8.863281 9.359375 C 8.914062 9.230469 9.105469 8.925781 9.527344 8.925781 L 9.535156 8.925781 L 16.421875 8.988281 C 16.894531 8.988281 17.09375 9.359375 17.144531 9.472656 C 17.210938 9.613281 17.316406 9.96875 17.019531 10.285156 L 13.609375 13.988281 C 13.421875 14.191406 13.1875 14.222656 13.074219 14.222656 C 12.851562 14.222656 12.640625 14.128906 12.496094 13.957031 L 11.914062 13.339844 L 10.484375 14.886719 L 10.945312 15.378906 C 11.492188 15.96875 12.273438 16.316406 13.074219 16.316406 C 13.863281 16.316406 14.628906 15.980469 15.15625 15.402344 L 18.566406 11.695312 C 19.335938 10.875 19.527344 9.695312 19.074219 8.640625 Z M 19.074219 8.640625 "/>
<path style=" stroke:none;fill-rule:nonzero;fill:rgb(90.196078%,12.54902%,10.196078%);fill-opacity:1;" d="M 18.671875 14.179688 L 17.703125 13.125 L 16.050781 14.917969 L 16.882812 15.820312 C 17.105469 16.0625 17.042969 16.328125 16.980469 16.464844 C 16.9375 16.558594 16.78125 16.851562 16.398438 16.851562 L 9.515625 16.914062 C 9.167969 16.914062 9.03125 16.683594 8.988281 16.578125 C 8.9375 16.472656 8.851562 16.191406 9.105469 15.914062 L 12.578125 12.15625 C 12.703125 12.019531 12.863281 11.949219 13.042969 11.949219 C 13.136719 11.949219 13.316406 11.96875 13.460938 12.125 L 14.179688 12.90625 L 15.832031 11.117188 L 15.25 10.484375 C 14.683594 9.875 13.882812 9.515625 13.050781 9.515625 C 12.199219 9.515625 11.390625 9.875 10.808594 10.503906 L 7.335938 14.261719 C 6.492188 15.167969 6.285156 16.429688 6.777344 17.558594 C 7.261719 18.652344 8.316406 19.335938 9.515625 19.335938 L 16.421875 19.273438 C 17.640625 19.261719 18.714844 18.558594 19.199219 17.421875 C 19.695312 16.304688 19.496094 15.0625 18.671875 14.179688 Z M 18.671875 14.179688 "/>
</g>
</svg>
