<?xml version="1.0" encoding="UTF-8"?>
<svg xmlns="http://www.w3.org/2000/svg" xmlns:xlink="http://www.w3.org/1999/xlink" width="26pt" height="36pt" viewBox="0 0 26 36" version="1.1">
<g id="surface1">
<path style=" stroke:none;fill-rule:nonzero;fill:rgb(28.627451%,75.686275%,74.901961%);fill-opacity:1;" d="M 26 14.875 L 20.699219 17.1875 L 6.640625 24.1875 L 20.699219 30.796875 L 20.699219 19.871094 L 26 17.535156 L 26 33.679688 L 20.699219 35.988281 L 0 26.300781 L 0 21.148438 L 14.328125 14.273438 L 0 7.539062 L 0 2.3125 L 5.382812 0.00390625 L 26 9.707031 Z M 26 14.875 "/>
<path style=" stroke:none;fill-rule:nonzero;fill:rgb(2.745098%,47.843137%,56.078431%);fill-opacity:1;" d="M 0 2.3125 L 20.699219 12.019531 L 26 9.707031 L 5.382812 0.00390625 Z M 0 2.3125 "/>
<path style=" stroke:none;fill-rule:nonzero;fill:rgb(16.078431%,55.686275%,59.215686%);fill-opacity:1;" d="M 20.699219 12 L 26 9.6875 L 26 14.855469 L 20.699219 17.164062 Z M 20.699219 12 "/>
<path style=" stroke:none;fill-rule:nonzero;fill:rgb(28.627451%,75.686275%,74.901961%);fill-opacity:1;" d="M 0 2.316406 L 0 7.542969 L 14.328125 14.277344 L 0 21.152344 L 0 26.304688 L 20.699219 35.992188 L 20.699219 30.8125 L 6.640625 24.191406 L 20.699219 17.191406 L 20.699219 12.023438 Z M 0 2.316406 "/>
<path style=" stroke:none;fill-rule:nonzero;fill:rgb(16.078431%,55.686275%,59.215686%);fill-opacity:1;" d="M 20.699219 35.957031 L 26 33.644531 L 26 17.5 L 20.699219 19.835938 Z M 20.699219 35.957031 "/>
</g>
</svg>
